{"glyphs":{"0":{"ha":568,"x_min":36,"x_max":532,"o":"m 403 978 q 499 947 465 978 q 532 853 532 915 l 532 125 q 499 31 532 63 q 403 0 465 0 l 165 0 q 69 31 103 0 q 36 125 36 63 l 36 853 q 69 947 36 915 q 165 978 103 978 l 403 978 m 354 181 l 354 524 l 258 181 l 354 181 m 214 797 l 214 454 l 310 797 l 214 797 "},"1":{"ha":358,"x_min":36,"x_max":322,"o":"m 36 978 l 322 978 l 322 0 l 147 0 l 147 797 l 36 797 l 36 978 "},"2":{"ha":499,"x_min":36,"x_max":463,"o":"m 47 242 l 275 797 l 36 797 l 36 978 l 333 978 q 428 951 393 978 q 463 861 463 924 l 463 796 q 459 766 463 783 q 451 738 456 749 l 224 181 l 463 181 l 463 0 l 36 0 l 36 181 q 40 213 36 196 q 47 242 44 231 "},"3":{"ha":499,"x_min":36,"x_max":463,"o":"m 78 586 l 285 586 l 285 797 l 36 797 l 36 978 l 333 978 q 429 947 396 978 q 463 853 463 915 l 463 601 q 444 534 463 561 q 393 496 425 507 q 463 382 463 471 l 463 125 q 429 31 463 63 q 333 0 396 0 l 36 0 l 36 181 l 285 181 l 285 406 l 78 406 l 78 586 "},"4":{"ha":568,"x_min":36,"x_max":532,"o":"m 214 978 l 214 588 l 354 588 l 354 978 l 532 978 l 532 0 l 354 0 l 354 404 l 36 404 l 36 978 l 214 978 "},"5":{"ha":499,"x_min":36,"x_max":463,"o":"m 36 181 l 285 181 l 285 406 l 36 406 l 36 978 l 463 978 l 463 797 l 214 797 l 214 586 l 333 586 q 429 555 396 586 q 463 461 463 524 l 463 125 q 429 31 463 63 q 333 0 396 0 l 36 0 l 36 181 "},"6":{"ha":565,"x_min":36,"x_max":529,"o":"m 400 0 l 165 0 q 69 31 103 0 q 36 125 36 63 l 36 861 q 71 951 36 924 q 165 978 106 978 l 529 978 l 529 797 l 213 797 l 213 586 l 400 586 q 496 556 463 586 q 529 463 529 525 l 529 125 q 496 31 529 63 q 400 0 463 0 m 353 406 l 213 406 l 213 181 l 353 181 l 353 406 "},"7":{"ha":499,"x_min":36,"x_max":463,"o":"m 86 0 l 278 797 l 36 797 l 36 978 l 463 978 l 463 796 q 459 766 463 783 q 451 738 456 749 l 271 0 l 86 0 "},"8":{"ha":572,"x_min":36,"x_max":536,"o":"m 36 853 q 69 947 36 915 q 165 978 103 978 l 407 978 q 503 947 469 978 q 536 853 536 915 l 536 601 q 517 534 536 561 q 467 496 499 507 q 536 382 536 471 l 536 125 q 503 31 536 63 q 407 0 469 0 l 165 0 q 69 31 103 0 q 36 125 36 63 l 36 382 q 106 496 36 471 q 55 534 74 507 q 36 601 36 561 l 36 853 m 214 181 l 358 181 l 358 404 l 254 404 l 254 586 l 358 586 l 358 797 l 214 797 l 214 181 "},"9":{"ha":565,"x_min":36,"x_max":529,"o":"m 165 978 l 400 978 q 496 947 463 978 q 529 853 529 915 l 529 117 q 494 27 529 54 q 400 0 460 0 l 36 0 l 36 181 l 351 181 l 351 393 l 165 393 q 69 424 103 393 q 36 518 36 456 l 36 853 q 69 947 36 915 q 165 978 103 978 m 214 574 l 351 574 l 351 797 l 214 797 l 214 574 "}," ":{"ha":283,"x_min":0,"x_max":0,"o":""},"!":{"ha":250,"x_min":36,"x_max":214,"o":"m 214 978 l 36 978 l 36 267 l 214 267 l 214 978 m 36 181 l 36 0 l 214 0 l 214 181 l 36 181 "},"\"":{"ha":468,"x_min":36,"x_max":432,"o":"m 254 675 l 303 675 q 399 706 365 675 q 432 800 432 738 l 432 978 l 254 978 l 254 675 m 36 675 l 85 675 q 181 706 147 675 q 214 800 214 738 l 214 978 l 36 978 l 36 675 "},"#":{"ha":654,"x_min":36,"x_max":618,"o":"m 36 714 l 118 714 l 118 978 l 296 978 l 296 714 l 358 714 l 358 978 l 536 978 l 536 714 l 618 714 l 618 533 l 536 533 l 536 458 l 618 458 l 618 278 l 536 278 l 536 0 l 358 0 l 358 278 l 296 278 l 296 0 l 118 0 l 118 278 l 36 278 l 36 458 l 118 458 l 118 533 l 36 533 l 36 714 m 296 533 l 296 458 l 358 458 l 358 533 l 296 533 "},"$":{"ha":499,"x_min":36,"x_max":463,"o":"m 451 242 q 458 215 454 231 q 463 182 463 199 l 463 125 q 338 0 463 1 l 338 -97 l 160 -97 l 160 0 l 36 0 l 36 181 l 276 181 l 47 738 q 40 766 43 749 q 36 796 36 783 l 36 861 q 69 950 36 924 q 160 978 101 976 l 160 1075 l 338 1075 l 338 978 l 463 978 l 463 797 l 222 797 l 451 242 "},"%":{"ha":888,"x_min":36,"x_max":851,"o":"m 696 125 l 735 125 l 735 413 l 696 413 l 696 125 m 657 0 q 578 81 578 0 l 578 458 q 657 538 578 538 l 774 538 q 851 458 851 538 l 851 81 q 774 0 851 0 l 657 0 m 643 978 l 435 0 l 247 0 l 456 978 l 643 978 m 154 565 l 193 565 l 193 853 l 154 853 l 154 565 m 115 440 q 36 521 36 440 l 36 899 q 115 978 36 978 l 232 978 q 310 899 310 978 l 310 521 q 232 440 310 440 l 115 440 "},"&":{"ha":613,"x_min":36,"x_max":576,"o":"m 576 586 l 254 586 l 254 404 l 342 404 l 342 181 l 214 181 l 214 797 l 519 797 l 519 978 l 165 978 q 69 947 103 978 q 36 853 36 915 l 36 601 q 55 534 36 561 q 106 496 74 507 q 36 382 36 471 l 36 125 q 69 31 36 63 q 165 0 103 0 l 519 0 l 519 406 l 576 406 l 576 586 "},"'":{"ha":250,"x_min":36,"x_max":214,"o":"m 36 675 l 85 675 q 181 706 147 675 q 214 800 214 738 l 214 978 l 36 978 l 36 675 "},"(":{"ha":353,"x_min":36,"x_max":317,"o":"m 317 181 l 317 0 l 165 0 q 69 31 103 0 q 36 125 36 63 l 36 861 q 71 951 36 924 q 165 978 106 978 l 317 978 l 317 797 l 214 797 l 214 181 l 317 181 "},")":{"ha":353,"x_min":36,"x_max":317,"o":"m 36 181 l 36 0 l 188 0 q 283 31 250 0 q 317 125 317 63 l 317 861 q 282 951 317 924 q 188 978 247 978 l 36 978 l 36 797 l 139 797 l 139 181 l 36 181 "},"*":{"ha":317,"x_min":36,"x_max":281,"o":"m 199 1036 l 117 1036 l 119 968 l 63 992 l 36 904 l 90 883 l 56 829 l 119 774 l 158 831 l 197 774 l 264 829 l 224 883 l 281 904 l 253 993 l 196 968 l 199 1036 "},"+":{"ha":433,"x_min":36,"x_max":397,"o":"m 36 586 l 36 406 l 126 406 l 126 315 l 307 315 l 307 406 l 397 406 l 397 586 l 307 586 l 307 676 l 126 676 l 126 586 l 36 586 "},",":{"ha":250,"x_min":36,"x_max":214,"o":"m 36 -122 l 85 -122 q 181 -91 147 -122 q 214 3 214 -60 l 214 181 l 36 181 l 36 -122 "},"-":{"ha":326,"x_min":36,"x_max":290,"o":"m 36 586 l 290 586 l 290 406 l 36 406 l 36 586 "},".":{"ha":250,"x_min":36,"x_max":214,"o":"m 36 181 l 36 0 l 214 0 l 214 181 l 36 181 "},"/":{"ha":440,"x_min":22,"x_max":418,"o":"m 418 978 l 210 0 l 22 0 l 231 978 l 418 978 "},":":{"ha":250,"x_min":36,"x_max":214,"o":"m 36 181 l 36 0 l 214 0 l 214 181 l 36 181 m 36 586 l 36 406 l 214 406 l 214 586 l 36 586 "},";":{"ha":250,"x_min":36,"x_max":214,"o":"m 36 586 l 36 406 l 214 406 l 214 586 l 36 586 m 36 -121 l 85 -121 q 181 -90 147 -121 q 214 4 214 -58 l 214 181 l 36 181 l 36 -121 "},"<":{"ha":408,"x_min":22,"x_max":386,"o":"m 22 489 l 203 978 l 386 978 l 214 489 l 386 0 l 203 0 l 22 489 "},"=":{"ha":364,"x_min":36,"x_max":328,"o":"m 36 472 l 36 292 l 328 292 l 328 472 l 36 472 m 36 700 l 36 519 l 328 519 l 328 700 l 36 700 "},">":{"ha":408,"x_min":22,"x_max":386,"o":"m 386 489 l 206 978 l 22 978 l 194 489 l 22 0 l 206 0 l 386 489 "},"?":{"ha":499,"x_min":36,"x_max":463,"o":"m 333 978 l 36 978 l 36 797 l 285 797 l 285 586 l 215 586 q 119 555 153 586 q 86 461 86 524 l 86 267 l 264 267 l 264 406 l 333 406 q 429 437 396 406 q 463 531 463 468 l 463 853 q 429 947 463 915 q 333 978 396 978 m 86 181 l 86 0 l 264 0 l 264 181 l 86 181 "},"@":{"ha":917,"x_min":36,"x_max":881,"o":"m 390 169 q 294 201 328 169 q 261 294 261 232 l 261 683 q 294 777 261 746 q 390 808 328 808 l 526 808 q 622 777 589 808 q 656 683 656 746 l 656 347 l 703 347 l 703 856 l 214 856 l 214 122 l 851 122 l 851 -58 l 165 -58 q 69 -27 103 -58 q 36 67 36 4 l 36 919 q 71 1009 36 982 q 165 1036 106 1036 l 751 1036 q 846 1009 811 1036 q 881 919 881 982 l 881 294 q 847 201 881 232 q 751 169 814 169 l 390 169 m 436 631 l 436 347 l 481 347 l 481 631 l 436 631 "},"A":{"ha":640,"x_min":22,"x_max":618,"o":"m 240 94 q 245 97 242 94 q 250 101 249 100 l 260 119 l 258 128 q 261 132 260 132 q 264 124 264 132 q 262 109 264 117 q 254 100 260 101 l 261 51 q 269 39 264 38 q 275 33 274 40 l 286 0 l 22 0 l 228 978 l 413 978 l 618 0 l 371 0 q 374 24 371 14 q 385 44 378 33 l 390 115 l 396 143 l 396 168 q 398 187 396 172 q 401 206 400 201 l 410 207 l 414 211 l 421 211 q 429 224 428 217 q 436 238 431 232 l 436 256 q 442 261 442 257 q 446 269 442 267 l 454 307 q 456 311 456 308 l 456 315 q 455 322 456 319 q 450 328 454 324 l 450 343 l 447 356 q 447 359 447 356 q 444 369 446 363 q 442 374 444 371 q 440 376 440 376 l 440 381 q 439 385 440 383 l 439 389 l 446 389 q 445 392 446 390 q 444 393 444 393 l 446 432 q 434 452 442 447 q 417 468 426 457 l 425 490 q 428 500 428 493 q 429 507 428 507 q 438 517 431 511 q 451 530 444 524 q 465 542 458 536 q 471 553 471 549 q 460 551 465 553 q 451 549 456 549 q 439 556 443 549 q 433 570 435 563 q 430 585 431 578 q 426 592 429 592 l 425 592 q 424 560 425 575 q 417 529 422 544 q 410 510 414 526 q 403 486 406 493 q 390 475 396 475 q 377 478 385 475 q 369 488 369 482 l 369 489 q 371 491 369 489 q 372 494 372 493 l 365 538 q 354 561 363 551 q 331 571 346 571 q 298 556 310 571 q 286 522 286 542 l 296 479 q 288 476 296 476 q 276 472 281 476 q 271 463 274 465 q 245 438 256 453 q 235 403 235 422 l 235 400 q 236 397 235 397 q 240 397 236 397 q 246 396 244 396 l 236 368 l 236 361 q 223 346 228 354 q 211 331 218 338 l 178 297 q 194 306 183 297 l 229 343 l 235 344 l 236 343 q 228 334 236 339 q 217 325 221 329 l 207 313 l 186 293 q 174 288 181 290 q 161 285 168 285 l 151 286 q 144 281 147 286 q 138 271 142 276 q 129 260 135 265 q 114 256 124 256 l 110 256 l 119 249 l 119 247 q 111 245 117 246 q 101 242 106 244 l 119 242 l 117 207 l 118 207 l 124 238 q 128 248 125 243 q 136 253 132 253 q 142 250 139 253 q 149 247 144 247 l 153 247 l 192 276 q 197 282 193 282 l 196 282 q 199 283 196 282 q 207 285 201 283 q 210 290 210 286 q 213 297 211 294 q 213 297 213 297 q 214 294 214 296 q 210 274 214 283 q 204 256 206 265 l 210 246 q 208 235 210 240 q 207 228 207 231 q 214 207 207 221 q 225 193 221 193 l 226 193 q 231 200 231 193 l 222 222 l 225 222 l 228 214 l 231 213 q 235 222 235 213 l 232 243 q 235 249 232 246 l 258 294 l 260 290 l 260 285 q 251 269 260 271 l 246 243 l 246 181 l 247 181 l 247 178 q 247 170 247 176 q 244 163 246 164 l 242 124 q 246 131 243 124 q 251 148 249 139 q 254 165 253 157 q 256 176 256 174 l 256 181 l 260 189 q 261 172 261 188 l 261 156 q 262 154 261 156 q 263 151 263 153 q 262 149 263 150 q 261 147 261 147 l 251 138 l 253 117 q 246 104 251 114 q 240 94 240 94 m 331 136 l 333 132 l 333 83 q 332 74 333 79 q 331 64 331 69 l 333 54 q 331 46 333 49 l 331 18 q 332 0 331 1 l 328 0 q 326 21 326 1 l 326 72 q 325 78 326 76 l 326 90 q 326 100 326 94 q 324 113 325 106 q 326 124 324 117 q 331 136 329 132 m 401 340 l 406 344 q 410 326 410 336 q 411 306 411 315 q 401 321 401 306 l 401 340 m 185 282 q 176 274 181 275 q 164 269 171 272 l 161 268 q 153 260 156 265 q 144 256 151 256 q 161 271 144 265 q 185 282 178 276 m 401 282 l 407 289 l 410 286 l 408 269 l 406 269 q 403 278 406 275 l 401 282 m 222 318 q 225 315 225 318 l 225 313 q 211 305 218 311 q 200 293 204 299 q 210 308 204 301 q 222 318 217 314 "},"B":{"ha":571,"x_min":36,"x_max":535,"o":"m 406 0 l 36 0 l 36 978 l 406 978 q 501 947 468 978 q 535 853 535 915 l 535 601 q 516 534 535 561 q 465 496 497 507 q 535 382 535 471 l 535 125 q 501 31 535 63 q 406 0 468 0 m 254 406 l 254 586 l 357 586 l 357 797 l 214 797 l 214 181 l 357 181 l 357 406 l 254 406 "},"C":{"ha":571,"x_min":36,"x_max":535,"o":"m 214 797 l 357 797 l 357 624 l 535 624 l 535 853 q 501 947 535 915 q 406 978 468 978 l 165 978 q 69 947 103 978 q 36 853 36 915 l 36 125 q 69 31 36 63 q 165 0 103 0 l 406 0 q 501 31 468 0 q 535 125 535 63 l 535 354 l 357 354 l 357 181 l 214 181 l 214 797 "},"D":{"ha":571,"x_min":36,"x_max":535,"o":"m 406 0 l 36 0 l 36 978 l 406 978 q 501 947 468 978 q 535 853 535 915 l 535 125 q 501 31 535 63 q 406 0 468 0 m 214 797 l 214 181 l 357 181 l 357 797 l 214 797 "},"E":{"ha":496,"x_min":36,"x_max":460,"o":"m 36 978 l 460 978 l 460 797 l 214 797 l 214 586 l 418 586 l 418 406 l 214 406 l 214 181 l 460 181 l 460 0 l 36 0 l 36 978 "},"F":{"ha":496,"x_min":36,"x_max":460,"o":"m 36 978 l 460 978 l 460 797 l 214 797 l 214 586 l 418 586 l 418 406 l 214 406 l 214 0 l 36 0 l 36 978 "},"G":{"ha":565,"x_min":36,"x_max":529,"o":"m 529 0 l 165 0 q 69 31 103 0 q 36 125 36 63 l 36 861 q 71 951 36 924 q 165 978 106 978 l 529 978 l 529 797 l 214 797 l 214 181 l 354 181 l 354 404 l 268 404 l 268 586 l 529 586 l 529 0 "},"H":{"ha":568,"x_min":36,"x_max":532,"o":"m 214 978 l 214 588 l 354 588 l 354 978 l 532 978 l 532 0 l 354 0 l 354 404 l 214 404 l 214 0 l 36 0 l 36 978 l 214 978 "},"I":{"ha":250,"x_min":36,"x_max":214,"o":"m 36 978 l 36 0 l 214 0 l 214 978 l 36 978 "},"J":{"ha":482,"x_min":36,"x_max":446,"o":"m 446 125 l 446 978 l 268 978 l 268 181 l 36 181 l 36 0 l 317 0 q 413 31 379 0 q 446 125 446 63 "},"K":{"ha":581,"x_min":36,"x_max":558,"o":"m 214 0 l 214 978 l 36 978 l 36 0 l 214 0 m 253 306 l 369 0 l 558 0 l 356 489 l 558 978 l 369 978 l 253 682 l 253 306 "},"L":{"ha":482,"x_min":36,"x_max":446,"o":"m 36 978 l 36 0 l 446 0 l 446 181 l 214 181 l 214 978 l 36 978 "},"M":{"ha":674,"x_min":36,"x_max":638,"o":"m 36 978 l 36 0 l 213 0 l 213 507 l 336 204 l 460 507 l 460 0 l 638 0 l 638 978 l 479 978 l 336 618 l 200 978 l 36 978 "},"N":{"ha":567,"x_min":36,"x_max":531,"o":"m 386 0 l 213 426 l 213 0 l 36 0 l 36 978 l 181 978 l 354 506 l 354 978 l 531 978 l 531 0 l 386 0 "},"O":{"ha":571,"x_min":36,"x_max":535,"o":"m 406 0 q 501 31 468 0 q 535 125 535 63 l 535 853 q 501 947 535 915 q 406 978 468 978 l 165 978 q 69 947 103 978 q 36 853 36 915 l 36 125 q 69 31 36 63 q 165 0 103 0 l 406 0 m 225 229 q 218 232 222 232 l 214 235 l 211 239 q 208 242 210 236 q 207 251 207 249 l 206 256 q 205 258 206 257 q 204 260 204 260 l 204 265 l 201 269 q 200 275 200 271 l 200 282 l 200 301 l 217 313 l 214 331 q 200 357 201 340 l 200 367 q 199 369 200 369 l 199 364 q 196 363 199 364 q 193 358 193 361 l 189 357 l 188 342 l 188 318 q 186 308 188 310 l 154 235 q 153 231 153 233 q 151 229 153 229 l 150 232 l 163 269 q 165 278 163 275 q 168 285 167 282 q 174 300 171 292 q 179 315 176 308 q 172 321 179 321 q 168 315 168 321 l 142 238 l 139 235 q 135 238 135 235 l 135 239 l 135 240 q 136 243 135 242 l 142 260 q 142 262 142 261 q 143 264 143 263 l 160 317 q 160 319 160 318 q 161 319 161 319 q 169 333 164 328 q 178 344 174 338 q 182 358 179 349 q 186 367 185 367 l 188 374 l 188 397 l 185 429 q 181 441 185 436 q 172 449 176 446 q 168 447 172 447 q 162 451 165 447 q 156 456 158 454 q 154 461 154 457 q 151 467 154 464 l 150 465 l 150 468 l 150 475 q 147 485 150 474 q 143 491 146 489 q 139 496 140 493 l 135 521 q 133 524 135 524 q 131 528 132 525 l 131 540 q 136 553 131 553 q 144 563 142 554 q 147 580 144 582 q 150 585 150 578 q 151 599 150 592 q 153 615 151 607 l 153 618 q 151 626 153 624 q 150 633 150 629 l 150 653 q 151 669 150 668 q 154 680 151 678 q 163 686 157 682 l 179 704 q 185 708 182 707 q 194 713 189 710 l 199 715 l 199 717 l 200 717 l 206 717 q 208 719 207 717 q 211 722 210 721 q 217 725 214 725 q 221 726 219 725 l 219 731 q 218 749 218 732 l 218 767 l 218 781 q 224 788 218 786 q 225 789 225 788 q 226 792 226 790 q 228 797 226 796 q 236 814 232 811 q 249 819 240 817 l 253 822 l 260 824 q 265 821 263 824 l 272 821 q 290 807 283 817 q 299 786 296 797 q 301 785 300 785 q 303 783 301 786 l 304 767 q 303 763 304 764 l 303 725 q 307 722 303 722 q 313 719 311 721 q 315 713 315 717 q 318 710 315 710 l 319 710 q 337 751 331 729 q 346 793 343 774 q 347 804 346 796 q 350 815 349 813 q 351 819 351 817 l 351 826 q 352 833 351 826 q 356 839 353 839 q 360 831 360 839 l 360 810 q 381 789 361 789 q 388 790 383 789 q 396 790 392 790 q 400 789 400 790 q 397 782 400 785 q 392 776 394 779 q 378 767 389 774 q 365 758 368 761 q 347 735 353 750 q 339 704 342 721 q 342 702 340 703 q 343 701 343 701 q 364 672 358 693 q 369 635 369 650 l 372 633 q 385 625 375 631 q 397 618 394 619 q 413 606 406 613 q 424 596 419 600 q 440 579 429 585 l 443 576 l 446 574 l 451 571 l 451 558 q 453 554 451 556 q 454 550 454 553 q 453 539 454 540 l 451 525 q 446 510 451 515 q 440 506 443 508 q 432 503 436 504 l 431 503 l 431 504 q 437 511 431 507 q 443 526 443 515 q 442 540 443 533 q 433 549 440 546 l 426 551 q 421 556 422 553 q 414 563 419 560 l 410 563 q 400 561 401 563 l 378 558 l 378 553 q 381 550 378 550 q 384 551 383 550 q 386 553 385 553 q 388 551 388 553 q 389 550 389 551 q 396 516 392 533 q 400 482 400 499 l 401 474 q 401 472 401 472 q 400 468 400 471 q 402 456 400 461 q 404 446 404 451 l 404 440 q 394 430 397 435 q 386 418 390 425 q 382 412 383 415 q 378 404 381 408 l 376 414 l 381 431 l 378 428 q 375 424 374 424 q 369 429 369 424 l 369 431 q 373 446 372 435 q 374 460 374 457 l 374 468 l 375 469 q 374 472 375 471 q 374 472 374 472 l 351 517 q 343 535 343 525 q 342 543 343 542 q 336 551 336 549 l 335 551 q 329 549 329 551 l 329 543 q 343 494 338 517 q 360 449 349 472 q 362 447 360 453 q 367 422 364 440 q 377 403 372 411 q 389 383 382 394 q 397 371 397 381 q 401 361 397 368 q 408 344 406 354 l 413 336 l 413 333 q 412 331 413 332 q 411 326 411 329 l 413 311 l 407 315 l 407 314 q 413 302 408 308 q 417 289 417 296 q 414 279 417 282 q 415 272 414 278 q 418 265 417 267 q 419 262 418 263 q 421 260 421 261 q 419 258 421 258 q 418 257 418 257 q 417 259 418 257 q 414 261 417 261 q 410 259 411 261 q 408 256 410 257 l 408 257 q 407 258 408 257 q 406 258 406 260 q 402 255 401 257 q 397 253 403 253 q 398 252 397 253 q 397 251 399 251 l 396 249 q 401 245 400 244 q 406 243 403 246 q 404 240 406 240 l 404 239 l 404 235 l 404 233 q 401 232 404 232 l 396 232 q 394 235 396 235 l 388 231 q 385 232 385 231 q 383 235 385 235 l 378 225 l 378 218 q 381 215 378 215 l 381 214 l 379 214 l 376 214 q 374 218 376 218 q 369 233 374 229 l 363 243 l 356 243 l 356 244 q 353 243 356 243 q 349 249 349 243 q 340 239 343 239 l 335 243 l 331 239 q 333 244 331 242 q 336 253 336 247 q 334 255 336 253 q 329 257 332 257 l 329 256 q 326 242 326 242 q 319 232 326 236 l 317 232 q 314 228 315 232 q 313 225 313 225 q 309 216 311 219 q 306 208 307 213 q 304 203 304 208 q 300 182 301 190 q 297 158 299 174 l 297 154 l 243 154 l 239 165 q 238 172 238 167 l 238 178 q 231 200 236 192 q 227 216 229 206 q 225 229 225 226 m 178 504 q 178 503 178 504 q 179 500 179 501 q 181 499 181 500 l 181 486 q 179 483 179 486 l 179 482 q 185 467 179 472 l 185 472 l 186 472 l 186 482 q 186 485 188 481 q 185 492 185 489 q 186 494 185 494 l 188 494 l 188 499 q 192 507 188 503 q 197 521 197 511 q 190 537 190 528 q 188 553 189 546 l 188 556 q 185 560 188 557 q 181 552 182 556 q 179 544 181 549 l 178 504 m 376 335 l 378 328 q 381 317 378 319 l 383 317 q 389 311 383 311 l 390 311 l 390 321 q 389 337 390 328 q 383 353 388 346 l 382 353 q 379 345 381 350 q 378 338 378 340 q 377 337 378 338 q 376 335 376 336 m 369 358 q 374 353 369 354 q 376 361 376 356 l 376 364 l 369 363 l 369 358 "},"P":{"ha":571,"x_min":36,"x_max":535,"o":"m 36 978 l 406 978 q 501 947 468 978 q 535 853 535 915 l 535 531 q 501 437 535 468 q 406 406 468 406 l 254 406 l 254 586 l 358 586 l 358 797 l 214 797 l 214 0 l 36 0 l 36 978 "},"Q":{"ha":571,"x_min":36,"x_max":535,"o":"m 214 181 l 357 261 l 357 797 l 214 797 l 214 181 m 165 0 q 69 31 103 0 q 36 125 36 63 l 36 853 q 69 947 36 915 q 165 978 103 978 l 406 978 q 501 947 468 978 q 535 853 535 915 l 535 125 q 501 31 535 63 q 406 0 468 0 l 381 0 l 424 -122 l 239 -122 l 196 0 l 165 0 "},"R":{"ha":571,"x_min":36,"x_max":564,"o":"m 406 978 q 501 947 468 978 q 535 853 535 915 l 535 504 q 503 433 535 454 q 426 408 472 411 l 564 0 l 381 0 l 254 385 l 254 586 l 357 586 l 357 797 l 214 797 l 214 0 l 36 0 l 36 978 l 406 978 "},"S":{"ha":499,"x_min":36,"x_max":463,"o":"m 36 181 l 285 181 l 285 406 l 165 406 q 69 437 103 406 q 36 531 36 468 l 36 853 q 69 947 36 915 q 165 978 103 978 l 463 978 l 463 797 l 214 797 l 214 586 l 333 586 q 429 555 396 586 q 463 461 463 524 l 463 125 q 429 31 463 63 q 333 0 396 0 l 36 0 l 36 181 "},"T":{"ha":533,"x_min":36,"x_max":497,"o":"m 497 978 l 497 797 l 356 797 l 356 0 l 178 0 l 178 797 l 36 797 l 36 978 l 497 978 "},"U":{"ha":571,"x_min":36,"x_max":535,"o":"m 165 0 q 69 31 103 0 q 36 125 36 63 l 36 978 l 214 978 l 214 181 l 357 181 l 357 978 l 535 978 l 535 125 q 501 31 535 63 q 406 0 468 0 l 165 0 "},"V":{"ha":640,"x_min":22,"x_max":618,"o":"m 618 978 l 413 0 l 228 0 l 22 978 l 211 978 l 319 440 l 429 978 l 618 978 "},"W":{"ha":674,"x_min":36,"x_max":638,"o":"m 36 0 l 36 978 l 213 978 l 213 471 l 336 774 l 460 471 l 460 978 l 638 978 l 638 0 l 479 0 l 336 360 l 200 0 l 36 0 "},"X":{"ha":581,"x_min":22,"x_max":558,"o":"m 22 978 l 206 978 l 290 728 l 375 978 l 558 978 l 386 489 l 558 0 l 375 0 l 290 250 l 206 0 l 22 0 l 194 489 l 22 978 "},"Y":{"ha":581,"x_min":22,"x_max":558,"o":"m 206 978 l 290 728 l 375 978 l 558 978 l 378 489 l 378 0 l 200 0 l 200 490 l 22 978 l 206 978 "},"Z":{"ha":499,"x_min":36,"x_max":463,"o":"m 47 242 l 275 797 l 36 797 l 36 978 l 463 978 l 463 796 q 459 766 463 783 q 451 738 456 749 l 224 181 l 463 181 l 463 0 l 36 0 l 36 182 q 40 213 36 194 q 47 242 44 231 "},"[":{"ha":353,"x_min":36,"x_max":317,"o":"m 317 181 l 317 0 l 36 0 l 36 978 l 317 978 l 317 797 l 214 797 l 214 181 l 317 181 "},"\\":{"ha":440,"x_min":22,"x_max":418,"o":"m 22 978 l 231 0 l 418 0 l 210 978 l 22 978 "},"]":{"ha":353,"x_min":36,"x_max":317,"o":"m 36 181 l 36 0 l 317 0 l 317 978 l 36 978 l 36 797 l 139 797 l 139 181 l 36 181 "},"^":{"ha":640,"x_min":24,"x_max":618,"o":"m 618 0 l 413 978 l 229 978 l 24 0 l 618 0 m 392 181 l 249 181 l 319 539 l 392 181 "},"_":{"ha":454,"x_min":36,"x_max":418,"o":"m 36 135 l 36 -46 l 418 -46 l 418 135 l 36 135 "},"`":{"ha":239,"x_min":-51,"x_max":203,"o":"m 126 1208 l 203 1028 l 36 1028 l -51 1208 l 126 1208 "},"a":{"ha":640,"x_min":22,"x_max":618,"o":"m 618 0 l 413 978 l 229 978 l 22 0 l 213 0 l 319 538 l 429 0 l 618 0 "},"b":{"ha":571,"x_min":36,"x_max":535,"o":"m 406 0 l 36 0 l 36 978 l 406 978 q 501 947 468 978 q 535 853 535 915 l 535 601 q 516 534 535 561 q 465 496 497 507 q 535 382 535 471 l 535 125 q 501 31 535 63 q 406 0 468 0 m 254 406 l 254 586 l 357 586 l 357 797 l 214 797 l 214 181 l 357 181 l 357 406 l 254 406 "},"c":{"ha":496,"x_min":36,"x_max":460,"o":"m 460 181 l 460 0 l 165 0 q 69 31 103 0 q 36 125 36 63 l 36 861 q 71 951 36 924 q 165 978 106 978 l 460 978 l 460 797 l 214 797 l 214 181 l 460 181 "},"d":{"ha":571,"x_min":36,"x_max":535,"o":"m 406 0 l 36 0 l 36 978 l 406 978 q 501 947 468 978 q 535 853 535 915 l 535 125 q 501 31 535 63 q 406 0 468 0 m 214 797 l 214 181 l 357 181 l 357 797 l 214 797 "},"e":{"ha":496,"x_min":36,"x_max":460,"o":"m 36 978 l 460 978 l 460 797 l 214 797 l 214 586 l 418 586 l 418 406 l 214 406 l 214 181 l 460 181 l 460 0 l 36 0 l 36 978 "},"f":{"ha":496,"x_min":36,"x_max":460,"o":"m 36 978 l 460 978 l 460 797 l 214 797 l 214 586 l 418 586 l 418 406 l 214 406 l 214 0 l 36 0 l 36 978 "},"g":{"ha":565,"x_min":36,"x_max":529,"o":"m 529 0 l 165 0 q 69 31 103 0 q 36 125 36 63 l 36 861 q 71 951 36 924 q 165 978 106 978 l 529 978 l 529 797 l 214 797 l 214 181 l 354 181 l 354 404 l 268 404 l 268 586 l 529 586 l 529 0 "},"h":{"ha":568,"x_min":36,"x_max":532,"o":"m 214 978 l 214 588 l 354 588 l 354 978 l 532 978 l 532 0 l 354 0 l 354 404 l 214 404 l 214 0 l 36 0 l 36 978 l 214 978 "},"i":{"ha":250,"x_min":36,"x_max":214,"o":"m 36 978 l 36 0 l 214 0 l 214 978 l 36 978 "},"j":{"ha":482,"x_min":36,"x_max":446,"o":"m 446 125 l 446 978 l 268 978 l 268 181 l 36 181 l 36 0 l 317 0 q 413 31 379 0 q 446 125 446 63 "},"k":{"ha":581,"x_min":36,"x_max":558,"o":"m 214 0 l 36 0 l 36 978 l 214 978 l 214 589 l 369 978 l 558 978 l 356 489 l 558 0 l 369 0 l 214 401 l 214 0 "},"l":{"ha":482,"x_min":36,"x_max":446,"o":"m 36 978 l 36 0 l 446 0 l 446 181 l 214 181 l 214 978 l 36 978 "},"m":{"ha":674,"x_min":36,"x_max":638,"o":"m 36 978 l 36 0 l 213 0 l 213 507 l 336 204 l 460 507 l 460 0 l 638 0 l 638 978 l 479 978 l 336 618 l 200 978 l 36 978 "},"n":{"ha":567,"x_min":36,"x_max":531,"o":"m 386 0 l 213 426 l 213 0 l 36 0 l 36 978 l 181 978 l 354 506 l 354 978 l 531 978 l 531 0 l 386 0 "},"o":{"ha":571,"x_min":36,"x_max":535,"o":"m 165 0 q 69 31 103 0 q 36 125 36 63 l 36 853 q 69 947 36 915 q 165 978 103 978 l 406 978 q 501 947 468 978 q 535 853 535 915 l 535 125 q 501 31 535 63 q 406 0 468 0 l 165 0 m 214 797 l 214 181 l 357 181 l 357 797 l 214 797 "},"p":{"ha":571,"x_min":36,"x_max":535,"o":"m 36 978 l 406 978 q 501 947 468 978 q 535 853 535 915 l 535 531 q 501 437 535 468 q 406 406 468 406 l 254 406 l 254 586 l 358 586 l 358 797 l 214 797 l 214 0 l 36 0 l 36 978 "},"q":{"ha":571,"x_min":36,"x_max":535,"o":"m 214 181 l 357 181 l 357 797 l 214 797 l 214 181 m 165 0 q 69 31 103 0 q 36 125 36 63 l 36 853 q 69 947 36 915 q 165 978 103 978 l 406 978 q 501 947 468 978 q 535 853 535 915 l 535 125 q 501 31 535 63 q 406 0 468 0 l 381 0 l 424 -122 l 239 -122 l 196 0 l 165 0 "},"r":{"ha":571,"x_min":36,"x_max":564,"o":"m 406 978 q 501 947 468 978 q 535 853 535 915 l 535 504 q 503 433 535 454 q 426 408 472 411 l 564 0 l 381 0 l 254 385 l 254 586 l 357 586 l 357 797 l 214 797 l 214 0 l 36 0 l 36 978 l 406 978 "},"s":{"ha":499,"x_min":36,"x_max":463,"o":"m 451 242 l 222 797 l 463 797 l 463 978 l 165 978 q 71 951 106 978 q 36 861 36 924 l 36 796 q 40 766 36 783 q 47 738 43 749 l 276 181 l 36 181 l 36 0 l 333 0 q 429 31 396 0 q 463 125 463 63 l 463 182 q 458 215 463 199 q 451 242 454 231 "},"t":{"ha":531,"x_min":36,"x_max":494,"o":"m 494 978 l 494 797 l 354 797 l 354 0 l 176 0 l 176 797 l 36 797 l 36 978 l 494 978 "},"u":{"ha":571,"x_min":36,"x_max":535,"o":"m 165 0 q 69 31 103 0 q 36 125 36 63 l 36 978 l 214 978 l 214 181 l 357 181 l 357 978 l 535 978 l 535 125 q 501 31 535 63 q 406 0 468 0 l 165 0 "},"v":{"ha":640,"x_min":22,"x_max":618,"o":"m 618 978 l 413 0 l 228 0 l 22 978 l 211 978 l 319 440 l 429 978 l 618 978 "},"w":{"ha":875,"x_min":22,"x_max":853,"o":"m 853 978 l 647 0 l 507 0 l 431 386 l 369 0 l 228 0 l 22 978 l 211 978 l 301 546 l 372 978 l 504 978 l 571 546 l 664 978 l 853 978 "},"x":{"ha":581,"x_min":22,"x_max":558,"o":"m 22 978 l 206 978 l 290 728 l 375 978 l 558 978 l 386 489 l 558 0 l 375 0 l 290 250 l 206 0 l 22 0 l 194 489 l 22 978 "},"y":{"ha":581,"x_min":22,"x_max":558,"o":"m 206 978 l 290 728 l 375 978 l 558 978 l 378 489 l 378 0 l 200 0 l 200 490 l 22 978 l 206 978 "},"z":{"ha":499,"x_min":36,"x_max":463,"o":"m 47 242 l 275 797 l 36 797 l 36 978 l 463 978 l 463 796 q 459 766 463 783 q 451 738 456 749 l 224 181 l 463 181 l 463 0 l 36 0 l 36 182 q 40 213 36 194 q 47 242 44 231 "},"{":{"ha":1619,"x_min":36,"x_max":1583,"o":"m 1038 117 l 985 117 q 981 118 983 117 q 975 121 978 119 q 974 122 975 121 q 969 124 972 122 q 964 126 967 126 q 961 128 963 128 q 957 132 960 129 q 919 156 940 140 q 890 174 899 171 q 882 178 885 176 q 874 181 879 181 q 863 177 868 181 q 850 174 857 174 q 828 178 839 174 q 808 188 818 183 q 738 217 772 200 q 668 256 704 235 q 644 279 653 265 q 628 309 635 293 q 617 341 622 325 q 601 369 611 357 l 557 436 q 538 470 547 451 q 510 492 529 489 q 478 497 494 494 q 444 499 463 499 l 436 499 l 399 463 q 385 453 393 458 q 372 446 376 449 q 368 438 368 439 l 368 435 q 365 428 368 432 q 351 421 363 425 l 351 418 l 361 401 l 361 399 q 353 393 361 396 q 334 388 344 390 q 314 385 324 386 q 300 385 304 385 l 288 385 q 256 411 272 394 q 232 439 239 428 q 214 446 224 444 q 196 451 204 447 q 160 473 179 460 q 122 501 140 486 q 87 533 103 517 q 63 564 71 549 q 36 653 36 603 q 48 714 36 685 q 80 765 60 743 q 127 799 100 786 q 186 813 154 813 q 237 801 214 813 q 283 775 260 789 q 326 754 304 764 q 367 732 347 744 l 407 697 q 413 694 410 696 q 418 690 417 692 l 524 710 q 540 715 531 713 q 557 724 550 717 l 576 742 q 597 748 583 749 q 619 750 610 747 q 644 752 626 750 q 681 758 661 754 q 717 764 700 761 q 742 768 735 767 q 766 774 754 771 q 789 778 778 778 q 808 773 799 778 q 828 768 817 768 l 833 768 q 846 770 835 768 q 860 772 857 772 q 879 774 865 772 q 904 775 893 775 l 915 775 q 924 778 918 778 l 993 786 q 1013 790 996 786 q 1038 794 1029 794 q 1043 796 1039 796 q 1044 800 1044 796 l 1038 850 q 1073 933 1038 901 q 1158 975 1108 964 l 1200 975 q 1292 972 1239 975 q 1394 954 1344 968 q 1482 911 1444 940 q 1528 831 1519 882 l 1528 783 q 1526 772 1528 781 q 1521 749 1524 764 q 1463 686 1496 713 q 1382 660 1429 660 l 1374 660 l 1278 675 q 1271 671 1272 675 l 1247 631 q 1238 615 1242 622 q 1233 600 1233 608 l 1233 590 q 1236 588 1233 588 q 1242 584 1238 588 q 1253 576 1247 581 q 1263 567 1258 571 q 1269 564 1268 564 q 1282 551 1274 560 q 1300 534 1290 543 q 1318 516 1310 525 q 1329 503 1326 507 q 1332 501 1329 503 q 1335 499 1335 500 q 1350 490 1339 496 q 1363 483 1361 485 q 1378 478 1367 482 q 1402 468 1389 474 q 1427 458 1415 463 q 1443 451 1439 453 q 1446 440 1446 449 l 1446 424 q 1453 399 1446 406 q 1475 384 1465 389 q 1494 368 1485 379 q 1496 364 1494 367 q 1499 358 1497 361 q 1500 353 1499 357 q 1501 350 1501 350 l 1507 346 q 1513 342 1510 343 q 1517 340 1515 342 q 1528 330 1524 335 q 1543 322 1532 325 q 1568 317 1553 319 q 1583 300 1583 315 q 1572 288 1583 288 l 1568 288 q 1556 294 1565 289 q 1543 300 1546 299 q 1540 305 1540 303 q 1536 310 1539 307 l 1524 317 l 1496 314 q 1491 315 1493 314 q 1486 317 1489 317 l 1463 310 q 1435 317 1447 310 q 1410 333 1424 325 q 1407 335 1408 335 q 1406 336 1406 336 q 1403 333 1403 336 l 1392 211 q 1387 183 1389 192 q 1385 178 1385 175 l 1392 82 q 1372 46 1392 61 q 1325 20 1351 31 q 1272 5 1299 10 q 1231 0 1244 0 l 1222 0 q 1162 24 1190 6 q 1107 64 1133 42 l 1093 69 q 1082 79 1090 72 q 1065 94 1074 86 q 1048 108 1056 101 q 1038 117 1040 114 "},"|":{"ha":250,"x_min":36,"x_max":214,"o":"m 36 1100 l 36 -122 l 214 -122 l 214 1100 l 36 1100 "},"}":{"ha":519,"x_min":3,"x_max":517,"o":"m 151 119 q 146 124 149 124 q 140 125 142 124 q 137 127 138 125 q 133 129 136 129 l 129 133 q 125 144 126 136 q 124 150 124 146 l 121 156 q 120 160 121 158 q 119 163 119 163 l 119 171 l 117 175 q 115 188 115 182 q 114 196 114 193 l 114 221 q 126 228 115 222 q 136 238 136 235 l 133 263 q 115 299 118 278 l 114 314 q 113 321 114 321 l 113 310 q 108 308 113 310 q 103 303 103 306 l 100 300 q 97 290 100 297 q 92 279 93 282 l 92 269 l 92 256 l 92 244 l 92 238 q 90 232 92 233 l 42 129 q 39 122 40 126 q 35 118 38 118 l 31 122 l 31 124 l 54 176 q 58 188 54 183 q 65 200 63 193 q 71 221 68 210 q 79 242 74 232 q 69 249 79 249 q 65 242 65 249 l 18 132 q 14 129 15 129 q 10 132 10 129 l 10 133 q 13 144 10 133 q 18 163 15 156 q 19 166 18 165 q 21 168 21 167 l 49 243 q 49 245 49 244 q 50 246 50 246 q 62 267 54 258 q 76 283 69 275 q 84 301 79 289 q 90 317 89 314 q 92 322 90 318 q 96 328 94 326 l 96 331 q 94 343 96 338 q 92 356 93 349 l 92 360 l 89 404 q 82 420 89 414 q 69 433 75 426 q 65 432 68 432 q 53 436 60 432 q 44 443 47 440 q 42 453 43 450 q 42 453 42 456 q 39 460 42 457 l 35 458 q 31 461 33 458 l 31 472 q 30 474 31 471 q 28 485 29 478 q 21 494 25 492 q 14 500 17 496 l 14 506 l 10 538 q 7 543 8 542 q 3 549 6 544 l 3 565 q 6 579 3 575 q 11 585 8 583 q 17 590 14 588 q 22 597 21 592 q 24 608 24 599 q 25 621 24 619 q 31 631 31 626 q 36 651 33 640 q 40 672 39 661 l 40 675 q 35 686 40 682 q 31 697 31 690 l 31 731 q 38 759 39 750 q 54 775 38 768 q 67 788 61 781 q 79 803 72 796 q 92 808 85 807 q 106 814 99 810 l 113 817 l 113 818 l 114 818 l 117 818 q 122 819 121 818 q 126 822 124 819 q 129 826 128 825 q 138 831 133 832 q 146 833 142 831 q 143 840 143 836 q 142 853 142 842 l 142 865 l 142 889 l 140 892 l 140 893 l 140 897 l 140 911 q 150 918 140 917 q 151 919 151 918 q 154 926 154 922 q 155 928 154 926 q 157 935 156 931 q 172 963 165 958 q 199 975 179 968 l 204 975 q 207 976 204 976 q 215 976 214 976 q 221 974 217 975 q 224 972 221 972 q 228 971 228 972 q 255 949 244 964 q 268 917 265 935 q 272 916 271 915 q 275 914 272 917 q 279 902 278 914 q 281 890 281 890 q 278 885 281 888 l 278 875 l 278 868 l 278 861 l 278 850 q 276 841 278 849 q 275 831 275 833 q 283 825 275 826 q 294 822 292 824 q 298 815 297 819 q 301 810 299 810 l 303 810 q 331 869 318 839 q 347 929 343 899 q 349 945 347 932 q 351 963 350 958 q 353 969 353 964 l 353 979 q 356 988 354 981 q 361 996 357 996 q 367 986 367 996 l 367 964 l 367 960 l 367 954 q 401 921 372 921 q 414 922 408 921 q 426 924 419 924 q 433 921 433 924 q 428 911 433 915 q 419 904 422 907 q 399 892 415 900 q 376 879 382 883 q 348 847 357 867 q 332 803 339 826 q 338 800 333 801 q 343 799 343 799 q 375 755 367 786 q 382 700 383 724 l 385 697 q 407 686 390 694 q 429 675 424 678 q 451 660 440 668 q 471 644 461 651 q 482 633 476 638 q 494 624 488 629 l 504 614 q 509 611 507 613 q 511 610 511 610 l 511 593 q 514 586 511 589 q 517 581 517 583 q 516 572 517 575 q 514 564 515 568 q 513 553 514 561 q 511 543 513 544 q 504 524 511 531 q 494 516 500 521 q 483 510 489 511 q 482 513 482 510 q 490 526 482 519 q 499 546 499 532 q 496 565 499 556 q 485 576 493 574 q 480 579 485 576 q 474 582 475 582 q 463 590 467 585 q 453 597 460 594 l 447 597 l 446 597 q 433 596 435 597 l 394 593 q 397 585 396 590 q 401 581 399 581 q 406 583 404 581 q 411 585 408 585 q 414 582 414 585 q 415 578 415 582 q 426 530 418 554 q 433 482 433 506 l 433 478 q 434 473 433 476 q 435 469 435 469 q 434 466 435 467 q 433 463 433 465 q 435 444 433 453 q 438 428 438 436 l 438 424 q 436 422 438 422 l 436 421 q 424 406 429 414 q 411 389 418 397 q 405 381 407 385 q 399 372 403 376 q 393 382 393 376 l 393 385 l 401 407 q 403 410 403 410 q 404 411 404 411 l 404 414 l 404 417 q 402 420 403 418 q 400 422 401 422 l 399 422 q 398 420 399 422 q 396 415 397 418 l 394 403 q 390 397 393 397 q 383 404 383 397 l 383 408 q 385 429 385 414 q 386 449 386 444 q 388 456 388 450 q 389 461 388 460 l 390 464 q 390 467 390 465 q 389 468 389 468 l 354 533 q 351 542 351 538 q 347 550 350 547 q 342 558 343 553 q 338 569 340 564 q 332 574 333 574 q 329 582 331 575 l 328 582 q 319 576 319 582 l 319 575 l 319 574 l 319 568 q 341 499 331 532 q 367 433 351 465 q 378 394 367 414 q 394 371 385 383 q 415 343 404 358 q 423 336 418 340 q 428 325 428 332 l 428 324 q 422 328 425 326 q 417 333 419 331 l 417 332 q 433 307 426 319 q 444 282 439 294 l 450 272 l 450 269 l 450 268 q 449 263 450 265 q 449 256 449 261 q 449 245 449 250 q 450 235 450 240 l 447 235 l 442 242 l 442 240 l 442 239 q 450 223 444 232 q 456 204 456 214 q 455 199 456 203 q 453 189 454 196 q 454 179 453 186 q 458 169 456 172 q 461 166 460 167 q 463 163 463 165 q 458 157 463 157 q 453 165 458 165 q 447 162 447 165 q 444 156 446 158 q 443 154 444 154 l 443 160 q 442 161 443 160 q 439 161 440 163 q 435 156 435 158 q 429 153 436 153 q 430 151 429 153 q 429 150 431 150 l 426 149 l 426 147 q 435 142 432 142 q 436 141 435 142 q 440 139 438 140 q 438 136 440 136 q 436 133 436 136 q 437 131 436 132 q 438 129 438 131 q 435 125 438 125 l 426 125 q 424 129 426 129 q 415 124 419 128 q 415 123 415 124 q 413 122 414 122 q 409 125 410 122 q 406 128 408 128 q 402 121 404 128 q 399 113 400 114 l 396 111 l 396 110 q 397 103 396 107 q 401 97 399 99 l 401 96 l 400 96 q 398 97 399 96 q 396 97 397 97 l 396 96 l 394 96 l 393 96 q 389 101 393 101 q 387 115 388 110 q 382 126 386 121 l 371 139 q 367 140 371 140 q 365 140 367 140 q 363 139 364 139 q 360 140 361 139 q 360 142 360 142 q 357 140 360 140 q 350 149 350 140 q 335 135 346 135 q 331 137 332 135 q 328 139 331 139 q 324 137 325 139 q 321 135 322 135 q 326 142 321 139 q 331 151 331 144 q 326 155 331 153 q 319 157 322 157 l 319 156 q 314 139 317 147 q 304 125 311 131 l 303 124 q 301 124 301 124 q 300 125 300 125 l 299 125 q 295 118 296 125 q 294 110 294 111 q 289 99 292 103 q 283 89 286 94 q 281 83 282 88 q 279 78 281 79 q 272 42 275 58 q 267 6 268 25 l 267 0 l 182 0 q 178 8 182 4 q 175 15 175 11 q 174 24 174 17 l 174 33 q 168 56 171 44 q 163 75 165 67 q 157 98 161 82 q 151 119 153 114 m 393 268 l 393 267 l 396 258 q 401 243 396 244 l 406 243 q 410 239 407 242 q 415 235 414 236 l 417 235 q 417 238 417 235 q 418 243 418 240 l 418 247 l 418 249 q 416 272 418 260 q 407 293 414 283 l 406 293 l 404 293 q 399 283 401 290 q 394 274 396 276 q 394 272 394 274 q 393 269 393 271 l 393 268 m 382 303 q 389 293 382 300 q 393 306 393 294 l 393 310 l 392 310 q 387 309 390 310 q 383 308 383 308 q 382 303 382 307 m 81 476 q 88 460 81 471 l 88 468 l 90 468 l 90 478 q 82 483 90 481 q 80 481 79 483 q 81 476 81 478 m 76 511 q 78 509 76 511 q 81 506 79 507 q 88 501 83 503 q 92 499 92 499 l 97 499 q 96 501 97 500 q 94 504 94 501 q 103 518 94 510 q 111 538 111 526 l 111 539 q 100 561 103 550 q 93 585 97 572 q 92 589 93 585 q 89 594 92 593 q 83 583 83 589 q 79 571 82 578 q 78 547 79 560 q 76 519 76 535 l 76 518 l 76 513 l 76 511 "},"~":{"ha":457,"x_min":22,"x_max":435,"o":"m 353 406 l 435 586 l 335 586 l 303 515 l 271 586 l 104 586 l 22 406 l 122 406 l 154 476 l 188 406 l 353 406 "},"":{"ha":168,"x_min":0,"x_max":0,"o":""},"€":{"ha":571,"x_min":36,"x_max":535,"o":"m 36 700 l 111 700 l 111 861 q 146 951 111 924 q 240 978 181 978 l 535 978 l 535 797 l 289 797 l 289 700 l 403 700 l 403 519 l 289 519 l 289 472 l 403 472 l 403 292 l 289 292 l 289 181 l 535 181 l 535 0 l 240 0 q 144 31 178 0 q 111 125 111 63 l 111 292 l 36 292 l 36 472 l 111 472 l 111 519 l 36 519 l 36 700 "},"‚":{"ha":250,"x_min":36,"x_max":214,"o":"m 36 -122 l 85 -122 q 181 -91 147 -122 q 214 3 214 -60 l 214 181 l 36 181 l 36 -122 "},"ƒ":{"ha":506,"x_min":36,"x_max":469,"o":"m 36 0 l 36 861 q 71 951 36 924 q 165 978 106 978 l 469 978 l 469 797 l 214 797 l 214 586 l 428 586 l 428 406 l 214 406 l 214 0 l 36 0 "},"„":{"ha":469,"x_min":36,"x_max":433,"o":"m 256 -122 l 304 -122 q 400 -91 367 -122 q 433 3 433 -60 l 433 181 l 256 181 l 256 -122 m 36 -122 l 85 -122 q 181 -91 147 -122 q 214 3 214 -60 l 214 181 l 36 181 l 36 -122 "},"…":{"ha":689,"x_min":36,"x_max":653,"o":"m 256 181 l 256 0 l 433 0 l 433 181 l 256 181 m 475 181 l 475 0 l 653 0 l 653 181 l 475 181 m 36 181 l 36 0 l 214 0 l 214 181 l 36 181 "},"†":{"ha":414,"x_min":36,"x_max":378,"o":"m 36 714 l 118 714 l 118 978 l 296 978 l 296 714 l 378 714 l 378 533 l 296 533 l 296 0 l 118 0 l 118 533 l 36 533 l 36 714 "},"‡":{"ha":414,"x_min":36,"x_max":378,"o":"m 36 714 l 118 714 l 118 978 l 296 978 l 296 714 l 378 714 l 378 533 l 296 533 l 296 458 l 378 458 l 378 278 l 296 278 l 296 0 l 118 0 l 118 278 l 36 278 l 36 458 l 118 458 l 118 533 l 36 533 l 36 714 "},"ˆ":{"ha":474,"x_min":36,"x_max":438,"o":"m 356 1208 l 438 1028 l 271 1028 l 236 1099 l 203 1028 l 36 1028 l 118 1208 l 356 1208 "},"‰":{"ha":1196,"x_min":36,"x_max":1160,"o":"m 696 125 l 735 125 l 735 413 l 696 413 l 696 125 m 657 0 q 578 81 578 0 l 578 458 q 657 538 578 538 l 774 538 q 851 458 851 538 l 851 81 q 774 0 851 0 l 657 0 m 643 978 l 435 0 l 247 0 l 456 978 l 643 978 m 154 565 l 193 565 l 193 853 l 154 853 l 154 565 m 115 440 q 36 521 36 440 l 36 899 q 115 978 36 978 l 232 978 q 310 899 310 978 l 310 521 q 232 440 310 440 l 115 440 m 1004 125 l 1043 125 l 1043 413 l 1004 413 l 1004 125 m 965 0 q 886 81 886 0 l 886 458 q 965 538 886 538 l 1082 538 q 1160 458 1160 538 l 1160 81 q 1082 0 1160 0 l 965 0 "},"Š":{"ha":499,"x_min":36,"x_max":463,"o":"m 368 1028 l 450 1208 l 283 1208 l 250 1138 l 215 1208 l 49 1208 l 131 1028 l 368 1028 m 451 242 l 222 797 l 463 797 l 463 978 l 165 978 q 71 951 106 978 q 36 861 36 924 l 36 796 q 40 766 36 783 q 47 738 43 749 l 276 181 l 36 181 l 36 0 l 333 0 q 429 31 396 0 q 463 125 463 63 l 463 182 q 458 215 463 199 q 451 242 454 231 "},"‹":{"ha":253,"x_min":36,"x_max":217,"o":"m 36 376 l 217 294 l 217 461 l 146 494 l 217 529 l 217 696 l 36 614 l 36 376 "},"Œ":{"ha":817,"x_min":36,"x_max":781,"o":"m 165 978 q 69 947 103 978 q 36 853 36 915 l 36 125 q 69 31 36 63 q 165 0 103 0 l 781 0 l 781 181 l 535 181 l 535 406 l 739 406 l 739 586 l 535 586 l 535 797 l 781 797 l 781 978 l 165 978 m 214 181 l 214 797 l 357 797 l 357 181 l 214 181 "},"Ž":{"ha":499,"x_min":36,"x_max":463,"o":"m 368 1028 l 450 1208 l 283 1208 l 250 1138 l 215 1208 l 49 1208 l 131 1028 l 368 1028 m 275 797 l 47 242 q 40 213 44 231 q 36 182 36 194 l 36 0 l 463 0 l 463 181 l 224 181 l 451 738 q 459 766 456 749 q 463 796 463 783 l 463 978 l 36 978 l 36 797 l 275 797 "},"‘":{"ha":250,"x_min":36,"x_max":214,"o":"m 214 978 l 165 978 q 69 947 103 978 q 36 853 36 915 l 36 675 l 214 675 l 214 978 "},"’":{"ha":250,"x_min":36,"x_max":214,"o":"m 36 675 l 85 675 q 181 706 147 675 q 214 800 214 738 l 214 978 l 36 978 l 36 675 "},"“":{"ha":468,"x_min":36,"x_max":432,"o":"m 214 978 l 165 978 q 69 947 103 978 q 36 853 36 915 l 36 675 l 214 675 l 214 978 m 432 978 l 383 978 q 288 947 321 978 q 254 853 254 915 l 254 675 l 432 675 l 432 978 "},"”":{"ha":468,"x_min":36,"x_max":432,"o":"m 254 675 l 303 675 q 399 706 365 675 q 432 800 432 738 l 432 978 l 254 978 l 254 675 m 36 675 l 85 675 q 181 706 147 675 q 214 800 214 738 l 214 978 l 36 978 l 36 675 "},"•":{"ha":568,"x_min":36,"x_max":532,"o":"m 165 0 q 69 31 103 0 q 36 125 36 63 l 36 853 q 69 947 36 915 q 165 978 103 978 l 403 978 q 499 947 465 978 q 532 853 532 915 l 532 125 q 499 31 532 63 q 403 0 465 0 l 165 0 "},"–":{"ha":326,"x_min":36,"x_max":290,"o":"m 36 586 l 290 586 l 290 406 l 36 406 l 36 586 "},"—":{"ha":433,"x_min":36,"x_max":397,"o":"m 36 586 l 36 406 l 397 406 l 397 586 l 36 586 "},"˜":{"ha":403,"x_min":36,"x_max":449,"o":"m 367 1028 l 449 1208 l 349 1208 l 317 1138 l 285 1208 l 118 1208 l 36 1028 l 136 1028 l 168 1099 l 201 1028 l 367 1028 "},"™":{"ha":454,"x_min":36,"x_max":418,"o":"m 97 771 l 97 983 l 36 983 l 36 1029 l 200 1029 l 200 983 l 139 983 l 139 771 l 97 771 m 217 771 l 217 1029 l 279 1029 l 317 850 l 353 1029 l 418 1029 l 418 771 l 379 771 l 379 976 l 336 771 l 299 771 l 254 976 l 254 771 l 217 771 "},"š":{"ha":499,"x_min":36,"x_max":463,"o":"m 368 1028 l 450 1208 l 283 1208 l 250 1138 l 215 1208 l 49 1208 l 131 1028 l 368 1028 m 451 242 l 222 797 l 463 797 l 463 978 l 165 978 q 71 951 106 978 q 36 861 36 924 l 36 796 q 40 766 36 783 q 47 738 43 749 l 276 181 l 36 181 l 36 0 l 333 0 q 429 31 396 0 q 463 125 463 63 l 463 182 q 458 215 463 199 q 451 242 454 231 "},"›":{"ha":253,"x_min":36,"x_max":217,"o":"m 217 376 l 36 294 l 36 461 l 107 494 l 36 529 l 36 696 l 217 614 l 217 376 "},"œ":{"ha":817,"x_min":36,"x_max":781,"o":"m 165 978 q 69 947 103 978 q 36 853 36 915 l 36 125 q 69 31 36 63 q 165 0 103 0 l 781 0 l 781 181 l 535 181 l 535 406 l 739 406 l 739 586 l 535 586 l 535 797 l 781 797 l 781 978 l 165 978 m 214 181 l 214 797 l 357 797 l 357 181 l 214 181 "},"ž":{"ha":499,"x_min":36,"x_max":463,"o":"m 368 1028 l 450 1208 l 283 1208 l 250 1138 l 215 1208 l 49 1208 l 131 1028 l 368 1028 m 275 797 l 47 242 q 40 213 44 231 q 36 182 36 194 l 36 0 l 463 0 l 463 181 l 224 181 l 451 738 q 459 766 456 749 q 463 796 463 783 l 463 978 l 36 978 l 36 797 l 275 797 "},"Ÿ":{"ha":581,"x_min":22,"x_max":558,"o":"m 488 1208 l 488 1028 l 310 1028 l 310 1208 l 488 1208 m 269 1208 l 269 1028 l 92 1028 l 92 1208 l 269 1208 m 206 978 l 290 728 l 375 978 l 558 978 l 378 489 l 378 0 l 200 0 l 200 490 l 22 978 l 206 978 "},"¡":{"ha":250,"x_min":36,"x_max":214,"o":"m 214 0 l 36 0 l 36 711 l 214 711 l 214 0 m 36 797 l 36 978 l 214 978 l 214 797 l 36 797 "},"¢":{"ha":496,"x_min":36,"x_max":460,"o":"m 214 292 l 214 686 l 460 686 l 460 867 l 358 867 l 358 978 l 181 978 l 181 867 l 165 867 q 71 840 106 867 q 36 750 36 813 l 36 236 q 69 142 36 174 q 165 111 103 111 l 181 111 l 181 0 l 358 0 l 358 111 l 460 111 l 460 292 l 214 292 "},"£":{"ha":571,"x_min":36,"x_max":535,"o":"m 36 586 l 124 586 l 124 853 q 157 947 124 915 q 253 978 190 978 l 394 978 l 394 797 l 301 797 l 301 586 l 464 586 l 464 406 l 301 406 l 301 181 l 535 181 l 535 0 l 36 0 l 36 181 l 124 181 l 124 406 l 36 406 l 36 586 "},"¤":{"ha":581,"x_min":22,"x_max":558,"o":"m 22 978 l 206 978 l 226 915 l 353 915 l 375 978 l 558 978 l 486 772 l 486 204 l 558 0 l 375 0 l 353 64 l 226 64 l 206 0 l 22 0 l 94 204 l 94 772 l 22 978 m 239 758 l 239 221 l 340 221 l 340 758 l 239 758 "},"¥":{"ha":581,"x_min":22,"x_max":558,"o":"m 290 728 l 375 978 l 558 978 l 378 490 l 496 490 l 496 310 l 378 310 l 378 263 l 496 263 l 496 82 l 378 82 l 378 0 l 200 0 l 200 82 l 83 82 l 83 263 l 200 263 l 200 310 l 83 310 l 83 490 l 200 490 l 22 978 l 206 978 l 290 728 "},"¦":{"ha":250,"x_min":36,"x_max":214,"o":"m 214 465 l 214 -122 l 36 -122 l 36 465 l 214 465 m 36 1100 l 214 1100 l 214 513 l 36 513 l 36 1100 "},"§":{"ha":581,"x_min":22,"x_max":558,"o":"m 385 64 l 226 64 l 206 0 l 22 0 l 94 204 l 94 807 q 196 915 94 915 l 353 915 l 375 978 l 558 978 l 486 772 l 486 172 q 385 64 486 64 m 239 758 l 239 221 l 340 221 l 340 758 l 239 758 "},"¨":{"ha":468,"x_min":36,"x_max":432,"o":"m 36 1208 l 36 1028 l 214 1028 l 214 1208 l 36 1208 m 254 1208 l 254 1028 l 432 1028 l 432 1208 l 254 1208 "},"©":{"ha":338,"x_min":36,"x_max":301,"o":"m 165 1036 q 264 997 225 1036 q 301 904 301 953 q 291 853 301 876 q 263 811 281 829 q 220 783 244 793 q 169 772 196 772 q 75 811 113 772 q 36 904 36 850 q 56 974 36 938 q 105 1021 76 1006 q 165 1036 133 1036 m 171 1011 q 92 979 128 1011 q 63 904 63 947 q 93 831 63 860 q 169 799 125 799 q 243 831 211 799 q 275 904 275 860 q 242 981 275 949 q 171 1011 207 1011 m 201 886 l 228 876 q 169 831 213 831 q 121 850 139 831 q 103 904 103 869 q 122 958 103 939 q 169 978 140 978 q 228 936 213 978 l 201 929 q 169 954 189 954 q 142 940 151 954 q 133 906 133 926 q 168 856 133 856 q 201 886 189 856 "},"ª":{"ha":565,"x_min":36,"x_max":529,"o":"m 165 0 l 529 0 l 529 861 q 494 951 529 924 q 400 978 460 978 l 36 978 l 36 797 l 353 797 l 353 181 l 213 181 l 213 406 l 314 406 l 314 586 l 165 586 q 69 556 103 586 q 36 463 36 525 l 36 125 q 69 31 36 63 q 165 0 103 0 "},"«":{"ha":472,"x_min":36,"x_max":436,"o":"m 256 376 l 436 294 l 436 461 l 365 494 l 436 529 l 436 696 l 256 614 l 256 376 m 36 376 l 217 294 l 217 461 l 146 494 l 217 529 l 217 696 l 36 614 l 36 376 "},"¬":{"ha":433,"x_min":36,"x_max":397,"o":"m 36 586 l 36 406 l 217 406 l 217 315 l 397 315 l 397 586 l 36 586 "},"­":{"ha":246,"x_min":36,"x_max":210,"o":"m 36 586 l 210 586 l 210 406 l 36 406 l 36 586 "},"®":{"ha":338,"x_min":36,"x_max":301,"o":"m 165 1036 q 218 1026 193 1036 q 262 997 243 1015 q 291 955 281 979 q 301 904 301 931 q 291 853 301 876 q 263 811 281 829 q 220 783 244 793 q 169 772 196 772 q 75 811 113 772 q 36 904 36 850 q 56 975 36 939 q 108 1022 78 1008 q 165 1036 138 1036 m 171 1011 q 92 979 124 1011 q 63 904 63 947 q 93 829 63 860 q 169 799 124 799 q 243 829 213 799 q 275 904 275 861 q 258 960 275 932 q 218 999 244 986 q 171 1011 194 1011 m 110 833 l 110 974 l 176 974 q 212 963 200 974 q 224 935 224 951 q 185 894 224 903 q 200 886 193 893 q 204 880 200 886 q 217 863 208 874 l 232 833 l 197 833 l 185 856 q 167 885 174 878 q 146 892 156 892 l 138 892 l 138 833 l 110 833 m 138 914 l 161 914 q 193 933 193 914 q 164 951 193 951 l 138 951 l 138 914 "},"¯":{"ha":454,"x_min":36,"x_max":418,"o":"m 36 1022 l 36 842 l 418 842 l 418 1022 l 36 1022 "},"°":{"ha":250,"x_min":36,"x_max":214,"o":"m 36 1028 l 36 1208 l 214 1208 l 214 1028 l 36 1028 m 101 1147 l 101 1089 l 150 1089 l 150 1147 l 101 1147 "},"±":{"ha":433,"x_min":36,"x_max":397,"o":"m 36 678 l 36 497 l 126 497 l 126 407 l 307 407 l 307 497 l 397 497 l 397 678 l 307 678 l 307 768 l 126 768 l 126 678 l 36 678 m 36 363 l 36 182 l 397 182 l 397 363 l 36 363 "},"²":{"ha":876,"x_min":36,"x_max":840,"o":"m 467 0 l 293 0 l 293 -1 l 293 0 l 293 3 q 292 3 293 3 q 292 7 292 4 q 292 11 292 10 q 293 13 293 13 l 286 57 q 285 63 286 57 q 281 68 283 68 l 279 68 q 274 60 278 65 q 264 56 271 56 l 218 88 l 214 132 q 207 160 211 147 q 199 189 203 174 q 192 200 196 194 q 189 213 189 206 q 195 228 189 221 q 207 243 201 236 q 206 244 207 243 q 204 247 206 246 q 197 263 201 251 q 192 278 192 275 l 192 281 l 204 310 l 204 315 l 185 331 q 180 348 182 342 q 171 365 178 354 l 160 382 l 139 407 l 138 407 l 149 385 l 146 382 l 153 374 q 108 354 136 354 q 91 357 100 354 q 76 368 82 360 l 76 374 q 78 384 76 379 q 79 396 79 389 l 79 403 q 67 410 69 406 q 58 418 65 414 q 54 446 54 432 q 63 474 54 463 q 72 481 65 481 q 81 486 81 481 l 81 488 q 65 510 67 497 q 56 538 63 522 l 40 561 l 40 569 l 40 581 q 41 583 40 579 q 43 593 42 586 l 49 597 q 42 622 49 610 q 36 646 36 633 q 42 651 36 646 q 49 657 49 656 q 58 667 56 664 q 67 671 60 671 l 74 669 q 78 681 76 679 q 88 690 81 682 q 95 701 90 696 q 100 714 100 707 l 100 717 q 92 728 97 718 q 83 740 86 738 q 79 747 79 744 l 79 753 q 78 758 79 756 q 69 767 76 760 l 69 769 q 71 774 69 771 q 74 778 72 778 q 72 787 74 783 q 68 793 69 790 l 39 872 l 39 874 l 39 875 q 40 878 39 878 l 42 878 l 42 886 l 40 889 l 36 928 l 36 954 q 40 967 39 957 q 43 976 40 976 q 55 969 49 976 q 67 951 61 961 q 78 931 74 940 q 83 918 82 922 q 90 906 88 914 q 99 897 93 897 l 100 899 q 104 896 104 899 l 104 894 q 108 876 104 889 q 113 856 113 863 q 114 843 114 854 q 118 835 117 842 q 121 822 119 829 q 123 807 122 814 q 126 797 124 800 q 131 794 128 797 q 133 790 133 792 l 133 785 q 133 783 133 783 q 132 782 132 782 q 133 779 132 779 l 136 779 l 136 783 q 135 807 136 794 q 131 831 135 819 q 122 847 125 840 q 118 863 118 853 q 121 872 118 869 q 124 882 124 875 l 124 900 q 126 908 124 906 q 132 914 129 911 l 132 938 q 131 958 132 944 q 129 969 129 971 l 126 972 q 124 976 125 972 q 124 983 124 981 q 132 995 124 993 q 149 997 140 997 l 172 997 q 181 988 181 997 q 171 974 181 976 q 154 965 161 972 q 149 958 149 961 l 149 943 l 150 940 q 184 954 168 951 q 219 957 200 957 q 268 949 246 957 q 304 914 290 940 q 317 878 317 897 l 317 831 l 328 832 q 340 829 331 831 q 354 828 350 828 q 361 832 357 828 q 360 836 360 833 l 360 847 l 408 901 l 426 918 l 429 918 q 438 913 436 918 q 442 908 439 908 q 453 916 450 910 q 458 922 456 922 l 460 922 l 465 922 q 474 933 472 926 q 482 943 476 939 q 490 945 485 946 q 497 947 494 944 q 507 957 500 950 q 517 968 514 964 q 521 969 519 968 l 553 969 l 564 967 q 583 971 574 967 q 604 975 593 975 q 644 966 625 975 q 679 943 664 957 q 690 931 688 933 q 694 926 692 929 l 696 926 q 700 925 699 926 l 704 922 l 704 919 l 704 918 q 712 915 707 915 q 717 910 717 914 l 715 910 l 715 908 l 715 907 q 717 906 717 907 q 726 899 722 899 q 731 892 729 900 l 756 861 l 761 847 q 766 840 764 842 q 768 831 768 839 q 785 824 772 831 q 804 817 799 818 q 810 808 810 813 q 810 811 810 813 q 813 803 811 810 l 838 785 q 840 774 839 778 q 840 768 840 769 l 840 690 q 835 681 840 683 q 824 678 829 678 q 817 685 817 678 q 822 694 817 692 q 826 706 826 696 q 826 717 826 708 q 818 726 825 726 q 814 713 817 719 q 803 706 811 706 q 796 708 796 706 l 800 722 q 791 743 800 729 q 776 757 782 757 q 765 753 769 757 q 758 744 761 749 q 750 736 754 740 q 739 732 746 732 q 722 735 731 732 q 713 747 713 738 q 722 758 713 754 q 731 782 731 763 l 729 782 q 710 794 721 782 q 692 807 699 807 l 682 806 q 678 806 679 806 q 675 807 678 807 l 599 863 q 596 867 596 865 q 593 872 596 869 q 589 875 593 875 q 583 878 586 875 l 568 889 l 568 886 l 578 872 q 579 869 579 871 l 579 868 l 560 872 q 568 867 563 869 q 574 857 574 864 q 571 851 574 854 q 567 846 568 849 q 499 797 539 813 q 493 786 493 792 q 489 776 493 778 l 467 756 q 463 750 467 750 l 450 726 q 443 714 450 724 q 433 701 436 704 q 428 693 431 694 q 426 686 426 692 q 436 676 426 678 q 454 675 446 675 l 464 675 q 471 681 469 678 q 479 690 472 683 l 481 693 l 483 697 l 485 701 q 494 715 490 706 q 500 728 497 725 l 504 731 q 508 724 507 731 q 510 714 510 717 l 517 714 q 542 722 531 714 q 561 742 553 731 q 575 767 569 754 q 585 792 581 781 q 589 793 585 793 q 592 786 592 793 q 593 776 593 779 l 596 754 l 599 754 q 610 760 604 754 q 619 773 615 765 q 627 786 624 781 q 631 792 631 792 l 633 790 l 633 781 q 626 740 633 760 q 610 701 619 721 l 619 703 q 619 692 619 697 q 618 681 618 688 l 618 679 q 622 683 618 682 q 628 688 625 685 l 647 717 l 649 717 q 649 716 649 717 q 650 713 650 715 q 634 661 650 689 q 603 618 618 633 l 568 582 q 560 578 565 579 q 556 569 556 576 l 576 572 q 571 564 576 569 q 541 546 557 553 q 510 533 525 539 l 429 510 q 424 506 424 510 l 424 475 q 420 464 424 469 q 414 456 417 458 l 413 454 l 413 453 q 416 446 413 447 q 419 442 419 444 l 415 415 q 422 423 418 415 q 429 432 425 431 l 446 457 l 446 468 l 529 508 l 556 507 q 585 512 571 507 q 611 522 599 517 q 640 538 626 529 q 672 553 654 546 q 678 554 674 554 l 679 554 q 695 550 689 554 q 708 546 701 546 l 728 547 q 742 540 735 547 q 755 524 749 533 q 765 504 761 514 q 772 489 769 494 q 781 460 778 472 q 790 428 785 447 l 792 426 q 783 415 792 419 q 768 410 774 410 l 757 414 l 742 368 l 724 353 l 724 351 q 732 349 731 350 q 731 349 733 349 q 733 343 733 349 q 722 331 733 332 q 703 324 711 331 l 685 304 l 629 267 l 629 265 q 617 244 629 251 q 596 231 606 238 q 601 220 596 228 q 607 213 606 213 l 624 213 q 629 217 628 213 q 636 222 631 222 l 639 222 q 648 209 646 211 q 657 207 650 207 l 672 207 l 668 218 q 676 230 668 226 q 692 233 685 233 l 697 233 l 700 231 q 704 222 700 228 q 711 214 708 217 q 713 206 713 213 q 713 203 713 206 q 714 197 714 201 q 717 192 715 194 q 719 188 718 190 l 719 186 q 722 184 721 185 q 724 183 724 183 q 729 181 726 183 q 735 170 729 178 q 742 161 740 163 l 742 157 l 742 150 q 742 149 742 150 q 743 146 743 149 l 772 103 q 792 69 785 90 q 794 65 793 67 q 794 63 794 63 l 794 64 l 796 64 q 800 58 799 64 q 806 50 803 56 q 813 39 810 44 q 817 30 815 33 q 818 28 818 26 q 808 13 818 19 q 792 7 799 7 l 786 7 l 764 46 q 758 56 764 50 l 758 57 q 760 58 758 57 q 761 61 761 60 q 757 65 761 64 q 750 65 753 65 q 742 57 742 65 q 746 43 742 54 q 753 29 750 32 q 754 27 753 28 q 756 26 756 26 l 768 0 l 699 0 q 694 15 699 6 q 683 33 689 24 q 672 51 676 42 q 667 67 667 60 l 668 71 q 650 96 668 90 l 628 139 l 624 143 l 610 138 q 601 142 603 138 q 593 146 600 146 l 576 143 l 560 144 l 549 140 l 532 144 l 532 133 q 533 119 532 125 q 538 106 533 113 l 556 60 l 543 60 l 540 57 q 542 53 542 56 q 540 46 542 47 q 537 40 540 43 q 532 38 533 38 q 522 44 529 38 q 508 54 514 50 q 504 57 504 56 q 470 90 489 71 q 449 128 451 108 q 445 167 446 147 q 433 203 444 186 q 428 197 428 199 q 428 195 428 196 q 429 194 429 194 l 433 128 q 435 122 435 125 q 436 118 436 118 q 443 106 436 108 q 449 94 443 103 q 458 76 456 85 q 463 70 461 72 q 464 68 464 68 l 467 0 m 704 128 l 725 88 q 729 86 726 86 l 731 86 q 742 96 742 86 q 741 100 742 99 q 733 110 740 101 q 724 126 729 117 q 717 138 718 135 l 713 143 l 711 143 q 703 139 708 143 q 699 132 699 135 q 704 128 699 128 m 679 172 l 679 167 q 682 164 679 164 q 690 171 688 164 q 693 181 693 178 q 688 187 693 185 q 679 197 683 189 l 679 194 l 679 193 q 681 188 679 192 q 683 183 683 185 q 681 179 683 182 q 679 175 679 176 l 679 172 m 456 281 l 468 268 q 474 274 474 268 l 474 275 l 463 286 l 461 286 l 456 281 m 436 326 q 440 322 438 326 q 443 318 442 318 q 458 303 447 314 q 475 285 469 292 l 476 285 q 482 290 482 286 l 443 332 l 442 332 q 436 326 436 332 m 439 299 l 439 297 l 450 288 l 456 293 l 444 304 q 443 306 444 306 q 442 304 443 306 q 439 300 442 303 l 439 299 m 422 318 l 432 308 l 432 307 l 433 308 l 439 314 l 429 324 l 422 318 m 218 450 q 258 401 235 424 q 314 368 282 378 l 376 346 q 381 343 376 344 q 388 340 385 342 q 392 331 386 338 q 404 321 399 324 l 406 321 l 425 338 q 415 348 422 340 q 406 358 408 356 q 402 365 406 360 q 399 369 399 369 q 349 403 378 390 q 293 426 321 417 q 256 456 272 436 q 252 465 254 458 q 243 471 250 471 q 242 469 243 469 l 240 469 q 239 467 239 469 q 246 452 239 460 q 262 437 253 444 q 280 424 271 429 q 293 415 289 418 q 347 393 319 403 q 393 358 375 383 q 397 353 394 356 q 400 349 400 351 q 399 348 400 349 q 397 346 397 347 l 396 346 l 394 346 l 379 354 l 317 378 q 265 410 288 388 q 226 457 243 433 l 225 457 q 218 453 218 457 l 218 450 m 654 481 l 653 478 q 635 434 646 454 q 611 393 625 414 l 614 393 l 667 393 q 660 401 667 400 q 649 403 653 403 l 647 403 l 647 404 q 648 405 647 404 q 649 407 649 406 l 679 447 l 679 450 l 636 413 l 632 410 q 633 413 632 413 q 642 426 636 417 q 653 445 647 435 q 663 464 658 456 q 668 475 667 472 l 668 476 q 661 478 665 476 q 654 481 657 481 m 554 572 q 553 572 554 572 q 553 569 553 571 l 554 569 l 554 572 m 496 586 q 502 585 500 586 q 507 583 504 583 q 508 586 508 583 q 511 593 508 593 q 513 595 511 593 q 517 601 514 597 l 517 603 l 517 604 q 503 597 510 601 q 496 586 496 592 m 414 589 l 413 588 l 413 586 l 414 586 q 415 588 415 586 l 414 589 m 428 643 q 420 627 421 643 q 417 604 419 611 q 413 597 414 597 q 413 590 413 596 q 417 593 417 590 q 431 603 421 594 q 443 615 442 613 l 447 618 l 447 619 q 442 618 446 618 q 439 628 439 618 l 439 632 q 440 634 439 632 q 442 640 440 636 q 435 644 439 646 q 428 643 431 643 m 538 663 q 530 661 531 663 q 529 654 529 660 q 538 663 538 654 m 510 667 l 513 665 l 529 665 q 532 667 531 665 q 539 674 535 669 q 543 679 543 679 l 543 681 q 510 667 519 681 m 836 671 q 840 675 836 675 l 840 667 q 836 671 836 667 m 544 683 q 543 682 543 683 l 543 681 l 544 681 l 546 681 l 546 682 q 544 683 546 683 m 235 810 l 235 726 q 251 728 246 726 q 258 743 256 731 q 259 757 258 747 q 261 777 260 767 q 263 797 263 788 q 264 811 264 807 q 285 833 271 824 q 300 856 300 843 l 300 863 q 292 850 293 851 q 243 836 269 836 q 199 840 219 836 q 158 856 178 844 l 154 856 q 164 844 154 849 q 174 838 167 843 q 185 833 182 833 q 205 826 190 831 q 226 818 219 821 l 235 810 m 818 731 q 817 729 817 731 q 818 728 817 728 l 818 729 l 818 731 m 140 768 q 143 761 140 764 q 146 763 143 763 l 146 764 l 146 765 l 140 769 l 140 768 m 696 906 l 696 903 l 713 889 l 714 889 l 714 890 q 710 897 714 892 q 700 907 706 903 l 699 907 q 696 906 696 907 "},"³":{"ha":2496,"x_min":36,"x_max":2460,"o":"m 1785 72 l 1785 83 l 1785 110 l 1785 138 l 1785 149 l 1785 133 q 1785 110 1785 124 q 1786 85 1786 97 q 1787 65 1786 74 q 1788 54 1788 56 l 1788 135 q 1791 115 1789 131 q 1795 81 1793 99 q 1800 48 1797 63 q 1806 33 1803 33 l 1881 33 q 1886 41 1882 32 q 1893 54 1890 50 l 1893 57 q 1894 61 1894 58 l 1894 63 l 1929 63 l 1918 125 l 2153 43 q 2171 67 2153 67 q 2181 63 2179 67 q 2183 46 2182 58 l 2425 46 l 2411 65 q 2419 70 2411 69 q 2435 72 2426 71 q 2452 74 2444 72 q 2460 85 2460 76 q 2453 97 2460 89 q 2440 115 2447 106 q 2426 131 2432 124 q 2418 142 2419 139 l 2396 172 l 2361 207 q 2353 213 2360 207 q 2339 224 2347 218 l 2322 318 q 2307 315 2315 322 q 2290 299 2299 308 q 2276 282 2282 290 q 2271 275 2271 274 q 2267 310 2267 288 l 2267 325 q 2266 332 2267 328 q 2265 343 2265 336 q 2247 408 2258 379 q 2217 471 2236 436 q 2210 497 2213 478 q 2203 535 2207 515 q 2195 569 2200 554 q 2182 585 2190 585 l 2178 585 l 2153 557 l 2150 560 q 2123 604 2135 583 q 2092 647 2111 625 q 2001 738 2053 697 q 1892 807 1950 778 q 1773 854 1835 836 q 1651 878 1711 872 l 1636 878 q 1590 879 1618 878 q 1547 883 1563 881 l 1233 903 l 1154 903 l 1150 904 l 681 929 q 636 932 668 931 q 568 935 604 933 q 501 938 532 936 q 457 943 469 940 l 282 951 l 275 953 l 275 996 q 283 1019 283 1006 l 231 1019 q 226 1013 229 1019 q 230 1004 226 1010 q 236 996 233 999 l 236 958 l 53 964 l 36 957 l 36 903 q 44 879 39 899 q 54 856 49 860 q 72 804 63 828 q 89 753 82 781 q 94 728 93 738 q 103 703 96 718 q 119 694 108 693 q 136 689 129 694 l 275 664 l 281 661 q 359 647 321 656 q 438 626 397 638 q 446 618 438 618 q 453 619 450 618 q 458 621 456 621 l 469 613 l 469 611 l 471 611 l 485 697 l 494 615 l 969 511 q 977 508 969 511 q 986 503 985 506 l 1014 447 q 1023 432 1019 439 q 1029 414 1026 425 l 765 326 l 676 369 l 454 175 q 428 160 442 167 q 403 144 414 154 l 321 176 q 313 167 313 174 l 313 164 q 315 142 313 158 q 322 109 318 126 q 330 78 325 92 q 339 63 335 64 l 583 63 l 1040 63 l 1090 67 l 1214 67 q 1217 59 1217 65 q 1219 47 1218 53 q 1220 35 1219 40 q 1224 31 1221 31 l 1253 31 q 1260 40 1258 31 q 1263 57 1263 50 q 1265 63 1263 63 l 1349 63 l 1351 57 l 1346 54 l 1353 54 q 1349 47 1349 54 l 1349 46 l 1360 39 q 1349 28 1350 36 l 1324 28 l 1324 24 l 1342 4 l 1517 4 q 1523 16 1521 11 q 1532 24 1525 21 q 1516 29 1529 31 q 1496 43 1503 28 q 1498 56 1497 43 q 1499 83 1499 68 q 1501 111 1500 99 q 1501 124 1501 124 q 1503 103 1501 121 q 1506 65 1504 85 q 1507 46 1507 44 l 1507 50 q 1506 54 1507 53 q 1504 61 1504 56 l 1506 63 q 1524 64 1511 63 q 1542 67 1536 65 q 1546 68 1543 68 l 1544 150 q 1545 138 1544 149 q 1547 110 1546 126 q 1547 82 1547 93 l 1547 69 q 1549 78 1549 75 q 1557 82 1550 82 q 1567 78 1564 82 q 1578 75 1571 75 l 1588 82 l 1589 82 l 1590 82 q 1606 72 1594 79 q 1619 61 1617 64 q 1637 47 1629 54 q 1656 39 1644 39 q 1675 44 1665 39 q 1688 57 1685 50 l 1785 72 "},"´":{"ha":239,"x_min":36,"x_max":290,"o":"m 113 1208 l 36 1028 l 203 1028 l 290 1208 l 113 1208 "},"µ":{"ha":571,"x_min":36,"x_max":535,"o":"m 406 0 q 501 31 468 0 q 535 125 535 63 l 535 978 l 357 978 l 357 181 l 214 181 l 214 978 l 36 978 l 36 -122 l 214 -122 l 214 0 l 406 0 "},"¶":{"ha":571,"x_min":36,"x_max":535,"o":"m 535 978 l 165 978 q 69 947 103 978 q 36 853 36 915 l 36 531 q 140 407 36 417 l 140 -112 l 318 -112 l 318 797 l 357 797 l 357 -112 l 535 -112 l 535 978 "},"·":{"ha":250,"x_min":36,"x_max":214,"o":"m 36 586 l 36 406 l 214 406 l 214 586 l 36 586 "},"¸":{"ha":193,"x_min":-17,"x_max":157,"o":"m -17 -60 l -17 -176 l 157 -176 l 157 0 l 36 0 l 36 -60 l -17 -60 "},"¹":{"ha":1039,"x_min":22,"x_max":1017,"o":"m 161 143 l 157 143 l 60 44 q 40 64 51 51 q 28 88 28 76 l 28 90 l 122 189 q 47 327 72 251 q 22 482 22 403 q 60 676 22 586 q 162 831 97 765 q 313 934 226 897 q 500 971 400 971 q 710 926 621 971 q 881 796 799 881 q 917 830 900 811 q 951 868 935 849 l 953 868 l 953 869 l 1010 885 l 1017 885 q 1015 883 1017 885 q 1013 882 1014 882 q 1007 873 1011 879 q 997 859 1003 867 q 987 845 992 851 q 978 835 982 839 q 976 833 978 833 q 975 832 975 832 q 958 822 971 829 q 935 808 944 814 q 919 798 928 807 q 900 781 911 789 q 897 776 897 781 q 969 642 946 718 q 993 482 993 565 q 955 294 993 382 q 851 141 917 207 q 698 37 786 75 q 510 -1 610 -1 q 319 35 406 -1 q 161 143 233 72 m 328 128 l 328 125 l 331 122 q 341 117 333 121 q 351 114 349 114 q 431 88 390 99 q 517 78 472 78 q 673 111 600 78 q 799 201 746 144 q 884 331 853 257 q 915 486 915 404 q 901 611 915 578 q 899 617 899 615 q 896 619 900 619 q 894 619 894 619 q 893 618 893 618 l 328 129 l 328 128 m 672 168 l 729 271 l 675 254 q 676 272 675 261 q 685 288 678 282 q 708 295 690 290 q 731 301 725 300 q 744 314 740 303 l 768 378 l 768 386 q 758 401 768 401 q 735 392 747 401 q 712 369 724 382 q 690 347 700 357 q 671 338 679 338 q 655 340 664 338 q 643 344 646 342 l 649 350 q 658 358 650 351 q 678 372 667 364 q 701 389 690 381 q 719 401 713 397 q 741 411 732 410 q 763 413 750 413 l 778 413 q 787 405 785 410 q 789 394 789 400 l 789 386 l 771 301 l 828 301 q 824 294 826 300 q 819 289 821 289 l 768 289 l 735 176 q 715 172 735 175 q 682 165 694 168 q 676 165 679 165 q 672 164 674 164 l 672 168 m 144 204 l 171 172 l 175 169 l 196 193 l 201 192 q 229 175 217 181 q 261 169 242 169 q 318 182 297 169 q 360 215 339 194 l 357 215 l 353 215 q 347 214 349 215 q 340 213 344 214 q 328 213 335 213 l 322 213 q 240 240 281 213 l 240 242 q 247 251 243 244 q 254 258 251 257 l 357 350 q 385 334 369 340 q 421 328 400 328 q 439 330 426 328 q 463 336 451 332 q 484 345 475 340 q 493 356 493 350 q 415 378 454 356 q 406 385 413 381 q 400 390 400 389 l 400 393 l 507 481 q 531 470 513 481 q 569 460 550 460 q 605 467 589 460 q 632 486 621 475 q 613 487 628 486 q 594 489 599 488 q 567 496 586 489 q 549 514 549 503 l 549 515 l 649 601 q 675 588 664 594 q 701 582 686 582 q 711 583 703 582 q 728 588 719 585 q 743 594 736 590 q 750 604 750 599 q 712 608 731 604 q 678 624 693 613 l 685 629 q 702 643 690 633 q 727 664 714 653 q 751 684 740 675 q 765 697 761 693 q 769 701 767 700 q 774 704 772 703 q 793 693 781 704 q 825 682 806 682 q 847 685 838 682 q 867 694 856 688 l 864 694 q 831 705 847 699 q 804 726 815 711 l 810 732 q 822 741 814 736 q 839 751 829 746 q 857 762 849 757 q 869 769 865 767 q 874 774 874 769 l 874 776 q 869 780 871 779 q 867 781 867 781 l 799 739 l 796 739 q 794 745 796 739 q 789 754 792 751 q 788 760 789 756 q 786 764 786 764 l 786 808 q 776 801 781 808 q 768 785 771 794 q 763 767 765 776 q 761 754 761 758 q 763 737 761 744 q 765 721 765 729 l 765 718 l 665 647 q 658 658 660 647 q 656 671 656 668 l 656 714 q 657 732 656 731 l 656 732 q 648 726 656 732 q 638 715 640 719 q 628 690 631 704 q 626 663 626 675 l 631 621 q 628 617 631 617 l 539 549 l 528 542 q 520 554 524 542 q 517 568 517 567 l 517 590 q 522 615 517 603 q 526 640 526 626 l 526 642 q 492 606 501 631 q 483 556 483 582 l 483 544 q 489 508 483 518 l 378 424 q 369 432 371 424 q 368 450 368 440 l 368 467 q 373 503 368 485 q 390 539 378 521 l 389 539 q 376 533 386 538 q 364 526 367 529 q 332 489 343 513 q 321 439 321 465 q 327 408 321 424 q 333 379 333 393 l 333 378 l 218 272 q 204 303 207 281 q 201 338 201 326 q 206 370 201 354 q 215 404 210 386 q 166 358 181 390 q 151 292 151 326 l 151 264 l 156 251 q 160 238 157 244 q 163 225 163 232 l 163 221 l 144 204 m 96 489 l 96 454 q 100 424 96 439 q 110 397 104 408 l 714 840 l 714 843 q 617 881 665 868 q 515 894 569 894 q 353 865 429 894 q 219 781 276 835 q 129 652 163 726 q 96 489 96 578 m 254 700 q 256 712 254 707 q 260 725 257 717 q 263 733 260 726 q 272 749 267 740 q 281 764 276 757 q 286 774 285 771 l 310 829 q 312 833 310 832 q 314 835 314 835 l 315 836 l 364 726 q 367 716 367 719 q 368 704 368 713 q 355 662 368 679 q 315 644 342 644 q 273 658 292 644 q 254 700 254 672 "},"º":{"ha":690,"x_min":22,"x_max":668,"o":"m 267 163 q 272 171 268 164 q 282 188 276 178 q 288 200 288 197 l 286 236 l 303 253 q 303 256 303 253 q 304 260 304 258 q 303 265 304 263 q 303 268 303 268 l 303 296 q 300 325 303 322 l 293 311 l 293 303 q 290 285 293 300 q 284 255 288 271 q 276 226 281 239 q 269 213 272 213 l 274 279 q 277 292 276 282 q 278 306 278 303 l 278 311 l 276 311 l 276 418 l 286 464 q 300 490 300 465 l 300 499 l 297 507 l 257 428 q 253 418 253 424 l 257 382 q 250 365 257 365 l 244 368 l 240 382 l 235 382 l 250 344 q 243 332 250 332 l 240 332 q 231 339 236 332 q 222 356 226 346 q 213 375 217 365 q 210 392 210 385 q 212 406 210 397 q 214 422 214 414 l 204 439 q 214 472 207 456 q 221 507 221 488 q 219 510 221 508 q 218 511 218 511 q 216 499 217 506 q 210 490 215 492 q 195 486 200 488 q 190 485 190 485 q 183 475 186 483 l 111 425 l 104 425 q 93 430 97 425 q 82 435 89 435 q 69 426 75 435 q 61 408 64 418 l 51 356 l 49 356 l 54 415 l 22 415 q 39 422 29 421 q 54 425 49 422 l 54 428 l 38 439 l 44 439 q 71 447 61 439 q 87 465 81 456 q 97 483 93 475 q 108 492 101 492 l 131 490 q 153 494 143 490 q 174 504 164 499 l 210 538 l 226 558 q 247 574 233 565 q 260 590 260 583 l 257 593 l 247 590 l 188 525 q 158 511 169 511 l 217 568 q 237 594 229 581 q 260 621 244 608 l 260 633 l 276 681 q 267 682 274 681 q 260 683 260 683 q 257 688 257 683 l 257 693 q 274 753 257 726 q 319 796 292 779 q 324 802 321 797 q 329 813 326 807 q 347 819 336 819 q 363 824 363 819 l 346 899 q 366 957 346 932 q 422 982 386 982 q 462 965 449 982 q 482 925 475 949 l 493 850 q 491 844 493 849 q 489 840 489 840 l 489 839 q 504 823 489 829 q 529 817 519 817 q 551 836 539 817 q 558 853 554 842 q 564 876 561 865 q 569 897 567 888 q 575 910 572 907 q 586 963 583 938 q 589 1018 589 989 l 592 1018 q 597 1006 596 1018 q 601 981 599 994 q 612 955 604 967 q 635 943 619 943 q 650 947 642 943 q 668 951 658 951 q 658 934 668 944 q 635 912 647 924 q 610 890 622 900 q 596 872 599 879 q 592 860 593 872 q 585 843 590 849 l 569 806 q 599 777 586 786 q 619 743 611 768 l 618 676 q 619 674 618 676 q 619 669 619 671 l 608 669 l 608 661 q 611 654 611 658 l 611 647 q 615 642 611 647 q 618 636 618 638 q 621 617 619 622 q 622 611 622 611 l 628 590 l 628 564 q 635 553 635 557 q 636 542 636 549 l 636 535 q 635 528 636 529 l 619 464 q 613 449 613 460 q 603 439 613 440 l 603 408 q 592 386 594 400 q 576 363 589 372 l 565 363 l 558 356 l 543 354 q 542 341 543 350 q 538 322 540 332 q 535 302 536 311 q 533 289 533 293 l 533 246 l 525 199 l 515 76 q 497 40 503 57 q 492 0 492 24 l 346 0 l 326 57 q 322 64 325 63 q 316 67 319 65 q 309 72 313 68 q 303 89 306 76 l 290 172 q 303 188 300 175 q 307 213 307 200 q 303 226 307 226 q 297 219 300 226 l 300 206 l 283 175 q 275 167 281 172 q 267 163 269 163 m 422 235 q 415 214 419 228 q 410 193 410 200 q 414 156 414 168 l 413 133 q 414 124 414 132 l 414 36 q 417 0 414 3 l 424 0 q 422 31 422 1 l 422 79 q 426 93 426 83 l 422 110 q 424 128 422 119 q 426 143 426 136 l 426 226 l 422 235 m 543 585 l 543 551 q 560 525 543 525 q 559 560 560 542 q 551 593 558 578 l 543 585 m 171 485 q 151 476 164 481 q 127 466 139 471 q 106 454 115 461 q 97 439 97 447 q 115 447 110 439 q 131 461 121 456 l 135 464 q 156 471 147 469 q 171 485 164 472 m 543 485 l 546 478 q 551 464 551 472 l 556 464 l 558 492 l 553 497 l 543 485 m 235 547 q 215 530 226 540 q 197 504 204 519 q 216 524 204 514 q 240 538 228 535 l 240 542 q 235 547 240 547 "},"»":{"ha":472,"x_min":36,"x_max":436,"o":"m 217 376 l 36 294 l 36 461 l 107 494 l 36 529 l 36 696 l 217 614 l 217 376 m 436 376 l 256 294 l 256 461 l 326 494 l 256 529 l 256 696 l 436 614 l 436 376 "},"¼":{"ha":1549,"x_min":36,"x_max":1513,"o":"m 774 22 q 786 16 785 22 q 789 0 788 10 l 1367 0 q 1360 38 1367 19 q 1353 74 1353 56 q 1358 90 1353 83 q 1363 103 1363 96 q 1358 116 1363 111 q 1353 132 1353 121 q 1359 140 1353 135 q 1373 151 1365 146 q 1388 160 1381 156 q 1400 164 1396 164 l 1403 164 q 1425 126 1406 139 q 1468 113 1444 113 q 1494 119 1476 113 q 1513 138 1513 126 l 1513 140 l 1499 226 l 1499 232 l 1499 236 q 1506 248 1501 240 q 1513 258 1510 256 l 1507 304 q 1500 306 1507 306 q 1497 306 1500 306 q 1489 308 1494 307 q 1480 310 1488 308 q 1467 311 1472 311 q 1461 315 1463 314 q 1457 318 1460 315 q 1428 439 1446 374 q 1379 554 1411 504 q 1378 557 1379 556 q 1376 560 1376 558 q 1372 587 1374 571 q 1358 613 1369 603 q 1336 623 1350 619 q 1311 626 1322 626 q 1289 617 1296 626 q 1271 607 1282 607 l 1267 607 q 1264 615 1265 610 q 1263 622 1263 621 q 1247 632 1257 629 q 1225 638 1236 635 q 1206 645 1214 640 q 1197 663 1197 650 q 1203 679 1197 672 q 1210 696 1210 686 l 1208 699 q 1205 709 1208 701 q 1199 722 1201 717 q 1195 727 1197 724 q 1190 736 1193 731 q 1176 772 1186 751 q 1163 799 1165 793 q 1151 806 1158 806 q 1140 813 1144 806 q 1144 821 1144 814 l 1144 826 q 1141 862 1142 839 q 1140 900 1140 885 l 1140 914 q 1111 982 1138 951 q 1061 1040 1085 1013 q 1058 1044 1061 1044 l 1058 914 l 1099 826 q 1109 817 1106 819 q 1113 808 1113 815 q 1112 802 1113 806 q 1107 793 1111 799 l 1107 676 q 1112 667 1107 671 q 1122 660 1117 664 q 1133 651 1128 657 q 1138 633 1138 644 l 1138 622 q 1136 618 1138 618 q 1124 603 1133 611 q 1113 596 1115 596 l 1072 596 q 1060 610 1065 596 q 1053 631 1056 624 l 1053 635 q 1060 646 1053 642 q 1067 657 1067 650 l 1067 663 q 1065 672 1067 665 q 1061 682 1063 679 q 1051 718 1057 696 q 1038 761 1044 740 q 1026 797 1031 782 q 1021 813 1021 813 l 1013 817 q 965 891 1003 868 q 881 914 928 914 q 792 898 832 914 q 724 839 751 882 l 718 844 l 694 918 l 694 925 q 700 941 694 936 q 713 949 706 946 q 728 955 721 951 q 740 965 736 958 q 719 971 731 971 l 697 971 q 668 965 688 971 q 649 946 649 958 l 650 944 q 696 869 686 913 q 706 781 706 825 l 706 750 l 706 736 q 707 722 706 724 q 724 670 710 699 q 744 625 738 642 q 753 598 749 617 q 763 560 758 579 q 772 528 768 542 q 776 514 775 514 l 822 514 q 823 508 822 511 q 818 499 824 504 l 811 499 l 792 499 l 786 499 q 741 501 763 499 q 697 504 719 504 q 669 497 682 504 q 643 490 657 490 l 640 490 q 622 492 636 490 q 593 494 608 493 q 564 497 578 496 q 546 499 550 499 l 542 499 q 536 499 539 499 q 531 500 533 500 l 525 500 l 519 500 q 515 499 517 500 q 510 499 513 499 l 506 499 q 500 494 500 499 q 488 479 494 490 q 476 464 482 468 q 470 498 479 489 q 440 514 461 507 q 427 518 435 515 q 419 521 419 521 l 419 533 l 468 533 l 468 569 l 342 569 q 339 577 340 572 q 336 585 338 582 q 332 590 335 590 l 296 590 l 290 581 l 238 581 q 231 588 235 581 q 228 596 228 596 l 174 596 l 174 557 l 228 557 q 229 554 229 557 q 232 550 229 553 q 232 547 235 547 l 232 544 l 60 544 q 42 528 47 544 q 36 504 36 513 q 44 476 36 485 q 69 454 53 467 q 210 449 140 453 q 354 439 279 446 q 358 432 354 432 q 368 417 363 425 q 374 408 374 408 q 381 403 379 403 q 386 404 385 403 q 390 394 388 406 q 406 356 396 371 q 419 318 415 340 q 420 308 419 315 q 424 300 421 301 q 433 283 426 289 q 447 276 440 278 q 460 272 454 274 q 465 265 465 269 q 460 256 465 258 q 454 247 454 254 q 468 217 454 231 q 492 190 482 204 q 494 181 493 183 q 494 179 494 179 l 494 172 q 496 167 494 169 q 506 158 497 164 l 626 40 q 670 22 653 31 q 718 14 688 14 q 747 18 733 14 q 774 22 760 22 m 764 114 l 768 110 l 764 76 q 752 72 761 75 q 740 64 743 68 l 686 64 l 686 68 l 707 82 q 717 88 708 82 q 737 99 726 93 q 756 109 747 104 q 764 114 764 114 m 625 83 q 634 80 631 83 q 640 74 638 76 l 639 74 q 625 83 625 74 m 618 86 q 617 83 618 83 q 613 86 614 83 q 615 89 613 89 q 618 86 618 89 m 581 308 l 647 308 l 647 296 q 660 295 647 296 q 682 294 674 294 q 692 300 686 294 l 692 297 l 692 294 q 686 286 690 292 q 682 278 682 281 q 667 255 676 268 q 658 242 658 242 l 650 242 l 581 308 m 408 521 q 414 517 414 521 q 408 514 414 514 q 406 517 406 514 q 408 521 406 521 m 282 536 l 282 544 l 354 544 q 365 538 365 544 q 354 525 365 525 q 317 529 338 525 q 282 536 297 533 m 786 536 l 758 636 q 743 674 751 658 q 724 707 735 689 l 722 710 l 722 711 l 724 711 q 726 718 724 714 q 732 722 729 722 q 790 738 760 733 q 850 749 819 742 q 880 760 865 753 q 910 768 894 768 q 914 763 914 768 l 914 760 l 914 757 q 884 750 906 756 q 840 737 863 744 q 801 719 818 729 q 785 697 785 708 l 785 692 q 786 686 785 686 l 822 526 l 789 526 l 786 536 "},"½":{"ha":2344,"x_min":36,"x_max":2308,"o":"m 36 474 l 182 0 l 343 0 l 396 168 q 410 132 401 160 q 427 75 418 104 q 444 23 436 46 q 456 0 451 0 l 613 0 l 756 474 l 586 474 q 576 461 582 474 q 571 449 571 449 q 564 432 568 444 q 555 405 560 419 q 546 376 550 390 q 540 358 542 363 l 533 365 l 503 456 q 500 458 503 457 q 496 465 497 460 q 479 474 485 474 l 319 474 q 302 459 310 474 q 288 425 294 444 q 277 387 282 406 q 267 358 272 368 q 262 365 264 360 q 260 374 260 369 q 252 390 257 378 q 243 417 247 403 q 235 445 239 432 q 229 465 231 458 l 213 474 l 36 474 m 693 0 l 867 0 l 890 61 l 1050 61 q 1058 38 1051 57 q 1067 14 1064 19 q 1070 6 1068 11 q 1074 0 1072 0 l 1243 0 q 1242 5 1243 3 q 1242 7 1242 7 q 1239 24 1242 13 q 1232 39 1236 35 l 1104 449 q 1095 465 1101 456 q 1079 474 1089 474 l 860 474 q 831 449 836 474 l 693 0 m 1286 465 l 1286 0 l 1474 0 l 1474 122 l 1592 14 l 1638 0 l 2049 0 q 2096 13 2074 0 q 2135 47 2118 26 q 2161 92 2151 68 q 2171 140 2171 117 q 2143 232 2171 190 q 2079 304 2115 274 l 2079 317 l 2308 317 l 2308 456 l 2292 474 l 2026 474 q 1913 435 1960 474 q 1865 331 1865 397 q 1887 248 1865 282 q 1942 175 1908 214 l 1942 168 l 1704 168 q 1698 170 1703 168 q 1690 175 1693 172 l 1690 179 q 1702 190 1690 181 q 1728 217 1714 200 q 1756 260 1743 235 q 1768 317 1768 285 q 1760 362 1768 336 q 1736 410 1751 388 q 1699 449 1721 433 q 1651 465 1678 465 l 1286 465 m 968 304 l 975 311 l 1004 213 q 1006 206 1006 211 q 1007 199 1007 201 l 938 199 l 968 304 m 1526 336 l 1549 336 q 1584 331 1568 336 q 1600 303 1600 326 q 1597 289 1600 296 q 1583 282 1594 282 l 1478 282 l 1478 328 q 1489 335 1478 333 q 1513 336 1500 336 l 1526 336 m 39 675 l 39 510 l 533 510 q 577 524 557 510 q 611 560 597 539 q 633 606 625 582 q 640 651 640 631 q 632 699 640 676 q 610 741 624 721 q 580 779 596 761 q 547 814 564 797 l 547 824 l 757 824 l 757 510 l 932 510 l 932 814 l 943 826 l 1133 826 l 1133 975 l 449 975 q 401 963 422 975 q 365 930 381 950 q 342 886 350 910 q 333 840 333 863 l 333 835 q 335 796 333 814 q 350 763 338 778 l 419 675 l 39 675 m 1067 510 l 1242 510 q 1245 515 1243 510 q 1249 526 1247 521 q 1252 533 1250 526 q 1256 549 1254 540 q 1262 564 1258 557 q 1271 571 1265 571 l 1417 571 q 1426 557 1421 571 q 1433 538 1429 549 q 1438 526 1436 526 q 1444 515 1442 521 q 1447 510 1447 510 l 1615 510 l 1474 975 l 1208 975 l 1067 510 m 1651 975 l 1651 510 l 1836 510 l 1836 625 l 1842 625 q 1861 605 1847 618 q 1890 577 1875 592 q 1920 550 1906 563 q 1942 533 1935 538 q 1950 526 1943 531 q 1965 519 1957 522 q 1979 513 1972 515 q 1988 510 1986 510 l 2308 510 l 2308 675 l 2063 675 l 2056 686 q 2091 718 2076 704 q 2115 747 2106 732 q 2129 781 2125 763 q 2133 826 2133 799 q 2124 878 2133 851 q 2097 926 2114 904 q 2055 961 2079 947 q 2001 975 2031 975 l 1651 975 m 1340 814 l 1347 814 q 1351 802 1347 814 q 1360 774 1354 790 q 1369 742 1365 758 q 1376 717 1374 726 l 1378 708 l 1308 708 l 1340 814 m 1842 838 l 1950 838 q 1963 831 1958 838 q 1967 814 1967 824 q 1949 788 1967 793 q 1913 782 1931 782 l 1893 782 q 1873 783 1885 782 q 1857 783 1861 783 q 1848 787 1854 785 q 1842 793 1842 789 l 1842 838 "},"¾":{"ha":882,"x_min":36,"x_max":846,"o":"m 475 94 l 475 101 q 476 115 475 108 q 476 125 476 122 q 478 131 478 128 q 482 136 479 133 q 486 139 482 139 l 494 139 q 497 131 497 139 l 497 129 l 496 106 l 496 50 q 497 44 496 49 q 497 36 497 39 q 499 32 497 33 q 501 29 501 31 l 501 -1 q 496 4 496 -1 q 490 21 493 13 q 486 38 488 29 q 484 47 485 43 q 483 53 483 50 q 483 60 483 56 q 481 71 482 64 q 478 82 481 78 q 475 90 475 86 l 475 94 m 382 131 q 381 137 382 133 q 381 146 381 140 l 381 161 q 362 187 376 172 q 342 210 347 201 q 337 217 340 213 q 331 224 333 222 l 328 231 q 323 247 325 238 q 321 258 321 256 q 323 301 321 282 q 325 347 325 321 q 335 358 332 350 q 346 367 339 367 l 368 367 q 375 357 375 367 q 376 349 375 350 l 381 343 q 383 338 382 342 q 385 333 385 333 l 385 326 q 388 319 385 322 q 394 306 390 310 q 402 299 399 304 q 406 290 406 293 q 404 289 406 289 q 401 247 406 265 q 393 208 396 229 q 390 201 390 206 l 390 190 l 390 189 l 390 181 q 392 174 390 179 q 394 169 394 169 q 397 161 396 167 q 399 154 397 156 l 399 142 q 399 135 399 139 q 400 131 400 132 q 401 127 400 131 q 403 124 401 124 q 405 113 404 117 q 406 108 406 110 l 406 94 l 406 89 q 405 65 406 81 q 404 38 404 49 l 404 25 l 403 17 q 393 42 393 26 q 392 56 393 49 q 390 71 392 64 q 390 76 390 71 q 389 83 389 81 q 388 88 389 83 q 388 99 388 93 q 387 108 388 104 q 386 115 386 113 q 385 122 385 117 q 382 131 385 128 m 442 31 q 437 67 439 50 q 432 104 435 85 q 429 124 431 114 q 428 146 428 135 l 428 167 l 428 175 l 428 185 q 426 196 428 188 q 425 207 425 204 l 425 210 l 425 221 l 425 225 l 425 231 l 425 243 l 425 244 q 426 252 425 250 q 428 260 428 254 l 428 264 q 427 266 428 264 q 426 269 426 268 q 428 271 426 271 q 432 274 429 271 q 434 282 433 279 q 435 285 435 285 q 439 292 436 285 q 440 294 439 292 q 442 299 442 296 q 447 309 444 306 q 450 319 450 313 l 450 329 q 451 328 450 326 q 453 336 451 329 q 454 339 453 336 q 456 343 456 342 l 456 344 q 457 350 456 349 q 463 355 460 353 q 465 365 465 357 l 465 368 l 465 371 q 457 374 457 371 q 463 376 457 376 q 465 381 465 376 l 465 394 q 463 395 465 394 q 458 396 461 396 q 450 393 449 396 q 446 388 451 390 q 436 374 436 383 q 442 361 436 365 q 449 350 449 357 q 442 338 449 338 l 426 338 q 422 335 424 338 q 418 331 421 332 l 410 321 l 406 321 q 396 323 401 321 q 390 331 390 325 q 397 357 390 346 q 393 365 393 358 q 390 372 393 372 l 390 404 q 390 409 390 407 q 389 413 389 411 q 382 431 382 424 q 381 435 382 433 q 381 438 381 438 l 376 438 q 375 439 375 438 q 370 444 372 442 q 365 447 368 447 l 364 447 q 358 437 360 443 q 347 431 356 431 q 338 435 344 431 q 326 442 331 439 l 325 443 l 325 444 l 317 463 l 314 529 q 301 553 307 540 q 293 578 296 567 q 291 585 292 581 q 290 590 290 590 q 275 610 288 606 q 251 625 263 614 l 243 650 q 237 663 238 651 q 233 679 236 674 l 233 711 q 231 712 233 711 q 228 714 228 713 q 231 715 228 715 l 233 718 q 235 724 236 721 q 239 732 233 728 l 249 742 l 265 742 q 270 734 268 742 q 274 716 272 726 q 279 696 276 706 q 285 683 282 686 q 297 672 288 678 q 317 659 307 665 q 336 646 328 653 q 344 632 344 639 q 353 626 347 629 q 363 619 358 624 q 366 615 365 619 q 368 611 367 611 l 368 590 q 367 586 367 590 l 367 585 l 382 586 q 386 590 383 590 q 390 585 390 590 q 393 579 389 579 q 399 583 399 579 l 399 599 q 398 599 399 599 q 394 600 397 600 q 390 601 392 600 q 386 601 389 601 q 385 606 385 603 q 383 611 385 610 l 383 619 l 383 622 l 383 632 q 384 635 383 632 q 385 643 385 638 q 386 644 385 644 q 393 648 389 646 q 397 653 397 650 q 393 675 397 660 q 389 693 389 690 q 386 697 388 696 q 383 701 385 699 l 382 707 q 372 717 376 713 q 367 728 368 721 q 352 755 360 743 q 333 782 344 767 q 317 797 326 792 q 300 808 307 801 q 288 822 290 815 q 281 836 286 829 q 262 858 267 850 q 257 886 257 867 q 260 913 257 903 q 276 935 264 924 q 312 967 297 953 q 354 981 326 981 q 376 957 376 981 l 376 953 q 371 945 374 951 q 367 936 368 939 q 353 918 363 928 q 343 897 343 908 q 353 881 343 893 q 367 869 363 869 q 377 871 369 869 q 385 876 385 872 l 385 879 q 376 890 378 886 l 371 907 l 371 908 q 369 913 371 911 q 368 914 368 914 q 376 938 368 928 q 399 949 383 949 l 400 949 l 406 949 q 411 940 408 946 q 417 935 414 935 q 422 935 421 935 q 425 939 422 936 q 428 940 425 940 l 431 940 q 435 947 433 943 q 439 951 436 950 q 447 955 443 954 q 453 958 450 956 l 469 958 q 474 957 471 957 l 478 956 l 482 953 q 488 951 483 951 q 493 949 493 951 q 504 947 496 949 q 515 944 513 944 l 519 944 q 540 946 531 944 q 560 947 549 947 l 563 947 l 572 947 l 575 947 q 595 931 590 942 q 606 910 600 921 l 606 850 l 604 850 q 603 838 604 844 q 597 825 601 831 q 578 819 593 821 q 558 814 564 817 l 557 813 q 551 808 554 810 q 543 804 547 807 q 509 787 525 796 q 482 764 493 778 q 480 760 483 758 q 474 758 476 761 l 474 751 q 458 742 468 746 l 457 739 q 433 716 449 729 q 418 689 418 703 l 418 688 q 425 676 421 679 q 431 660 431 671 q 432 644 432 650 q 430 633 432 638 q 428 622 428 628 l 428 614 q 432 611 428 611 q 437 588 433 596 q 449 568 440 581 l 450 565 q 453 563 450 563 l 465 563 q 467 567 467 563 q 468 574 468 571 q 467 576 468 576 q 465 578 465 575 l 465 582 q 469 593 465 585 q 472 607 472 601 q 477 616 472 607 q 482 628 482 625 q 506 649 490 633 q 531 668 521 664 q 538 671 532 669 q 546 672 543 672 q 557 679 550 672 q 571 695 564 686 q 583 713 578 704 q 588 725 588 721 l 588 767 q 594 778 594 769 l 594 782 q 597 784 596 782 q 601 786 599 786 l 606 786 q 612 799 608 789 q 618 814 615 810 q 619 815 618 815 l 628 815 l 629 814 l 629 813 q 628 811 629 813 q 624 808 626 810 q 617 799 621 801 q 614 792 614 797 q 617 786 614 788 q 622 782 619 785 q 629 762 625 779 q 640 742 633 744 l 640 701 q 631 683 640 690 q 614 669 622 676 l 610 668 l 608 668 q 578 619 594 644 q 563 565 563 594 q 564 560 563 563 q 565 551 565 557 q 563 545 565 546 q 557 542 560 544 q 556 537 557 540 q 554 532 556 533 q 537 511 551 521 q 511 499 522 501 q 508 483 508 492 q 507 463 507 475 q 515 454 507 461 q 524 442 524 447 q 522 438 524 439 q 519 433 519 436 q 524 429 519 431 l 524 394 q 519 388 521 392 q 515 381 518 385 q 507 370 513 375 q 499 357 501 365 q 497 350 497 356 l 497 338 l 496 336 l 496 324 q 489 315 493 321 q 485 308 485 310 l 486 306 l 490 301 l 490 300 l 490 299 q 486 297 489 297 l 481 297 q 478 292 478 294 q 479 288 478 289 q 481 285 481 288 q 479 281 481 282 q 478 275 478 279 q 479 271 478 272 q 481 267 481 269 q 478 259 481 263 q 476 251 476 256 q 478 247 476 247 q 481 243 481 246 q 479 238 481 239 q 478 235 478 238 q 481 215 478 225 q 483 194 483 206 q 483 190 483 192 q 482 185 482 189 l 482 179 q 481 172 482 172 q 474 164 479 171 q 469 160 471 161 q 465 157 467 158 q 462 143 465 149 q 457 131 458 138 q 456 121 456 129 q 453 110 456 113 l 453 46 q 451 37 453 43 q 449 29 450 31 q 444 25 449 25 q 444 26 444 25 q 442 31 443 28 m 325 139 l 325 140 l 325 161 l 325 165 q 326 172 325 168 q 329 176 326 176 l 331 176 q 340 176 333 176 q 346 175 346 175 q 353 170 349 172 q 357 165 357 168 l 357 160 l 357 139 l 357 132 q 358 109 357 121 q 356 86 358 97 q 354 80 356 85 q 353 74 353 75 q 351 65 353 71 q 350 56 350 58 q 347 53 347 56 l 347 50 q 336 82 339 58 q 331 117 333 106 q 328 125 329 122 q 328 128 328 128 q 327 131 328 128 q 325 139 326 133 m 36 272 l 36 324 q 38 326 38 325 l 38 328 q 44 387 43 358 q 51 443 46 415 q 59 458 54 446 q 65 472 64 469 q 91 515 79 494 q 118 551 103 535 q 126 565 124 557 q 135 575 129 572 q 144 590 138 579 q 154 600 151 600 q 161 605 157 603 q 165 607 165 607 l 207 607 l 211 607 l 214 607 l 233 585 q 243 578 240 582 q 249 569 246 574 l 264 554 q 276 542 268 550 q 283 526 283 533 q 282 515 283 519 q 282 503 281 510 q 276 497 279 501 q 271 492 274 492 l 264 483 q 256 476 263 481 q 247 469 250 471 q 235 461 244 469 q 222 450 225 453 q 213 440 214 443 q 207 431 213 438 q 194 419 200 425 q 182 406 188 414 q 179 404 182 404 q 135 342 158 376 q 111 267 111 307 l 111 260 l 111 258 l 111 253 l 118 238 q 125 224 119 235 q 138 202 131 214 q 151 182 144 190 q 161 176 158 174 q 193 157 172 164 q 221 154 208 156 q 247 151 233 153 q 248 151 247 151 q 249 147 249 150 q 244 146 249 146 q 206 140 225 140 q 165 139 188 139 l 164 139 l 136 139 q 113 147 125 139 q 91 165 101 154 q 72 188 81 176 q 60 207 64 200 q 59 209 60 207 q 58 213 58 211 q 51 225 54 219 q 44 238 47 231 q 40 253 42 247 q 38 269 39 258 q 36 272 38 271 m 664 161 l 667 161 q 682 169 672 164 q 700 179 692 174 q 715 191 708 185 q 724 203 722 197 l 724 217 q 729 239 726 229 q 732 260 732 249 q 726 283 732 274 q 722 308 724 296 q 715 331 721 319 q 699 363 710 349 q 685 392 688 376 q 661 418 671 404 q 640 442 651 432 q 627 453 632 449 q 614 465 622 458 q 608 469 610 465 q 598 481 603 474 q 586 494 593 489 q 565 513 571 501 l 565 514 q 573 540 565 526 q 589 561 581 554 q 599 566 594 565 q 608 571 604 567 q 617 578 611 571 q 622 586 622 586 q 624 590 622 589 q 625 593 624 593 l 628 596 q 643 610 638 604 q 664 615 649 615 q 690 613 675 615 q 711 601 704 610 q 726 588 722 593 q 740 575 731 582 q 752 573 744 578 q 763 565 760 568 l 763 563 l 763 558 q 760 547 763 551 q 757 539 758 543 l 743 522 l 743 519 l 743 518 l 744 518 l 775 518 q 783 514 778 515 q 793 510 789 513 q 801 494 801 503 q 802 490 801 493 q 804 479 803 486 l 804 475 q 806 460 806 474 l 806 447 q 808 437 807 443 q 811 431 810 431 l 813 429 l 813 419 l 813 413 q 813 401 813 410 q 815 381 814 392 q 816 362 815 371 q 817 350 817 353 q 819 342 818 344 q 819 339 819 339 q 821 331 819 332 q 826 326 825 331 q 829 319 826 322 l 843 311 q 846 306 846 308 q 839 308 839 306 q 833 310 839 310 l 832 310 q 829 308 829 310 q 830 278 831 292 q 824 250 829 265 q 813 228 817 238 q 804 214 808 219 q 796 202 797 207 q 792 190 794 197 q 772 167 781 175 q 749 149 764 158 q 726 143 739 143 l 718 143 l 714 143 l 707 143 q 703 144 706 143 q 697 146 700 146 l 686 149 q 673 151 683 149 q 664 161 663 154 m 407 289 q 415 283 415 289 q 411 282 415 282 q 407 289 407 282 m 456 417 l 456 414 l 456 413 l 457 413 q 460 410 457 411 q 463 410 463 410 q 465 406 465 407 q 471 403 465 403 l 472 403 l 474 403 l 474 406 l 474 425 l 474 429 l 471 429 q 461 426 467 429 q 456 417 456 422 m 743 476 q 746 474 744 475 q 749 472 747 474 l 746 479 q 750 478 749 479 q 753 476 751 476 q 756 478 756 476 l 756 479 q 750 492 756 492 q 743 479 743 492 l 743 476 m 525 499 q 528 501 525 501 l 531 501 l 531 500 l 531 499 q 526 496 531 493 q 525 499 526 497 m 560 507 q 563 510 560 510 q 565 507 565 510 q 563 503 565 503 q 560 507 560 503 m 389 669 l 389 661 l 385 661 q 389 669 385 669 m 390 851 l 390 850 l 394 850 l 399 850 l 399 854 l 393 854 q 390 851 390 854 "},"¿":{"ha":499,"x_min":36,"x_max":463,"o":"m 165 0 l 463 0 l 463 181 l 214 181 l 214 392 l 283 392 q 379 423 346 392 q 413 517 413 454 l 413 711 l 235 711 l 235 572 l 165 572 q 69 541 103 572 q 36 447 36 510 l 36 125 q 69 31 36 63 q 165 0 103 0 m 413 797 l 413 978 l 235 978 l 235 797 l 413 797 "},"À":{"ha":639,"x_min":22,"x_max":618,"o":"m 346 1208 l 422 1028 l 256 1028 l 168 1208 l 346 1208 m 240 94 q 245 97 242 94 q 250 101 249 100 l 260 119 l 258 128 q 261 132 260 132 q 264 124 264 132 q 262 109 264 117 q 254 100 260 101 l 261 51 q 269 39 264 38 q 275 33 274 40 l 286 0 l 22 0 l 228 978 l 413 978 l 618 0 l 371 0 q 374 24 371 14 q 385 44 378 33 l 390 115 l 396 143 l 396 168 q 398 187 396 172 q 401 206 400 201 l 410 207 l 414 211 l 421 211 q 429 224 428 217 q 436 238 431 232 l 436 256 q 442 261 442 257 q 446 269 442 267 l 454 307 q 456 311 456 308 l 456 315 q 455 322 456 319 q 450 328 454 324 l 450 343 l 447 356 q 447 359 447 356 q 444 369 446 363 q 442 374 444 371 q 440 376 440 376 l 440 381 q 439 385 440 383 l 439 389 l 446 389 q 445 392 446 390 q 444 393 444 393 l 446 432 q 434 452 442 447 q 417 468 426 457 l 425 490 q 429 500 428 493 q 432 507 431 507 q 440 517 433 511 q 456 530 447 524 q 470 542 464 536 q 476 553 476 549 q 466 551 471 553 q 457 549 461 549 q 443 556 447 549 q 437 570 439 563 q 433 585 435 578 q 429 592 432 592 l 428 592 q 426 560 428 575 q 419 529 425 544 q 413 510 417 526 q 406 486 408 493 q 393 475 399 475 q 378 478 388 475 q 369 488 369 482 l 369 489 q 371 491 369 489 q 372 494 372 493 l 365 538 q 354 561 363 551 q 331 571 346 571 q 298 556 310 571 q 286 522 286 542 l 296 479 q 288 476 296 476 q 276 472 281 476 q 271 463 274 465 q 245 438 256 453 q 235 403 235 422 l 235 400 q 236 397 235 397 q 240 397 236 397 q 246 396 244 396 l 236 368 l 236 361 q 223 346 228 354 q 211 331 218 338 l 178 297 q 194 306 183 297 l 229 343 l 235 344 l 236 343 q 228 334 236 339 q 217 325 221 329 l 207 313 l 186 293 q 174 288 181 290 q 161 285 168 285 l 149 286 q 142 281 144 286 q 135 271 139 276 q 126 260 132 265 q 111 256 121 256 l 107 256 l 117 249 l 117 247 q 108 245 114 246 q 99 242 103 244 l 117 242 l 114 207 l 115 207 l 121 238 q 126 248 122 243 q 133 253 129 253 q 139 250 136 253 q 146 247 142 247 l 150 247 l 192 276 q 197 282 193 282 l 196 282 q 199 283 196 282 q 207 285 201 283 q 210 290 210 286 q 213 297 211 294 q 213 297 213 297 q 214 294 214 296 q 210 274 214 283 q 204 256 206 265 l 210 246 q 208 235 210 240 q 207 228 207 231 q 214 207 207 221 q 225 193 221 193 l 226 193 q 231 200 231 193 l 222 222 l 225 222 l 228 214 l 231 213 q 235 222 235 213 l 232 243 q 235 249 232 246 l 258 294 l 260 290 l 260 285 q 251 269 260 271 l 246 243 l 246 181 l 247 181 l 247 178 q 247 170 247 176 q 244 163 246 164 l 242 124 q 246 131 243 124 q 251 148 249 139 q 254 165 253 157 q 256 176 256 174 l 256 181 l 260 189 q 261 172 261 188 l 261 156 q 262 154 261 156 q 263 151 263 153 q 262 149 263 150 q 261 147 261 147 l 251 138 l 253 117 q 246 104 251 114 q 240 94 240 94 m 331 136 l 333 132 l 333 83 q 332 74 333 79 q 331 64 331 69 l 333 54 q 331 46 333 49 l 331 18 q 332 0 331 1 l 328 0 q 326 21 326 1 l 326 72 q 325 78 326 76 l 326 90 q 326 100 326 94 q 324 113 325 106 q 326 124 324 117 q 331 136 329 132 m 401 340 l 406 344 q 410 326 410 336 q 411 306 411 315 q 401 321 401 306 l 401 340 m 185 282 q 176 274 181 275 q 164 269 171 272 l 161 268 q 152 260 156 265 q 142 256 149 256 q 147 264 142 260 q 160 271 153 268 q 174 276 167 274 q 185 282 181 279 m 401 282 l 407 289 l 410 286 l 408 269 l 406 269 q 403 278 406 275 l 401 282 m 222 318 q 225 315 225 318 l 225 313 q 211 305 218 311 q 200 293 204 299 q 210 308 204 301 q 222 318 217 314 "},"Á":{"ha":640,"x_min":22,"x_max":618,"o":"m 218 1028 l 294 1208 l 472 1208 l 385 1028 l 218 1028 m 240 94 q 245 97 242 94 q 250 101 249 100 l 260 119 l 258 128 q 261 132 260 132 q 264 124 264 132 q 262 109 264 117 q 254 100 260 101 l 261 51 q 269 39 264 38 q 275 33 274 40 l 286 0 l 22 0 l 228 978 l 413 978 l 618 0 l 371 0 q 374 24 371 14 q 385 44 378 33 l 390 115 l 396 143 l 396 168 q 398 187 396 172 q 401 206 400 201 l 410 207 l 414 211 l 421 211 q 429 224 428 217 q 436 238 431 232 l 436 256 q 442 261 442 257 q 446 269 442 267 l 454 307 q 456 311 456 308 l 456 315 q 455 322 456 319 q 450 328 454 324 l 450 343 l 447 356 q 447 359 447 356 q 444 369 446 363 q 442 374 444 371 q 440 376 440 376 l 440 381 q 439 385 440 383 l 439 389 l 446 389 q 445 392 446 390 q 444 393 444 393 l 446 432 q 434 452 442 447 q 417 468 426 457 l 425 490 q 429 500 428 493 q 432 507 431 507 q 440 517 433 511 q 456 530 447 524 q 470 542 464 536 q 476 553 476 549 q 466 551 471 553 q 457 549 461 549 q 443 556 447 549 q 437 570 439 563 q 433 585 435 578 q 429 592 432 592 l 428 592 q 426 560 428 575 q 419 529 425 544 q 413 510 417 526 q 406 486 408 493 q 393 475 399 475 q 378 478 388 475 q 369 488 369 482 l 369 489 q 371 491 369 489 q 372 494 372 493 l 365 538 q 354 561 363 551 q 331 571 346 571 q 298 556 310 571 q 286 522 286 542 l 296 479 q 288 476 296 476 q 276 472 281 476 q 271 463 274 465 q 245 438 256 453 q 235 403 235 422 l 235 400 q 236 397 235 397 q 240 397 236 397 q 246 396 244 396 l 236 368 l 236 361 q 223 346 228 354 q 211 331 218 338 l 178 297 q 194 306 183 297 l 229 343 l 235 344 l 236 343 q 228 334 236 339 q 217 325 221 329 l 207 313 l 186 293 q 174 288 181 290 q 161 285 168 285 l 149 286 q 142 281 144 286 q 135 271 139 276 q 126 260 132 265 q 111 256 121 256 l 107 256 l 117 249 l 117 247 q 108 245 114 246 q 99 242 103 244 l 117 242 l 114 207 l 115 207 l 121 238 q 126 248 122 243 q 133 253 129 253 q 139 250 136 253 q 146 247 142 247 l 150 247 l 192 276 q 197 282 193 282 l 196 282 q 199 283 196 282 q 207 285 201 283 q 210 290 210 286 q 213 297 211 294 q 213 297 213 297 q 214 294 214 296 q 210 274 214 283 q 204 256 206 265 l 210 246 q 208 235 210 240 q 207 228 207 231 q 214 207 207 221 q 225 193 221 193 l 226 193 q 231 200 231 193 l 222 222 l 225 222 l 228 214 l 231 213 q 235 222 235 213 l 232 243 q 235 249 232 246 l 258 294 l 260 290 l 260 285 q 251 269 260 271 l 246 243 l 246 181 l 247 181 l 247 178 q 247 170 247 176 q 244 163 246 164 l 242 124 q 246 131 243 124 q 251 148 249 139 q 254 165 253 157 q 256 176 256 174 l 256 181 l 260 189 q 261 172 261 188 l 261 156 q 262 154 261 156 q 263 151 263 153 q 262 149 263 150 q 261 147 261 147 l 251 138 l 253 117 q 246 104 251 114 q 240 94 240 94 m 331 136 l 333 132 l 333 83 q 332 74 333 79 q 331 64 331 69 l 333 54 q 331 46 333 49 l 331 18 q 332 0 331 1 l 328 0 q 326 21 326 1 l 326 72 q 325 78 326 76 l 326 90 q 326 100 326 94 q 324 113 325 106 q 326 124 324 117 q 331 136 329 132 m 401 340 l 406 344 q 410 326 410 336 q 411 306 411 315 q 401 321 401 306 l 401 340 m 185 282 q 176 274 181 275 q 164 269 171 272 l 161 268 q 152 260 156 265 q 142 256 149 256 q 147 264 142 260 q 160 271 153 268 q 174 276 167 274 q 185 282 181 279 m 401 282 l 407 289 l 410 286 l 408 269 l 406 269 q 403 278 406 275 l 401 282 m 222 318 q 225 315 225 318 l 225 313 q 211 305 218 311 q 200 293 204 299 q 210 308 204 301 q 222 318 217 314 "},"Â":{"ha":640,"x_min":22,"x_max":618,"o":"m 439 1208 l 521 1028 l 354 1028 l 319 1099 l 286 1028 l 119 1028 l 201 1208 l 439 1208 m 240 94 q 245 97 242 94 q 250 101 249 100 l 260 119 l 258 128 q 261 132 260 132 q 264 124 264 132 q 262 109 264 117 q 254 100 260 101 l 261 51 q 269 39 264 38 q 275 33 274 40 l 286 0 l 22 0 l 228 978 l 413 978 l 618 0 l 371 0 q 374 24 371 14 q 385 44 378 33 l 390 115 l 396 143 l 396 168 q 398 187 396 172 q 401 206 400 201 l 410 207 l 414 211 l 421 211 q 429 224 428 217 q 436 238 431 232 l 436 256 q 442 261 442 257 q 446 269 442 267 l 454 307 q 456 311 456 308 l 456 315 q 455 322 456 319 q 450 328 454 324 l 450 343 q 448 353 449 350 q 447 356 447 357 q 447 359 447 356 q 444 369 446 363 q 442 374 444 371 q 440 376 440 376 l 440 381 q 439 385 440 383 l 439 389 l 446 389 q 445 392 446 390 q 444 393 444 393 l 446 432 q 434 452 442 447 q 417 468 426 457 q 421 479 418 471 q 425 490 424 488 q 429 500 428 493 q 432 507 431 507 q 440 517 433 511 q 456 530 447 524 q 470 542 464 536 q 476 553 476 549 q 466 551 471 553 q 457 549 461 549 q 443 556 447 549 q 437 570 439 563 q 433 585 435 578 q 429 592 432 592 l 428 592 q 426 560 428 575 q 419 529 425 544 q 413 510 417 526 q 406 486 408 493 q 393 475 399 475 q 378 478 388 475 q 369 488 369 482 l 369 489 q 371 491 369 489 q 372 494 372 493 l 365 538 q 354 561 363 551 q 331 571 346 571 q 298 556 310 571 q 286 522 286 542 l 296 479 q 288 476 296 476 q 276 472 281 476 q 271 463 274 465 q 245 438 256 453 q 235 403 235 422 l 235 400 q 236 397 235 397 q 240 397 236 397 q 246 396 244 396 l 236 368 l 236 361 q 223 346 228 354 q 211 331 218 338 l 178 297 q 187 301 182 297 q 196 307 192 304 l 229 343 l 235 344 l 236 343 q 228 334 236 339 q 217 325 221 329 l 207 313 l 186 293 q 174 288 181 290 q 161 285 168 285 l 149 286 q 142 281 144 286 q 135 271 139 276 q 126 260 132 265 q 111 256 121 256 l 107 256 l 117 249 l 117 247 q 108 245 114 246 q 99 242 103 244 l 117 242 l 114 207 l 115 207 l 121 238 q 126 248 122 243 q 133 253 129 253 q 139 250 136 253 q 146 247 142 247 l 150 247 l 192 276 q 197 282 193 282 q 197 283 194 282 q 207 285 200 283 q 210 290 210 286 q 213 297 211 294 q 213 297 213 297 q 214 294 214 296 q 210 274 214 283 q 204 256 206 265 q 207 251 204 253 q 210 246 210 249 q 208 235 210 240 q 207 228 207 231 q 214 207 207 221 q 225 193 221 193 l 226 193 q 231 200 231 193 l 222 222 l 225 222 l 228 214 l 231 213 q 235 222 235 213 l 232 243 q 235 249 232 246 l 258 294 l 260 292 q 259 279 260 288 q 251 269 258 271 l 246 243 l 246 181 l 247 181 l 247 178 q 247 170 247 176 q 244 163 246 164 l 242 124 q 246 131 243 124 q 251 148 249 139 q 254 165 253 157 q 256 176 256 174 l 256 181 l 260 189 q 261 172 261 188 l 261 156 q 262 154 261 156 q 263 151 263 153 q 262 149 263 150 q 261 147 261 147 l 251 138 l 253 117 q 246 104 251 114 q 240 94 240 94 m 331 136 l 333 132 l 333 83 q 332 74 333 79 q 331 64 331 69 l 333 54 q 331 46 333 49 l 331 35 l 331 18 q 332 0 331 1 l 328 0 q 326 21 326 1 l 326 43 l 326 72 q 325 78 326 76 l 326 90 q 326 100 326 94 q 324 113 325 106 q 326 124 324 117 q 331 136 329 132 m 401 340 l 406 344 q 410 326 410 336 q 411 306 411 315 q 401 321 401 306 l 401 340 m 185 282 q 176 274 181 275 q 164 269 171 272 l 161 268 q 152 260 156 265 q 142 256 149 256 q 147 264 142 260 q 160 271 153 268 q 174 276 167 274 q 185 282 181 279 m 401 282 l 407 289 l 410 286 l 408 269 l 406 269 q 403 278 406 275 l 401 282 m 222 318 q 225 315 225 318 l 226 314 l 225 314 l 225 313 q 211 305 218 311 q 200 293 204 299 q 210 308 204 301 q 222 318 217 314 "},"Ã":{"ha":640,"x_min":22,"x_max":618,"o":"m 279 1028 l 246 1099 l 214 1028 l 114 1028 l 196 1208 l 363 1208 l 394 1138 l 426 1208 l 526 1208 l 444 1028 l 279 1028 m 240 94 q 245 97 242 94 q 250 101 249 100 l 260 119 l 258 128 q 261 132 260 132 q 264 124 264 132 q 262 109 264 117 q 254 100 260 101 l 261 51 q 269 39 264 38 q 275 33 274 40 l 286 0 l 22 0 l 228 978 l 413 978 l 618 0 l 371 0 q 374 24 371 14 q 385 44 378 33 l 390 115 l 396 143 l 396 168 q 398 187 396 172 q 401 206 400 201 l 410 207 l 414 211 l 421 211 q 429 224 428 217 q 436 238 431 232 l 436 256 q 442 261 442 257 q 446 269 442 267 l 454 307 q 456 311 456 308 l 456 315 q 455 322 456 319 q 450 328 454 324 l 450 343 q 448 353 449 350 q 447 356 447 357 q 447 359 447 356 q 444 369 446 363 q 442 374 444 371 q 440 376 440 376 l 440 381 q 439 385 440 383 l 439 389 l 446 389 q 445 392 446 390 q 444 393 444 393 l 446 432 q 434 452 442 447 q 417 468 426 457 l 425 490 q 429 500 428 493 q 432 507 431 507 q 440 517 433 511 q 456 530 447 524 q 470 542 464 536 q 476 553 476 549 q 466 551 471 553 q 457 549 461 549 q 443 556 447 549 q 437 570 439 563 q 433 585 435 578 q 429 592 432 592 l 428 592 q 426 560 428 575 q 419 529 425 544 q 413 510 417 526 q 406 486 408 493 q 393 475 399 475 q 378 478 388 475 q 369 488 369 482 l 369 489 q 371 491 369 489 q 372 494 372 493 l 365 538 q 354 561 363 551 q 331 571 346 571 q 298 556 310 571 q 286 522 286 542 l 296 479 q 288 476 296 476 q 276 472 281 476 q 271 463 274 465 q 245 438 256 453 q 235 403 235 422 l 235 400 q 236 397 235 397 q 240 397 236 397 q 246 396 244 396 l 236 368 l 236 361 q 223 346 228 354 q 211 331 218 338 l 178 297 q 194 306 183 297 l 229 343 l 235 344 l 236 343 q 228 334 236 339 q 217 325 221 329 l 207 313 l 186 293 q 174 288 181 290 q 161 285 168 285 l 149 286 q 142 281 144 286 q 135 271 139 276 q 126 260 132 265 q 111 256 121 256 l 107 256 l 117 249 l 117 247 q 108 245 114 246 q 99 242 103 244 l 117 242 l 114 207 l 115 207 l 121 238 q 126 248 122 243 q 133 253 129 253 q 139 250 136 253 q 146 247 142 247 l 150 247 l 192 276 q 197 282 193 282 q 197 283 194 282 q 207 285 200 283 q 210 290 210 286 q 213 297 211 294 q 213 297 213 297 q 214 294 214 296 q 210 274 214 283 q 204 256 206 265 l 210 246 q 208 235 210 240 q 207 228 207 231 q 214 207 207 221 q 225 193 221 193 l 226 193 q 231 200 231 193 l 222 222 l 225 222 l 228 214 l 231 213 q 235 222 235 213 l 232 243 q 235 249 232 246 l 258 294 l 260 290 q 259 278 260 285 q 251 269 258 271 l 246 243 l 246 181 l 247 181 l 247 178 q 247 170 247 176 q 244 163 246 164 l 242 124 q 246 131 243 124 q 251 148 249 139 q 254 165 253 157 q 256 176 256 174 l 256 181 l 260 189 q 261 172 261 188 l 261 156 q 262 154 261 156 q 263 151 263 153 q 262 149 263 150 q 261 147 261 147 l 251 138 l 253 117 q 246 104 251 114 q 240 94 240 94 m 331 136 l 333 132 l 333 83 q 332 74 333 79 q 331 64 331 69 l 333 54 q 331 46 333 49 l 331 18 q 332 0 331 1 l 328 0 q 326 21 326 1 l 326 72 q 325 78 326 76 l 326 90 q 326 100 326 94 q 324 113 325 106 q 326 124 324 117 q 331 136 329 132 m 401 340 l 406 344 q 410 326 410 336 q 411 306 411 315 q 401 321 401 306 l 401 340 m 185 282 q 176 274 181 275 q 164 269 171 272 l 161 268 q 152 260 156 265 q 142 256 149 256 q 147 264 142 260 q 160 271 153 268 q 174 276 167 274 q 185 282 181 279 m 401 282 l 407 289 l 410 286 l 408 269 l 406 269 q 403 278 406 275 l 401 282 m 222 318 q 225 315 225 318 l 225 313 q 211 305 218 311 q 200 293 204 299 q 210 308 204 301 q 222 318 217 314 "},"Ä":{"ha":640,"x_min":22,"x_max":618,"o":"m 518 1208 l 518 1028 l 340 1028 l 340 1208 l 518 1208 m 300 1208 l 300 1028 l 122 1028 l 122 1208 l 300 1208 m 240 94 q 245 97 242 94 q 250 101 249 100 l 260 119 l 258 128 q 261 132 260 132 q 264 124 264 132 q 262 109 264 117 q 254 100 260 101 l 261 51 q 269 39 264 38 q 275 33 274 40 l 286 0 l 22 0 l 228 978 l 413 978 l 618 0 l 371 0 q 374 24 371 14 q 385 44 378 33 l 390 115 l 396 143 l 396 168 q 398 187 396 172 q 401 206 400 201 l 410 207 l 414 211 l 421 211 q 429 224 428 217 q 436 238 431 232 l 436 256 q 442 261 442 257 q 446 269 442 267 l 454 307 q 456 311 456 308 l 456 315 q 455 322 456 319 q 450 328 454 324 l 450 343 q 448 353 449 350 q 447 356 447 357 q 447 359 447 356 q 444 369 446 363 q 442 374 444 371 q 440 376 440 376 l 440 381 q 439 385 440 383 l 439 389 l 446 389 q 445 392 446 390 q 444 393 444 393 l 446 432 q 434 452 442 447 q 417 468 426 457 q 421 479 418 471 q 425 490 424 488 q 429 500 428 493 q 432 507 431 507 q 440 517 433 511 q 456 530 447 524 q 470 542 464 536 q 476 553 476 549 q 466 551 471 553 q 457 549 461 549 q 443 556 447 549 q 437 570 439 563 q 433 585 435 578 q 429 592 432 592 l 428 592 q 426 560 428 575 q 419 529 425 544 q 413 510 417 526 q 406 486 408 493 q 393 475 399 475 q 378 478 388 475 q 369 488 369 482 l 369 489 q 371 491 369 489 q 372 494 372 493 l 365 538 q 354 561 363 551 q 331 571 346 571 q 298 556 310 571 q 286 522 286 542 l 296 479 q 288 476 296 476 q 276 472 281 476 q 271 463 274 465 q 245 438 256 453 q 235 403 235 422 l 235 400 q 236 397 235 397 q 240 397 236 397 q 246 396 244 396 l 236 368 l 236 361 q 223 346 228 354 q 211 331 218 338 l 178 297 q 187 301 182 297 q 196 307 192 304 l 229 343 l 235 344 l 236 343 q 228 334 236 339 q 217 325 221 329 l 207 313 l 186 293 q 174 288 181 290 q 161 285 168 285 l 149 286 q 142 281 144 286 q 135 271 139 276 q 126 260 132 265 q 111 256 121 256 l 107 256 l 117 249 l 117 247 q 108 245 114 246 q 99 242 103 244 l 117 242 l 114 207 l 115 207 l 121 238 q 126 248 122 243 q 133 253 129 253 q 139 250 136 253 q 146 247 142 247 l 150 247 l 192 276 q 197 282 193 282 q 197 283 194 282 q 207 285 200 283 q 210 290 210 286 q 213 297 211 294 q 213 297 213 297 q 214 294 214 296 q 210 274 214 283 q 204 256 206 265 q 207 251 204 253 q 210 246 210 249 q 208 235 210 240 q 207 228 207 231 q 214 207 207 221 q 225 193 221 193 l 226 193 q 231 200 231 193 l 222 222 l 225 222 l 228 214 l 231 213 q 235 222 235 213 l 232 243 q 235 249 232 246 l 258 294 l 260 292 q 259 279 260 288 q 251 269 258 271 l 246 243 l 246 181 l 247 181 l 247 178 q 247 170 247 176 q 244 163 246 164 l 242 124 q 246 131 243 124 q 251 148 249 139 q 254 165 253 157 q 256 176 256 174 l 256 181 l 260 189 q 261 172 261 188 l 261 156 q 262 154 261 156 q 263 151 263 153 q 262 149 263 150 q 261 147 261 147 l 251 138 l 253 117 q 246 104 251 114 q 240 94 240 94 m 331 136 l 333 132 l 333 83 q 332 74 333 79 q 331 64 331 69 l 333 54 q 331 46 333 49 l 331 35 l 331 18 q 332 0 331 1 l 328 0 q 326 21 326 1 l 326 43 l 326 72 q 325 78 326 76 l 326 90 q 326 100 326 94 q 324 113 325 106 q 326 124 324 117 q 331 136 329 132 m 401 340 l 406 344 q 410 326 410 336 q 411 306 411 315 q 401 321 401 306 l 401 340 m 185 282 q 176 274 181 275 q 164 269 171 272 l 161 268 q 152 260 156 265 q 142 256 149 256 q 147 264 142 260 q 160 271 153 268 q 174 276 167 274 q 185 282 181 279 m 401 282 l 407 289 l 410 286 l 408 269 l 406 269 q 403 278 406 275 l 401 282 m 222 318 q 225 315 225 318 l 226 314 l 225 314 l 225 313 q 211 305 218 311 q 200 293 204 299 q 210 308 204 301 q 222 318 217 314 "},"Å":{"ha":640,"x_min":22,"x_max":618,"o":"m 231 1028 l 231 1208 l 408 1208 l 408 1028 l 231 1028 m 296 1147 l 296 1089 l 344 1089 l 344 1147 l 296 1147 m 240 94 q 245 97 242 94 q 250 101 249 100 l 260 119 l 258 128 q 261 132 260 132 q 264 124 264 132 q 262 109 264 117 q 254 100 260 101 l 261 51 q 269 39 264 38 q 275 33 274 40 l 286 0 l 22 0 l 228 978 l 413 978 l 618 0 l 371 0 q 374 24 371 14 q 385 44 378 33 l 390 115 l 396 143 l 396 168 q 398 187 396 172 q 401 206 400 201 l 410 207 l 414 211 l 421 211 q 429 224 428 217 q 436 238 431 232 l 436 256 q 442 261 442 257 q 446 269 442 267 l 454 307 q 456 311 456 308 l 456 315 q 455 322 456 319 q 450 328 454 324 l 450 343 q 448 353 449 350 q 447 356 447 357 q 447 359 447 356 q 444 369 446 363 q 442 374 444 371 q 440 376 440 376 l 440 381 q 439 385 440 383 l 439 389 l 446 389 q 445 392 446 390 q 444 393 444 393 l 446 432 q 434 452 442 447 q 417 468 426 457 l 425 490 q 429 500 428 493 q 432 507 431 507 q 440 517 433 511 q 456 530 447 524 q 470 542 464 536 q 476 553 476 549 q 466 551 471 553 q 457 549 461 549 q 443 556 447 549 q 437 570 439 563 q 433 585 435 578 q 429 592 432 592 l 428 592 q 426 560 428 575 q 419 529 425 544 q 413 510 417 526 q 406 486 408 493 q 393 475 399 475 q 378 478 388 475 q 369 488 369 482 l 369 489 q 371 491 369 489 q 372 494 372 493 l 365 538 q 354 561 363 551 q 331 571 346 571 q 298 556 310 571 q 286 522 286 542 l 296 479 q 288 476 296 476 q 276 472 281 476 q 271 463 274 465 q 245 438 256 453 q 235 403 235 422 l 235 400 q 236 397 235 397 q 240 397 236 397 q 246 396 244 396 l 236 368 l 236 361 q 223 346 228 354 q 211 331 218 338 l 178 297 q 194 306 183 297 l 196 307 l 229 343 l 235 344 l 236 343 q 228 334 236 339 q 217 325 221 329 l 207 313 l 186 293 q 174 288 181 290 q 161 285 168 285 l 149 286 q 142 281 144 286 q 135 271 139 276 q 126 260 132 265 q 111 256 121 256 l 107 256 l 117 249 l 117 247 q 108 245 114 246 q 99 242 103 244 l 117 242 l 114 207 l 115 207 l 121 238 q 126 248 122 243 q 133 253 129 253 q 139 250 136 253 q 146 247 142 247 l 150 247 l 192 276 q 197 282 193 282 q 197 283 194 282 q 207 285 200 283 q 210 290 210 286 q 213 297 211 294 q 213 297 213 297 q 214 294 214 296 q 210 274 214 283 q 204 256 206 265 l 210 246 q 208 235 210 240 q 207 228 207 231 q 214 207 207 221 q 225 193 221 193 l 226 193 q 231 200 231 193 l 222 222 l 225 222 l 228 214 l 231 213 q 235 222 235 213 l 232 243 q 235 249 232 246 l 258 294 l 260 290 q 259 278 260 285 q 251 269 258 271 l 246 243 l 246 181 l 247 181 l 247 178 q 247 170 247 176 q 244 163 246 164 l 242 124 q 246 131 243 124 q 251 148 249 139 q 254 165 253 157 q 256 176 256 174 l 256 181 l 260 189 q 261 172 261 188 l 261 156 q 262 154 261 156 q 263 151 263 153 q 262 149 263 150 q 261 147 261 147 l 251 138 l 253 117 q 246 104 251 114 q 240 94 240 94 m 331 136 l 333 132 l 333 83 q 332 74 333 79 q 331 64 331 69 l 333 54 q 331 46 333 49 l 331 18 q 332 0 331 1 l 328 0 q 326 21 326 1 l 326 72 q 325 78 326 76 l 326 90 q 326 100 326 94 q 324 113 325 106 q 326 124 324 117 q 331 136 329 132 m 401 340 l 406 344 q 410 326 410 336 q 411 306 411 315 q 401 321 401 306 l 401 340 m 185 282 q 176 274 181 275 q 164 269 171 272 l 161 268 q 152 260 156 265 q 142 256 149 256 q 147 264 142 260 q 160 271 153 268 q 174 276 167 274 q 185 282 181 279 m 401 282 l 407 289 l 410 286 l 408 269 l 406 269 q 403 278 406 275 l 401 282 m 222 318 q 225 315 225 318 l 225 313 q 211 305 218 311 q 200 293 204 299 q 210 308 204 301 q 222 318 217 314 "},"Æ":{"ha":975,"x_min":22,"x_max":939,"o":"m 240 94 q 246 104 240 94 q 253 117 251 114 l 251 138 l 261 147 q 262 149 261 147 q 263 151 263 150 q 262 154 263 153 q 261 156 261 156 l 261 172 q 260 189 261 188 l 256 181 l 256 176 q 254 165 256 174 q 251 148 253 157 q 246 131 249 139 q 242 124 243 124 l 244 163 q 247 170 246 164 q 247 178 247 176 l 247 181 l 246 181 l 246 243 l 251 269 q 259 279 258 271 q 260 292 260 288 l 258 294 l 235 249 q 232 243 232 246 l 235 222 q 231 213 235 213 l 228 214 l 225 222 l 222 222 l 231 200 q 226 193 231 193 l 225 193 q 214 207 221 193 q 207 228 207 221 q 208 235 207 231 q 210 246 210 240 q 207 251 210 249 q 204 256 204 253 q 210 274 206 265 q 214 294 214 283 q 213 297 214 296 q 213 297 213 297 q 210 290 211 294 q 207 285 210 286 q 197 283 200 283 q 197 282 194 282 q 192 276 193 282 l 150 247 l 146 247 q 139 250 142 247 q 133 253 136 253 q 126 248 129 253 q 121 238 122 243 l 115 207 l 114 207 l 117 242 l 99 242 q 108 245 103 244 q 117 247 114 246 l 117 249 l 107 256 l 111 256 q 126 260 121 256 q 135 271 132 265 q 142 281 139 276 q 149 286 144 286 l 161 285 q 174 288 168 285 q 186 293 181 290 l 207 313 l 217 325 q 228 334 221 329 q 236 343 236 339 l 235 344 l 229 343 l 196 307 q 187 301 192 304 q 178 297 182 297 l 211 331 q 223 346 218 338 q 236 361 228 354 l 236 368 l 246 396 q 240 397 244 396 q 236 397 236 397 q 235 400 235 397 l 235 403 q 245 438 235 422 q 271 463 256 453 q 276 472 274 465 q 288 476 281 476 q 296 479 296 476 l 286 522 q 298 556 286 542 q 331 571 310 571 q 354 561 346 571 q 365 538 363 551 l 372 494 q 371 491 372 493 q 369 489 369 489 l 369 488 q 378 478 369 482 q 393 475 388 475 q 406 486 399 475 q 413 510 408 493 q 419 529 417 526 q 426 560 425 544 q 428 592 428 575 l 429 592 q 433 585 432 592 q 437 570 435 578 q 443 556 439 563 q 457 549 447 549 q 466 551 461 549 q 476 553 471 553 q 470 542 476 549 q 456 530 464 536 q 440 517 447 524 q 432 507 433 511 q 429 500 431 507 q 425 490 428 493 q 421 479 424 488 q 417 468 418 471 q 434 452 426 457 q 446 432 442 447 l 444 393 q 445 392 444 393 q 446 389 446 390 l 439 389 l 439 385 q 440 381 440 383 l 440 376 q 442 374 440 376 q 444 369 444 371 q 447 359 446 363 q 447 356 447 356 q 448 353 447 357 q 450 343 449 350 l 450 328 q 455 322 454 324 q 456 315 456 319 l 456 311 q 454 307 456 308 l 446 269 q 442 261 442 267 q 436 256 442 257 l 436 238 q 429 224 431 232 q 421 211 428 217 l 414 211 l 410 207 l 401 206 q 398 187 400 201 q 396 168 396 172 l 396 143 l 390 115 l 385 44 q 374 24 378 33 q 371 0 371 14 l 939 0 l 939 181 l 693 181 l 693 406 l 897 406 l 897 586 l 693 586 l 693 797 l 939 797 l 939 978 l 515 978 l 515 489 l 413 978 l 228 978 l 22 0 l 286 0 l 275 33 q 269 39 274 40 q 261 51 264 38 l 254 100 q 262 109 260 101 q 264 124 264 117 q 261 132 264 132 q 258 128 260 132 l 260 119 l 250 101 q 245 97 249 100 q 240 94 242 94 m 331 136 q 326 124 329 132 q 324 113 324 117 q 326 100 325 106 q 326 90 326 94 l 325 78 q 326 72 326 76 l 326 21 q 328 0 326 1 l 332 0 q 331 18 331 1 l 331 46 q 333 54 333 49 l 331 64 q 332 74 331 69 q 333 83 333 79 l 333 132 l 331 136 m 401 340 l 401 321 q 411 306 401 306 q 410 326 411 315 q 406 344 410 336 l 401 340 m 185 282 q 174 276 181 279 q 160 271 167 274 q 147 264 153 268 q 142 256 142 260 q 152 260 149 256 q 161 268 156 265 l 164 269 q 176 274 171 272 q 185 282 181 275 m 401 282 l 403 278 q 406 269 406 275 l 408 269 l 410 286 l 407 289 l 401 282 m 222 318 q 210 308 217 314 q 200 293 204 301 q 211 305 204 299 q 225 313 218 311 l 225 314 l 226 314 l 225 315 q 222 318 225 318 "},"Ç":{"ha":496,"x_min":36,"x_max":460,"o":"m 167 -60 l 167 -176 l 340 -176 l 340 0 l 460 0 l 460 181 l 214 181 l 214 797 l 460 797 l 460 978 l 165 978 q 71 951 106 978 q 36 861 36 924 l 36 125 q 69 31 36 63 q 165 0 103 0 l 219 0 l 219 -60 l 167 -60 "},"È":{"ha":496,"x_min":36,"x_max":460,"o":"m 36 978 l 460 978 l 460 797 l 214 797 l 214 586 l 418 586 l 418 406 l 214 406 l 214 181 l 460 181 l 460 0 l 36 0 l 36 978 m 274 1208 l 350 1028 l 183 1028 l 96 1208 l 274 1208 "},"É":{"ha":496,"x_min":36,"x_max":460,"o":"m 400 1208 l 313 1028 l 146 1028 l 222 1208 l 400 1208 m 36 978 l 460 978 l 460 797 l 214 797 l 214 586 l 418 586 l 418 406 l 214 406 l 214 181 l 460 181 l 460 0 l 36 0 l 36 978 "},"Ê":{"ha":496,"x_min":36,"x_max":460,"o":"m 129 1208 l 47 1028 l 214 1028 l 247 1099 l 282 1028 l 449 1028 l 367 1208 l 129 1208 m 36 0 l 460 0 l 460 181 l 214 181 l 214 406 l 418 406 l 418 586 l 214 586 l 214 797 l 460 797 l 460 978 l 36 978 l 36 0 "},"Ë":{"ha":496,"x_min":36,"x_max":460,"o":"m 50 1208 l 50 1028 l 228 1028 l 228 1208 l 50 1208 m 268 1208 l 268 1028 l 446 1028 l 446 1208 l 268 1208 m 36 0 l 460 0 l 460 181 l 214 181 l 214 406 l 418 406 l 418 586 l 214 586 l 214 797 l 460 797 l 460 978 l 36 978 l 36 0 "},"Ì":{"ha":250,"x_min":-26,"x_max":228,"o":"m -26 1208 l 61 1028 l 228 1028 l 151 1208 l -26 1208 m 36 978 l 36 0 l 214 0 l 214 978 l 36 978 "},"Í":{"ha":250,"x_min":24,"x_max":278,"o":"m 100 1208 l 24 1028 l 190 1028 l 278 1208 l 100 1208 m 36 978 l 36 0 l 214 0 l 214 978 l 36 978 "},"Î":{"ha":250,"x_min":-75,"x_max":326,"o":"m 7 1208 l -75 1028 l 92 1028 l 125 1099 l 160 1028 l 326 1028 l 244 1208 l 7 1208 m 36 978 l 36 0 l 214 0 l 214 978 l 36 978 "},"Ï":{"ha":250,"x_min":-72,"x_max":324,"o":"m -72 1208 l -72 1028 l 106 1028 l 106 1208 l -72 1208 m 146 1208 l 146 1028 l 324 1028 l 324 1208 l 146 1208 m 36 978 l 36 0 l 214 0 l 214 978 l 36 978 "},"Ð":{"ha":631,"x_min":36,"x_max":594,"o":"m 36 586 l 96 586 l 96 978 l 465 978 q 561 947 528 978 q 594 853 594 915 l 594 125 q 561 31 594 63 q 465 0 528 0 l 96 0 l 96 406 l 36 406 l 36 586 m 274 797 l 274 586 l 346 586 l 346 406 l 274 406 l 274 181 l 417 181 l 417 797 l 274 797 "},"Ñ":{"ha":567,"x_min":36,"x_max":531,"o":"m 406 1028 l 488 1208 l 388 1208 l 356 1138 l 324 1208 l 157 1208 l 75 1028 l 175 1028 l 207 1099 l 240 1028 l 406 1028 m 531 0 l 531 978 l 354 978 l 354 506 l 181 978 l 36 978 l 36 0 l 213 0 l 213 426 l 386 0 l 531 0 "},"Ò":{"ha":571,"x_min":36,"x_max":535,"o":"m 131 1208 l 218 1028 l 385 1028 l 308 1208 l 131 1208 m 406 0 q 501 31 468 0 q 535 125 535 63 l 535 853 q 501 947 535 915 q 406 978 468 978 l 165 978 q 69 947 103 978 q 36 853 36 915 l 36 125 q 69 31 36 63 q 165 0 103 0 l 406 0 m 225 229 q 218 232 222 232 l 214 235 l 211 239 q 208 242 210 236 q 207 251 207 249 l 206 256 q 205 258 206 257 q 204 260 204 260 l 204 265 l 201 269 q 200 275 200 271 l 200 282 l 200 301 l 217 313 l 214 331 q 200 357 201 340 l 200 367 q 199 369 200 369 l 199 364 q 196 363 199 364 q 193 358 193 361 l 189 357 l 188 342 l 188 318 q 186 308 188 310 l 154 235 q 153 231 153 233 q 151 229 153 229 l 150 232 l 163 269 q 165 278 163 275 q 168 285 167 282 q 174 300 171 292 q 179 315 176 308 q 172 321 179 321 q 168 315 168 321 l 142 238 l 139 235 q 135 238 135 235 l 135 239 l 135 240 q 136 243 135 242 l 142 260 q 142 262 142 261 q 143 264 143 263 l 160 317 q 160 319 160 318 q 161 319 161 319 q 169 333 164 328 q 178 344 174 338 q 182 358 179 349 q 186 367 185 367 l 188 374 l 188 397 l 185 429 q 181 441 185 436 q 172 449 176 446 q 168 447 172 447 q 162 451 165 447 q 156 456 158 454 q 154 461 154 457 q 151 467 154 464 l 150 465 l 150 468 l 150 475 q 147 485 150 474 q 143 491 146 489 q 139 496 140 493 l 135 521 q 133 524 135 524 q 131 528 132 525 l 131 540 q 136 553 131 553 q 144 563 142 554 q 147 580 144 582 q 150 585 150 578 q 151 599 150 592 q 153 615 151 607 l 153 618 q 151 626 153 624 q 150 633 150 629 l 150 653 q 151 669 150 668 q 154 680 151 678 q 163 686 157 682 l 179 704 q 185 708 182 707 q 194 713 189 710 l 199 715 l 199 717 l 200 717 l 206 717 q 208 719 207 717 q 211 722 210 721 q 217 725 214 725 q 221 726 219 725 l 219 731 q 218 749 218 732 l 218 767 l 218 781 q 224 788 218 786 q 225 789 225 788 q 226 792 226 790 q 228 797 226 796 q 236 814 232 811 q 249 819 240 817 l 253 822 l 260 824 q 265 821 263 824 l 272 821 q 290 807 283 817 q 299 786 296 797 q 301 785 300 785 q 303 783 301 786 l 304 767 q 303 763 304 764 l 303 725 q 307 722 303 722 q 313 719 311 721 q 315 713 315 717 q 318 710 315 710 l 319 710 q 337 751 331 729 q 346 793 343 774 q 347 804 346 796 q 350 815 349 813 q 351 819 351 817 l 351 826 q 352 833 351 826 q 356 839 353 839 q 360 831 360 839 l 360 810 q 381 789 361 789 q 388 790 383 789 q 396 790 392 790 q 400 789 400 790 q 397 782 400 785 q 392 776 394 779 q 378 767 389 774 q 365 758 368 761 q 347 735 353 750 q 339 704 342 721 q 342 702 340 703 q 343 701 343 701 q 364 672 358 693 q 369 635 369 650 l 372 633 q 385 625 375 631 q 397 618 394 619 q 413 606 406 613 q 424 596 419 600 q 440 579 429 585 l 443 576 l 446 574 l 451 571 l 451 558 q 453 554 451 556 q 454 550 454 553 q 453 539 454 540 l 451 525 q 446 510 451 515 q 440 506 443 508 q 432 503 436 504 l 431 503 l 431 504 q 437 511 431 507 q 443 526 443 515 q 442 540 443 533 q 433 549 440 546 l 426 551 q 421 556 422 553 q 414 563 419 560 l 410 563 q 400 561 401 563 l 378 558 l 378 553 q 381 550 378 550 q 384 551 383 550 q 386 553 385 553 q 388 551 388 553 q 389 550 389 551 q 396 516 392 533 q 400 482 400 499 l 401 474 q 401 472 401 472 q 400 468 400 471 q 402 456 400 461 q 404 446 404 451 l 404 440 q 394 430 397 435 q 386 418 390 425 q 382 412 383 415 q 378 404 381 408 l 376 414 l 381 431 l 378 428 q 375 424 374 424 q 369 429 369 424 l 369 431 q 373 446 372 435 q 374 460 374 457 l 374 468 l 375 469 q 374 472 375 471 q 374 472 374 472 l 351 517 q 343 535 343 525 q 342 543 343 542 q 336 551 336 549 l 335 551 q 329 549 329 551 l 329 543 q 343 494 338 517 q 360 449 349 472 q 362 447 360 453 q 367 422 364 440 q 377 403 372 411 q 389 383 382 394 q 397 371 397 381 q 401 361 397 368 q 408 344 406 354 l 413 336 l 413 333 q 412 331 413 332 q 411 326 411 329 l 413 311 l 407 315 l 407 314 q 413 302 408 308 q 417 289 417 296 q 414 279 417 282 q 415 272 414 278 q 418 265 417 267 q 419 262 418 263 q 421 260 421 261 q 419 258 421 258 q 418 257 418 257 q 417 259 418 257 q 414 261 417 261 q 410 259 411 261 q 408 256 410 257 l 408 257 q 407 258 408 257 q 406 258 406 260 q 402 255 401 257 q 397 253 403 253 q 398 252 397 253 q 397 251 399 251 l 396 249 q 401 245 400 244 q 406 243 403 246 q 404 240 406 240 l 404 239 l 404 235 l 404 233 q 401 232 404 232 l 396 232 q 394 235 396 235 l 388 231 q 385 232 385 231 q 383 235 385 235 l 378 225 l 378 218 q 381 215 378 215 l 381 214 l 379 214 l 376 214 q 374 218 376 218 q 369 233 374 229 l 363 243 l 356 243 l 356 244 q 353 243 356 243 q 349 249 349 243 q 340 239 343 239 l 335 243 l 331 239 q 333 244 331 242 q 336 253 336 247 q 334 255 336 253 q 329 257 332 257 l 329 256 q 326 242 326 242 q 319 232 326 236 l 317 232 q 314 228 315 232 q 313 225 313 225 q 309 216 311 219 q 306 208 307 213 q 304 203 304 208 q 300 182 301 190 q 297 158 299 174 l 297 154 l 243 154 l 239 165 q 238 172 238 167 l 238 178 q 231 200 236 192 q 227 216 229 206 q 225 229 225 226 m 178 504 q 178 503 178 504 q 179 500 179 501 q 181 499 181 500 l 181 486 q 179 483 179 486 l 179 482 q 185 467 179 472 l 185 472 l 186 472 l 186 482 q 186 485 188 481 q 185 492 185 489 q 186 494 185 494 l 188 494 l 188 499 q 192 507 188 503 q 197 521 197 511 q 190 537 190 528 q 188 553 189 546 l 188 556 q 185 560 188 557 q 181 552 182 556 q 179 544 181 549 l 178 504 m 376 335 l 378 328 q 381 317 378 319 l 383 317 q 389 311 383 311 l 390 311 l 390 321 q 389 337 390 328 q 383 353 388 346 l 382 353 q 379 345 381 350 q 378 338 378 340 q 377 337 378 338 q 376 335 376 336 m 369 358 q 374 353 369 354 q 376 361 376 356 l 376 364 l 369 363 l 369 358 "},"Ó":{"ha":571,"x_min":36,"x_max":535,"o":"m 263 1208 l 186 1028 l 353 1028 l 440 1208 l 263 1208 m 406 0 q 501 31 468 0 q 535 125 535 63 l 535 853 q 501 947 535 915 q 406 978 468 978 l 165 978 q 69 947 103 978 q 36 853 36 915 l 36 125 q 69 31 36 63 q 165 0 103 0 l 406 0 m 225 229 q 218 232 222 232 l 214 235 l 211 239 q 208 242 210 236 q 207 251 207 249 l 206 256 q 205 258 206 257 q 204 260 204 260 l 204 265 l 201 269 q 200 275 200 271 l 200 282 l 200 301 l 217 313 l 214 331 q 200 357 201 340 l 200 367 q 199 369 200 369 l 199 364 q 196 363 199 364 q 193 358 193 361 l 189 357 l 188 342 l 188 318 q 186 308 188 310 l 154 235 q 153 231 153 233 q 151 229 153 229 l 150 232 l 163 269 q 165 278 163 275 q 168 285 167 282 q 174 300 171 292 q 179 315 176 308 q 172 321 179 321 q 168 315 168 321 l 142 238 l 139 235 q 135 238 135 235 l 135 239 l 135 240 q 136 243 135 242 l 142 260 q 142 262 142 261 q 143 264 143 263 l 160 317 q 160 319 160 318 q 161 319 161 319 q 169 333 164 328 q 178 344 174 338 q 182 358 179 349 q 186 367 185 367 l 188 374 l 188 397 l 185 429 q 181 441 185 436 q 172 449 176 446 q 168 447 172 447 q 162 451 165 447 q 156 456 158 454 q 154 461 154 457 q 151 467 154 464 l 150 465 l 150 468 l 150 475 q 147 485 150 474 q 143 491 146 489 q 139 496 140 493 l 135 521 q 133 524 135 524 q 131 528 132 525 l 131 540 q 136 553 131 553 q 144 563 142 554 q 147 580 144 582 q 150 585 150 578 q 151 599 150 592 q 153 615 151 607 l 153 618 q 151 626 153 624 q 150 633 150 629 l 150 653 q 151 669 150 668 q 154 680 151 678 q 163 686 157 682 l 179 704 q 185 708 182 707 q 194 713 189 710 l 199 715 l 199 717 l 200 717 l 206 717 q 208 719 207 717 q 211 722 210 721 q 217 725 214 725 q 221 726 219 725 l 219 731 q 218 749 218 732 l 218 767 l 218 781 q 224 788 218 786 q 225 789 225 788 q 226 792 226 790 q 228 797 226 796 q 236 814 232 811 q 249 819 240 817 l 253 822 l 260 824 q 265 821 263 824 l 272 821 q 290 807 283 817 q 299 786 296 797 q 301 785 300 785 q 303 783 301 786 l 304 767 q 303 763 304 764 l 303 725 q 307 722 303 722 q 313 719 311 721 q 315 713 315 717 q 318 710 315 710 l 319 710 q 337 751 331 729 q 346 793 343 774 q 347 804 346 796 q 350 815 349 813 q 351 819 351 817 l 351 826 q 352 833 351 826 q 356 839 353 839 q 360 831 360 839 l 360 810 q 381 789 361 789 q 388 790 383 789 q 396 790 392 790 q 400 789 400 790 q 397 782 400 785 q 392 776 394 779 q 378 767 389 774 q 365 758 368 761 q 347 735 353 750 q 339 704 342 721 q 342 702 340 703 q 343 701 343 701 q 364 672 358 693 q 369 635 369 650 l 372 633 q 385 625 375 631 q 397 618 394 619 q 413 606 406 613 q 424 596 419 600 q 440 579 429 585 l 443 576 l 446 574 l 451 571 l 451 558 q 453 554 451 556 q 454 550 454 553 q 453 539 454 540 l 451 525 q 446 510 451 515 q 440 506 443 508 q 432 503 436 504 l 431 503 l 431 504 q 437 511 431 507 q 443 526 443 515 q 442 540 443 533 q 433 549 440 546 l 426 551 q 421 556 422 553 q 414 563 419 560 l 410 563 q 400 561 401 563 l 378 558 l 378 553 q 381 550 378 550 q 384 551 383 550 q 386 553 385 553 q 388 551 388 553 q 389 550 389 551 q 396 516 392 533 q 400 482 400 499 l 401 474 q 401 472 401 472 q 400 468 400 471 q 402 456 400 461 q 404 446 404 451 l 404 440 q 394 430 397 435 q 386 418 390 425 q 382 412 383 415 q 378 404 381 408 l 376 414 l 381 431 l 378 428 q 375 424 374 424 q 369 429 369 424 l 369 431 q 373 446 372 435 q 374 460 374 457 l 374 468 l 375 469 q 374 472 375 471 q 374 472 374 472 l 351 517 q 343 535 343 525 q 342 543 343 542 q 336 551 336 549 l 335 551 q 329 549 329 551 l 329 543 q 343 494 338 517 q 360 449 349 472 q 362 447 360 453 q 367 422 364 440 q 377 403 372 411 q 389 383 382 394 q 397 371 397 381 q 401 361 397 368 q 408 344 406 354 l 413 336 l 413 333 q 412 331 413 332 q 411 326 411 329 l 413 311 l 407 315 l 407 314 q 413 302 408 308 q 417 289 417 296 q 414 279 417 282 q 415 272 414 278 q 418 265 417 267 q 419 262 418 263 q 421 260 421 261 q 419 258 421 258 q 418 257 418 257 q 417 259 418 257 q 414 261 417 261 q 410 259 411 261 q 408 256 410 257 l 408 257 q 407 258 408 257 q 406 258 406 260 q 402 255 401 257 q 397 253 403 253 q 398 252 397 253 q 397 251 399 251 l 396 249 q 401 245 400 244 q 406 243 403 246 q 404 240 406 240 l 404 239 l 404 235 l 404 233 q 401 232 404 232 l 396 232 q 394 235 396 235 l 388 231 q 385 232 385 231 q 383 235 385 235 l 378 225 l 378 218 q 381 215 378 215 l 381 214 l 379 214 l 376 214 q 374 218 376 218 q 369 233 374 229 l 363 243 l 356 243 l 356 244 q 353 243 356 243 q 349 249 349 243 q 340 239 343 239 l 335 243 l 331 239 q 333 244 331 242 q 336 253 336 247 q 334 255 336 253 q 329 257 332 257 l 329 256 q 326 242 326 242 q 319 232 326 236 l 317 232 q 314 228 315 232 q 313 225 313 225 q 309 216 311 219 q 306 208 307 213 q 304 203 304 208 q 300 182 301 190 q 297 158 299 174 l 297 154 l 243 154 l 239 165 q 238 172 238 167 l 238 178 q 231 200 236 192 q 227 216 229 206 q 225 229 225 226 m 178 504 q 178 503 178 504 q 179 500 179 501 q 181 499 181 500 l 181 486 q 179 483 179 486 l 179 482 q 185 467 179 472 l 185 472 l 186 472 l 186 482 q 186 485 188 481 q 185 492 185 489 q 186 494 185 494 l 188 494 l 188 499 q 192 507 188 503 q 197 521 197 511 q 190 537 190 528 q 188 553 189 546 l 188 556 q 185 560 188 557 q 181 552 182 556 q 179 544 181 549 l 178 504 m 376 335 l 378 328 q 381 317 378 319 l 383 317 q 389 311 383 311 l 390 311 l 390 321 q 389 337 390 328 q 383 353 388 346 l 382 353 q 379 345 381 350 q 378 338 378 340 q 377 337 378 338 q 376 335 376 336 m 369 358 q 374 353 369 354 q 376 361 376 356 l 376 364 l 369 363 l 369 358 "},"Ô":{"ha":571,"x_min":36,"x_max":535,"o":"m 167 1208 l 85 1028 l 251 1028 l 285 1099 l 319 1028 l 486 1028 l 404 1208 l 167 1208 m 406 0 q 501 31 468 0 q 535 125 535 63 l 535 853 q 501 947 535 915 q 406 978 468 978 l 165 978 q 69 947 103 978 q 36 853 36 915 l 36 125 q 69 31 36 63 q 165 0 103 0 l 406 0 m 225 229 q 218 232 222 232 l 214 235 l 211 239 q 208 242 210 236 q 207 251 207 249 l 206 256 q 205 258 206 257 q 204 260 204 260 l 204 265 l 201 269 q 200 275 200 271 l 200 282 l 200 301 l 217 313 l 214 331 q 200 357 201 340 l 200 367 q 199 369 200 369 l 199 364 q 196 363 199 364 q 193 358 193 361 l 189 357 l 188 342 l 188 318 q 186 308 188 310 l 154 235 q 153 231 153 233 q 151 229 153 229 l 150 232 l 163 269 q 165 278 163 275 q 168 285 167 282 q 174 300 171 292 q 179 315 176 308 q 172 321 179 321 q 168 315 168 321 l 142 238 l 139 235 q 135 238 135 235 l 135 239 l 135 240 q 136 243 135 242 l 142 260 q 142 262 142 261 q 143 264 143 263 l 160 317 q 160 319 160 318 q 161 319 161 319 q 169 333 164 328 q 178 344 174 338 q 182 358 179 349 q 186 367 185 367 l 188 374 l 188 397 l 185 429 q 181 441 185 436 q 172 449 176 446 q 168 447 172 447 q 162 451 165 447 q 156 456 158 454 q 154 461 154 457 q 151 467 154 464 l 150 465 l 150 468 l 150 475 q 147 485 150 474 q 143 491 146 489 q 139 496 140 493 l 135 521 q 133 524 135 524 q 131 528 132 525 l 131 540 q 136 553 131 553 q 144 563 142 554 q 147 580 144 582 q 150 585 150 578 q 151 599 150 592 q 153 615 151 607 l 153 618 q 151 626 153 624 q 150 633 150 629 l 150 653 q 151 669 150 668 q 154 680 151 678 q 163 686 157 682 l 179 704 q 185 708 182 707 q 194 713 189 710 l 199 715 l 199 717 l 200 717 l 206 717 q 208 719 207 717 q 211 722 210 721 q 217 725 214 725 q 221 726 219 725 l 219 731 q 218 749 218 732 l 218 767 l 218 781 q 224 788 218 786 q 225 789 225 788 q 226 792 226 790 q 228 797 226 796 q 236 814 232 811 q 249 819 240 817 l 253 822 l 260 824 q 265 821 263 824 l 272 821 q 290 807 283 817 q 299 786 296 797 q 301 785 300 785 q 303 783 301 786 l 304 767 q 303 763 304 764 l 303 725 q 307 722 303 722 q 313 719 311 721 q 315 713 315 717 q 318 710 315 710 l 319 710 q 337 751 331 729 q 346 793 343 774 q 347 804 346 796 q 350 815 349 813 q 351 819 351 817 l 351 826 q 352 833 351 826 q 356 839 353 839 q 360 831 360 839 l 360 810 q 381 789 361 789 q 388 790 383 789 q 396 790 392 790 q 400 789 400 790 q 397 782 400 785 q 392 776 394 779 q 378 767 389 774 q 365 758 368 761 q 347 735 353 750 q 339 704 342 721 q 342 702 340 703 q 343 701 343 701 q 364 672 358 693 q 369 635 369 650 l 372 633 q 385 625 375 631 q 397 618 394 619 q 413 606 406 613 q 424 596 419 600 q 440 579 429 585 l 443 576 l 446 574 l 451 571 l 451 558 q 453 554 451 556 q 454 550 454 553 q 453 539 454 540 l 451 525 q 446 510 451 515 q 440 506 443 508 q 432 503 436 504 l 431 503 l 431 504 q 437 511 431 507 q 443 526 443 515 q 442 540 443 533 q 433 549 440 546 l 426 551 q 421 556 422 553 q 414 563 419 560 l 410 563 q 400 561 401 563 l 378 558 l 378 553 q 381 550 378 550 q 384 551 383 550 q 386 553 385 553 q 388 551 388 553 q 389 550 389 551 q 396 516 392 533 q 400 482 400 499 l 401 474 q 401 472 401 472 q 400 468 400 471 q 402 456 400 461 q 404 446 404 451 l 404 440 q 394 430 397 435 q 386 418 390 425 q 382 412 383 415 q 378 404 381 408 l 376 414 l 381 431 l 378 428 q 375 424 374 424 q 369 429 369 424 l 369 431 q 373 446 372 435 q 374 460 374 457 l 374 468 l 375 469 q 374 472 375 471 q 374 472 374 472 l 351 517 q 343 535 343 525 q 342 543 343 542 q 336 551 336 549 l 335 551 q 329 549 329 551 l 329 543 q 343 494 338 517 q 360 449 349 472 q 362 447 360 453 q 367 422 364 440 q 377 403 372 411 q 389 383 382 394 q 397 371 397 381 q 401 361 397 368 q 408 344 406 354 l 413 336 l 413 333 q 412 331 413 332 q 411 326 411 329 l 413 311 l 407 315 l 407 314 q 413 302 408 308 q 417 289 417 296 q 414 279 417 282 q 415 272 414 278 q 418 265 417 267 q 419 262 418 263 q 421 260 421 261 q 419 258 421 258 q 418 257 418 257 q 417 259 418 257 q 414 261 417 261 q 410 259 411 261 q 408 256 410 257 l 408 257 q 407 258 408 257 q 406 258 406 260 q 402 255 401 257 q 397 253 403 253 q 398 252 397 253 q 397 251 399 251 l 396 249 q 401 245 400 244 q 406 243 403 246 q 404 240 406 240 l 404 239 l 404 235 l 404 233 q 401 232 404 232 l 396 232 q 394 235 396 235 l 388 231 q 385 232 385 231 q 383 235 385 235 l 378 225 l 378 218 q 381 215 378 215 l 381 214 l 379 214 l 376 214 q 374 218 376 218 q 369 233 374 229 l 363 243 l 356 243 l 356 244 q 353 243 356 243 q 349 249 349 243 q 340 239 343 239 l 335 243 l 331 239 q 333 244 331 242 q 336 253 336 247 q 334 255 336 253 q 329 257 332 257 l 329 256 q 326 242 326 242 q 319 232 326 236 l 317 232 q 314 228 315 232 q 313 225 313 225 q 309 216 311 219 q 306 208 307 213 q 304 203 304 208 q 300 182 301 190 q 297 158 299 174 l 297 154 l 243 154 l 239 165 q 238 172 238 167 l 238 178 q 231 200 236 192 q 227 216 229 206 q 225 229 225 226 m 178 504 q 178 503 178 504 q 179 500 179 501 q 181 499 181 500 l 181 486 q 179 483 179 486 l 179 482 q 185 467 179 472 l 185 472 l 186 472 l 186 482 q 186 485 188 481 q 185 492 185 489 q 186 494 185 494 l 188 494 l 188 499 q 192 507 188 503 q 197 521 197 511 q 190 537 190 528 q 188 553 189 546 l 188 556 q 185 560 188 557 q 181 552 182 556 q 179 544 181 549 l 178 504 m 376 335 l 378 328 q 381 317 378 319 l 383 317 q 389 311 383 311 l 390 311 l 390 321 q 389 337 390 328 q 383 353 388 346 l 382 353 q 379 345 381 350 q 378 338 378 340 q 377 337 378 338 q 376 335 376 336 m 369 358 q 374 353 369 354 q 376 361 376 356 l 376 364 l 369 363 l 369 358 "},"Õ":{"ha":571,"x_min":36,"x_max":535,"o":"m 410 1028 l 492 1208 l 392 1208 l 360 1138 l 328 1208 l 161 1208 l 79 1028 l 179 1028 l 211 1099 l 244 1028 l 410 1028 m 406 0 q 501 31 468 0 q 535 125 535 63 l 535 853 q 501 947 535 915 q 406 978 468 978 l 165 978 q 69 947 103 978 q 36 853 36 915 l 36 125 q 69 31 36 63 q 165 0 103 0 l 406 0 m 225 229 q 218 232 222 232 l 214 235 l 211 239 q 208 242 210 236 q 207 251 207 249 l 206 256 q 205 258 206 257 q 204 260 204 260 l 204 265 l 201 269 q 200 275 200 271 l 200 282 l 200 301 l 217 313 l 214 331 q 200 357 201 340 l 200 367 q 199 369 200 369 l 199 364 q 196 363 199 364 q 193 358 193 361 l 189 357 l 188 342 l 188 318 q 186 308 188 310 l 154 235 q 153 231 153 233 q 151 229 153 229 l 150 232 l 163 269 q 165 278 163 275 q 168 285 167 282 q 174 300 171 292 q 179 315 176 308 q 172 321 179 321 q 168 315 168 321 l 142 238 l 139 235 q 135 238 135 235 l 135 239 l 135 240 q 136 243 135 242 l 142 260 q 142 262 142 261 q 143 264 143 263 l 160 317 q 160 319 160 318 q 161 319 161 319 q 169 333 164 328 q 178 344 174 338 q 182 358 179 349 q 186 367 185 367 l 188 374 l 188 397 l 185 429 q 181 441 185 436 q 172 449 176 446 q 168 447 172 447 q 162 451 165 447 q 156 456 158 454 q 154 461 154 457 q 151 467 154 464 l 150 465 l 150 468 l 150 475 q 147 485 150 474 q 143 491 146 489 q 139 496 140 493 l 135 521 q 133 524 135 524 q 131 528 132 525 l 131 540 q 136 553 131 553 q 144 563 142 554 q 147 580 144 582 q 150 585 150 578 q 151 599 150 592 q 153 615 151 607 l 153 618 q 151 626 153 624 q 150 633 150 629 l 150 653 q 151 669 150 668 q 154 680 151 678 q 163 686 157 682 l 179 704 q 185 708 182 707 q 194 713 189 710 l 199 715 l 199 717 l 200 717 l 206 717 q 208 719 207 717 q 211 722 210 721 q 217 725 214 725 q 221 726 219 725 l 219 731 q 218 749 218 732 l 218 767 l 218 781 q 224 788 218 786 q 225 789 225 788 q 226 792 226 790 q 228 797 226 796 q 236 814 232 811 q 249 819 240 817 l 253 822 l 260 824 q 265 821 263 824 l 272 821 q 290 807 283 817 q 299 786 296 797 q 301 785 300 785 q 303 783 301 786 l 304 767 q 303 763 304 764 l 303 725 q 307 722 303 722 q 313 719 311 721 q 315 713 315 717 q 318 710 315 710 l 319 710 q 337 751 331 729 q 346 793 343 774 q 347 804 346 796 q 350 815 349 813 q 351 819 351 817 l 351 826 q 352 833 351 826 q 356 839 353 839 q 360 831 360 839 l 360 810 q 381 789 361 789 q 388 790 383 789 q 396 790 392 790 q 400 789 400 790 q 397 782 400 785 q 392 776 394 779 q 378 767 389 774 q 365 758 368 761 q 347 735 353 750 q 339 704 342 721 q 342 702 340 703 q 343 701 343 701 q 364 672 358 693 q 369 635 369 650 l 372 633 q 385 625 375 631 q 397 618 394 619 q 413 606 406 613 q 424 596 419 600 q 440 579 429 585 l 443 576 l 446 574 l 451 571 l 451 558 q 453 554 451 556 q 454 550 454 553 q 453 539 454 540 l 451 525 q 446 510 451 515 q 440 506 443 508 q 432 503 436 504 l 431 503 l 431 504 q 437 511 431 507 q 443 526 443 515 q 442 540 443 533 q 433 549 440 546 l 426 551 q 421 556 422 553 q 414 563 419 560 l 410 563 q 400 561 401 563 l 378 558 l 378 553 q 381 550 378 550 q 384 551 383 550 q 386 553 385 553 q 388 551 388 553 q 389 550 389 551 q 396 516 392 533 q 400 482 400 499 l 401 474 q 401 472 401 472 q 400 468 400 471 q 402 456 400 461 q 404 446 404 451 l 404 440 q 394 430 397 435 q 386 418 390 425 q 382 412 383 415 q 378 404 381 408 l 376 414 l 381 431 l 378 428 q 375 424 374 424 q 369 429 369 424 l 369 431 q 373 446 372 435 q 374 460 374 457 l 374 468 l 375 469 q 374 472 375 471 q 374 472 374 472 l 351 517 q 343 535 343 525 q 342 543 343 542 q 336 551 336 549 l 335 551 q 329 549 329 551 l 329 543 q 343 494 338 517 q 360 449 349 472 q 362 447 360 453 q 367 422 364 440 q 377 403 372 411 q 389 383 382 394 q 397 371 397 381 q 401 361 397 368 q 408 344 406 354 l 413 336 l 413 333 q 412 331 413 332 q 411 326 411 329 l 413 311 l 407 315 l 407 314 q 413 302 408 308 q 417 289 417 296 q 414 279 417 282 q 415 272 414 278 q 418 265 417 267 q 419 262 418 263 q 421 260 421 261 q 419 258 421 258 q 418 257 418 257 q 417 259 418 257 q 414 261 417 261 q 410 259 411 261 q 408 256 410 257 l 408 257 q 407 258 408 257 q 406 258 406 260 q 402 255 401 257 q 397 253 403 253 q 398 252 397 253 q 397 251 399 251 l 396 249 q 401 245 400 244 q 406 243 403 246 q 404 240 406 240 l 404 239 l 404 235 l 404 233 q 401 232 404 232 l 396 232 q 394 235 396 235 l 388 231 q 385 232 385 231 q 383 235 385 235 l 378 225 l 378 218 q 381 215 378 215 l 381 214 l 379 214 l 376 214 q 374 218 376 218 q 369 233 374 229 l 363 243 l 356 243 l 356 244 q 353 243 356 243 q 349 249 349 243 q 340 239 343 239 l 335 243 l 331 239 q 333 244 331 242 q 336 253 336 247 q 334 255 336 253 q 329 257 332 257 l 329 256 q 326 242 326 242 q 319 232 326 236 l 317 232 q 314 228 315 232 q 313 225 313 225 q 309 216 311 219 q 306 208 307 213 q 304 203 304 208 q 300 182 301 190 q 297 158 299 174 l 297 154 l 243 154 l 239 165 q 238 172 238 167 l 238 178 q 231 200 236 192 q 227 216 229 206 q 225 229 225 226 m 178 504 q 178 503 178 504 q 179 500 179 501 q 181 499 181 500 l 181 486 q 179 483 179 486 l 179 482 q 185 467 179 472 l 185 472 l 186 472 l 186 482 q 186 485 188 481 q 185 492 185 489 q 186 494 185 494 l 188 494 l 188 499 q 192 507 188 503 q 197 521 197 511 q 190 537 190 528 q 188 553 189 546 l 188 556 q 185 560 188 557 q 181 552 182 556 q 179 544 181 549 l 178 504 m 376 335 l 378 328 q 381 317 378 319 l 383 317 q 389 311 383 311 l 390 311 l 390 321 q 389 337 390 328 q 383 353 388 346 l 382 353 q 379 345 381 350 q 378 338 378 340 q 377 337 378 338 q 376 335 376 336 m 369 358 q 374 353 369 354 q 376 361 376 356 l 376 364 l 369 363 l 369 358 "},"Ö":{"ha":571,"x_min":36,"x_max":535,"o":"m 88 1208 l 88 1028 l 265 1028 l 265 1208 l 88 1208 m 306 1208 l 306 1028 l 483 1028 l 483 1208 l 306 1208 m 406 0 q 501 31 468 0 q 535 125 535 63 l 535 853 q 501 947 535 915 q 406 978 468 978 l 165 978 q 69 947 103 978 q 36 853 36 915 l 36 125 q 69 31 36 63 q 165 0 103 0 l 406 0 m 225 229 q 218 232 222 232 l 214 235 l 211 239 q 208 242 210 236 q 207 251 207 249 l 206 256 q 205 258 206 257 q 204 260 204 260 l 204 265 l 201 269 q 200 275 200 271 l 200 282 l 200 301 l 217 313 l 214 331 q 200 357 201 340 l 200 367 q 199 369 200 369 l 199 364 q 196 363 199 364 q 193 358 193 361 l 189 357 l 188 342 l 188 318 q 186 308 188 310 l 154 235 q 153 231 153 233 q 151 229 153 229 l 150 232 l 163 269 q 165 278 163 275 q 168 285 167 282 q 174 300 171 292 q 179 315 176 308 q 172 321 179 321 q 168 315 168 321 l 142 238 l 139 235 q 135 238 135 235 l 135 239 l 135 240 q 136 243 135 242 l 142 260 q 142 262 142 261 q 143 264 143 263 l 160 317 q 160 319 160 318 q 161 319 161 319 q 169 333 164 328 q 178 344 174 338 q 182 358 179 349 q 186 367 185 367 l 188 374 l 188 397 l 185 429 q 181 441 185 436 q 172 449 176 446 q 168 447 172 447 q 162 451 165 447 q 156 456 158 454 q 154 461 154 457 q 151 467 154 464 l 150 465 l 150 468 l 150 475 q 147 485 150 474 q 143 491 146 489 q 139 496 140 493 l 135 521 q 133 524 135 524 q 131 528 132 525 l 131 540 q 136 553 131 553 q 144 563 142 554 q 147 580 144 582 q 150 585 150 578 q 151 599 150 592 q 153 615 151 607 l 153 618 q 151 626 153 624 q 150 633 150 629 l 150 653 q 151 669 150 668 q 154 680 151 678 q 163 686 157 682 l 179 704 q 185 708 182 707 q 194 713 189 710 l 199 715 l 199 717 l 200 717 l 206 717 q 208 719 207 717 q 211 722 210 721 q 217 725 214 725 q 221 726 219 725 l 219 731 q 218 749 218 732 l 218 767 l 218 781 q 224 788 218 786 q 225 789 225 788 q 226 792 226 790 q 228 797 226 796 q 236 814 232 811 q 249 819 240 817 l 253 822 l 260 824 q 265 821 263 824 l 272 821 q 290 807 283 817 q 299 786 296 797 q 301 785 300 785 q 303 783 301 786 l 304 767 q 303 763 304 764 l 303 725 q 307 722 303 722 q 313 719 311 721 q 315 713 315 717 q 318 710 315 710 l 319 710 q 337 751 331 729 q 346 793 343 774 q 347 804 346 796 q 350 815 349 813 q 351 819 351 817 l 351 826 q 352 833 351 826 q 356 839 353 839 q 360 831 360 839 l 360 810 q 381 789 361 789 q 388 790 383 789 q 396 790 392 790 q 400 789 400 790 q 397 782 400 785 q 392 776 394 779 q 378 767 389 774 q 365 758 368 761 q 347 735 353 750 q 339 704 342 721 q 342 702 340 703 q 343 701 343 701 q 364 672 358 693 q 369 635 369 650 l 372 633 q 385 625 375 631 q 397 618 394 619 q 413 606 406 613 q 424 596 419 600 q 440 579 429 585 l 443 576 l 446 574 l 451 571 l 451 558 q 453 554 451 556 q 454 550 454 553 q 453 539 454 540 l 451 525 q 446 510 451 515 q 440 506 443 508 q 432 503 436 504 l 431 503 l 431 504 q 437 511 431 507 q 443 526 443 515 q 442 540 443 533 q 433 549 440 546 l 426 551 q 421 556 422 553 q 414 563 419 560 l 410 563 q 400 561 401 563 l 378 558 l 378 553 q 381 550 378 550 q 384 551 383 550 q 386 553 385 553 q 388 551 388 553 q 389 550 389 551 q 396 516 392 533 q 400 482 400 499 l 401 474 q 401 472 401 472 q 400 468 400 471 q 402 456 400 461 q 404 446 404 451 l 404 440 q 394 430 397 435 q 386 418 390 425 q 382 412 383 415 q 378 404 381 408 l 376 414 l 381 431 l 378 428 q 375 424 374 424 q 369 429 369 424 l 369 431 q 373 446 372 435 q 374 460 374 457 l 374 468 l 375 469 q 374 472 375 471 q 374 472 374 472 l 351 517 q 343 535 343 525 q 342 543 343 542 q 336 551 336 549 l 335 551 q 329 549 329 551 l 329 543 q 343 494 338 517 q 360 449 349 472 q 362 447 360 453 q 367 422 364 440 q 377 403 372 411 q 389 383 382 394 q 397 371 397 381 q 401 361 397 368 q 408 344 406 354 l 413 336 l 413 333 q 412 331 413 332 q 411 326 411 329 l 413 311 l 407 315 l 407 314 q 413 302 408 308 q 417 289 417 296 q 414 279 417 282 q 415 272 414 278 q 418 265 417 267 q 419 262 418 263 q 421 260 421 261 q 419 258 421 258 q 418 257 418 257 q 417 259 418 257 q 414 261 417 261 q 410 259 411 261 q 408 256 410 257 l 408 257 q 407 258 408 257 q 406 258 406 260 q 402 255 401 257 q 397 253 403 253 q 398 252 397 253 q 397 251 399 251 l 396 249 q 401 245 400 244 q 406 243 403 246 q 404 240 406 240 l 404 239 l 404 235 l 404 233 q 401 232 404 232 l 396 232 q 394 235 396 235 l 388 231 q 385 232 385 231 q 383 235 385 235 l 378 225 l 378 218 q 381 215 378 215 l 381 214 l 379 214 l 376 214 q 374 218 376 218 q 369 233 374 229 l 363 243 l 356 243 l 356 244 q 353 243 356 243 q 349 249 349 243 q 340 239 343 239 l 335 243 l 331 239 q 333 244 331 242 q 336 253 336 247 q 334 255 336 253 q 329 257 332 257 l 329 256 q 326 242 326 242 q 319 232 326 236 l 317 232 q 314 228 315 232 q 313 225 313 225 q 309 216 311 219 q 306 208 307 213 q 304 203 304 208 q 300 182 301 190 q 297 158 299 174 l 297 154 l 243 154 l 239 165 q 238 172 238 167 l 238 178 q 231 200 236 192 q 227 216 229 206 q 225 229 225 226 m 178 504 q 178 503 178 504 q 179 500 179 501 q 181 499 181 500 l 181 486 q 179 483 179 486 l 179 482 q 185 467 179 472 l 185 472 l 186 472 l 186 482 q 186 485 188 481 q 185 492 185 489 q 186 494 185 494 l 188 494 l 188 499 q 192 507 188 503 q 197 521 197 511 q 190 537 190 528 q 188 553 189 546 l 188 556 q 185 560 188 557 q 181 552 182 556 q 179 544 181 549 l 178 504 m 376 335 l 378 328 q 381 317 378 319 l 383 317 q 389 311 383 311 l 390 311 l 390 321 q 389 337 390 328 q 383 353 388 346 l 382 353 q 379 345 381 350 q 378 338 378 340 q 377 337 378 338 q 376 335 376 336 m 369 358 q 374 353 369 354 q 376 361 376 356 l 376 364 l 369 363 l 369 358 "},"×":{"ha":456,"x_min":36,"x_max":419,"o":"m 164 688 l 36 560 l 100 496 l 36 432 l 164 304 l 228 368 l 292 304 l 419 432 l 356 496 l 419 560 l 292 688 l 228 624 l 164 688 "},"Ø":{"ha":568,"x_min":36,"x_max":532,"o":"m 403 978 q 499 947 465 978 q 532 853 532 915 l 532 125 q 499 31 532 63 q 403 0 465 0 l 165 0 q 69 31 103 0 q 36 125 36 63 l 36 853 q 69 947 36 915 q 165 978 103 978 l 403 978 m 354 181 l 354 524 l 258 181 l 354 181 m 214 797 l 214 454 l 310 797 l 214 797 "},"Ù":{"ha":571,"x_min":36,"x_max":535,"o":"m 308 1208 l 385 1028 l 218 1028 l 131 1208 l 308 1208 m 165 0 q 69 31 103 0 q 36 125 36 63 l 36 978 l 214 978 l 214 181 l 357 181 l 357 978 l 535 978 l 535 125 q 501 31 535 63 q 406 0 468 0 l 165 0 "},"Ú":{"ha":571,"x_min":36,"x_max":535,"o":"m 440 1208 l 353 1028 l 186 1028 l 263 1208 l 440 1208 m 165 0 q 69 31 103 0 q 36 125 36 63 l 36 978 l 214 978 l 214 181 l 357 181 l 357 978 l 535 978 l 535 125 q 501 31 535 63 q 406 0 468 0 l 165 0 "},"Û":{"ha":571,"x_min":36,"x_max":535,"o":"m 404 1208 l 486 1028 l 319 1028 l 285 1099 l 251 1028 l 85 1028 l 167 1208 l 404 1208 m 165 0 q 69 31 103 0 q 36 125 36 63 l 36 978 l 214 978 l 214 181 l 357 181 l 357 978 l 535 978 l 535 125 q 501 31 535 63 q 406 0 468 0 l 165 0 "},"Ü":{"ha":571,"x_min":36,"x_max":535,"o":"m 483 1208 l 483 1028 l 306 1028 l 306 1208 l 483 1208 m 265 1208 l 265 1028 l 88 1028 l 88 1208 l 265 1208 m 165 0 q 69 31 103 0 q 36 125 36 63 l 36 978 l 214 978 l 214 181 l 357 181 l 357 978 l 535 978 l 535 125 q 501 31 535 63 q 406 0 468 0 l 165 0 "},"Ý":{"ha":581,"x_min":22,"x_max":558,"o":"m 444 1208 l 357 1028 l 190 1028 l 267 1208 l 444 1208 m 206 978 l 290 728 l 375 978 l 558 978 l 378 489 l 378 0 l 200 0 l 200 490 l 22 978 l 206 978 "},"Þ":{"ha":571,"x_min":36,"x_max":535,"o":"m 36 978 l 36 0 l 214 0 l 214 606 l 358 606 l 358 394 l 254 394 l 254 214 l 406 214 q 501 245 468 214 q 535 339 535 276 l 535 661 q 501 755 535 724 q 406 786 468 786 l 214 786 l 214 978 l 36 978 "},"ß":{"ha":585,"x_min":36,"x_max":549,"o":"m 36 853 l 36 0 l 214 0 l 214 797 l 346 797 l 346 586 l 254 586 l 254 404 l 371 404 l 371 181 l 253 181 l 253 0 l 419 0 q 515 31 482 0 q 549 125 549 63 l 549 382 q 525 455 549 426 q 467 496 501 483 q 511 534 499 507 q 524 601 524 561 l 524 853 q 490 947 524 915 q 394 978 457 978 l 165 978 q 69 947 103 978 q 36 853 36 915 "},"à":{"ha":639,"x_min":22,"x_max":617,"o":"m 228 978 l 22 0 l 211 0 l 321 539 l 428 0 l 617 0 l 411 978 l 228 978 m 422 1028 l 346 1208 l 168 1208 l 256 1028 l 422 1028 "},"á":{"ha":640,"x_min":24,"x_max":618,"o":"m 294 1208 l 218 1028 l 385 1028 l 472 1208 l 294 1208 m 618 0 l 413 978 l 229 978 l 24 0 l 213 0 l 319 539 l 429 0 l 618 0 "},"â":{"ha":640,"x_min":24,"x_max":618,"o":"m 201 1208 l 119 1028 l 286 1028 l 319 1099 l 354 1028 l 521 1028 l 439 1208 l 201 1208 m 618 0 l 413 978 l 229 978 l 24 0 l 213 0 l 319 539 l 429 0 l 618 0 "},"ã":{"ha":640,"x_min":24,"x_max":618,"o":"m 444 1028 l 526 1208 l 426 1208 l 394 1138 l 363 1208 l 196 1208 l 114 1028 l 214 1028 l 246 1099 l 279 1028 l 444 1028 m 618 0 l 413 978 l 229 978 l 24 0 l 213 0 l 319 539 l 429 0 l 618 0 "},"ä":{"ha":640,"x_min":24,"x_max":618,"o":"m 122 1208 l 122 1028 l 300 1028 l 300 1208 l 122 1208 m 340 1208 l 340 1028 l 518 1028 l 518 1208 l 340 1208 m 618 0 l 413 978 l 229 978 l 24 0 l 213 0 l 319 539 l 429 0 l 618 0 "},"å":{"ha":640,"x_min":24,"x_max":618,"o":"m 413 978 l 618 0 l 429 0 l 319 539 l 213 0 l 24 0 l 229 978 l 413 978 m 231 1028 l 231 1208 l 408 1208 l 408 1028 l 231 1028 m 296 1147 l 296 1089 l 344 1089 l 344 1147 l 296 1147 "},"æ":{"ha":975,"x_min":22,"x_max":939,"o":"m 515 978 l 515 482 l 411 978 l 228 978 l 22 0 l 211 0 l 318 539 l 428 0 l 939 0 l 939 181 l 693 181 l 693 406 l 897 406 l 897 586 l 693 586 l 693 797 l 939 797 l 939 978 l 515 978 "},"ç":{"ha":496,"x_min":36,"x_max":460,"o":"m 167 -60 l 167 -176 l 340 -176 l 340 0 l 460 0 l 460 181 l 214 181 l 214 797 l 460 797 l 460 978 l 165 978 q 71 951 106 978 q 36 861 36 924 l 36 125 q 69 31 36 63 q 165 0 103 0 l 219 0 l 219 -60 l 167 -60 "},"è":{"ha":496,"x_min":36,"x_max":460,"o":"m 36 978 l 460 978 l 460 797 l 214 797 l 214 586 l 418 586 l 418 406 l 214 406 l 214 181 l 460 181 l 460 0 l 36 0 l 36 978 m 274 1208 l 350 1028 l 183 1028 l 96 1208 l 274 1208 "},"é":{"ha":496,"x_min":36,"x_max":460,"o":"m 400 1208 l 313 1028 l 146 1028 l 222 1208 l 400 1208 m 36 978 l 460 978 l 460 797 l 214 797 l 214 586 l 418 586 l 418 406 l 214 406 l 214 181 l 460 181 l 460 0 l 36 0 l 36 978 "},"ê":{"ha":496,"x_min":36,"x_max":460,"o":"m 129 1208 l 47 1028 l 214 1028 l 247 1099 l 282 1028 l 449 1028 l 367 1208 l 129 1208 m 36 0 l 460 0 l 460 181 l 214 181 l 214 406 l 418 406 l 418 586 l 214 586 l 214 797 l 460 797 l 460 978 l 36 978 l 36 0 "},"ë":{"ha":496,"x_min":36,"x_max":460,"o":"m 50 1208 l 50 1028 l 228 1028 l 228 1208 l 50 1208 m 268 1208 l 268 1028 l 446 1028 l 446 1208 l 268 1208 m 36 0 l 460 0 l 460 181 l 214 181 l 214 406 l 418 406 l 418 586 l 214 586 l 214 797 l 460 797 l 460 978 l 36 978 l 36 0 "},"ì":{"ha":250,"x_min":-26,"x_max":228,"o":"m -26 1208 l 61 1028 l 228 1028 l 151 1208 l -26 1208 m 36 978 l 36 0 l 214 0 l 214 978 l 36 978 "},"í":{"ha":250,"x_min":24,"x_max":278,"o":"m 100 1208 l 24 1028 l 190 1028 l 278 1208 l 100 1208 m 36 978 l 36 0 l 214 0 l 214 978 l 36 978 "},"î":{"ha":250,"x_min":-75,"x_max":326,"o":"m 7 1208 l -75 1028 l 92 1028 l 125 1099 l 160 1028 l 326 1028 l 244 1208 l 7 1208 m 36 978 l 36 0 l 214 0 l 214 978 l 36 978 "},"ï":{"ha":250,"x_min":-72,"x_max":324,"o":"m -72 1208 l -72 1028 l 106 1028 l 106 1208 l -72 1208 m 146 1208 l 146 1028 l 324 1028 l 324 1208 l 146 1208 m 36 978 l 36 0 l 214 0 l 214 978 l 36 978 "},"ð":{"ha":565,"x_min":36,"x_max":529,"o":"m 310 700 l 132 700 l 132 797 l 36 797 l 36 978 l 132 978 l 132 1075 l 310 1075 l 310 978 l 400 978 q 494 951 460 978 q 529 861 529 924 l 529 125 q 496 31 529 63 q 400 0 463 0 l 165 0 q 69 31 103 0 q 36 125 36 63 l 36 463 q 69 556 36 525 q 165 586 103 586 l 353 586 l 353 797 l 310 797 l 310 700 m 353 406 l 213 406 l 213 181 l 353 181 l 353 406 "},"ñ":{"ha":567,"x_min":36,"x_max":531,"o":"m 406 1028 l 488 1208 l 388 1208 l 356 1138 l 324 1208 l 157 1208 l 75 1028 l 175 1028 l 207 1099 l 240 1028 l 406 1028 m 531 0 l 531 978 l 354 978 l 354 506 l 181 978 l 36 978 l 36 0 l 213 0 l 213 426 l 386 0 l 531 0 "},"ò":{"ha":571,"x_min":36,"x_max":535,"o":"m 131 1208 l 218 1028 l 385 1028 l 308 1208 l 131 1208 m 406 0 q 501 31 468 0 q 535 125 535 63 l 535 853 q 501 947 535 915 q 406 978 468 978 l 165 978 q 69 947 103 978 q 36 853 36 915 l 36 125 q 69 31 36 63 q 165 0 103 0 l 406 0 m 357 797 l 357 181 l 214 181 l 214 797 l 357 797 "},"ó":{"ha":571,"x_min":36,"x_max":535,"o":"m 357 797 l 357 181 l 214 181 l 214 797 l 357 797 m 406 0 q 501 31 468 0 q 535 125 535 63 l 535 853 q 501 947 535 915 q 406 978 468 978 l 165 978 q 69 947 103 978 q 36 853 36 915 l 36 125 q 69 31 36 63 q 165 0 103 0 l 406 0 m 263 1208 l 186 1028 l 353 1028 l 440 1208 l 263 1208 "},"ô":{"ha":571,"x_min":36,"x_max":535,"o":"m 406 0 q 501 31 468 0 q 535 125 535 63 l 535 853 q 501 947 535 915 q 406 978 468 978 l 165 978 q 69 947 103 978 q 36 853 36 915 l 36 125 q 69 31 36 63 q 165 0 103 0 l 406 0 m 357 797 l 357 181 l 214 181 l 214 797 l 357 797 m 167 1208 l 85 1028 l 251 1028 l 285 1099 l 319 1028 l 486 1028 l 404 1208 l 167 1208 "},"õ":{"ha":571,"x_min":36,"x_max":535,"o":"m 410 1028 l 492 1208 l 392 1208 l 360 1138 l 328 1208 l 161 1208 l 79 1028 l 179 1028 l 211 1099 l 244 1028 l 410 1028 m 406 0 q 501 31 468 0 q 535 125 535 63 l 535 853 q 501 947 535 915 q 406 978 468 978 l 165 978 q 69 947 103 978 q 36 853 36 915 l 36 125 q 69 31 36 63 q 165 0 103 0 l 406 0 m 357 797 l 357 181 l 214 181 l 214 797 l 357 797 "},"ö":{"ha":571,"x_min":36,"x_max":535,"o":"m 88 1208 l 88 1028 l 265 1028 l 265 1208 l 88 1208 m 306 1208 l 306 1028 l 483 1028 l 483 1208 l 306 1208 m 357 797 l 357 181 l 214 181 l 214 797 l 357 797 m 406 0 q 501 31 468 0 q 535 125 535 63 l 535 853 q 501 947 535 915 q 406 978 468 978 l 165 978 q 69 947 103 978 q 36 853 36 915 l 36 125 q 69 31 36 63 q 165 0 103 0 l 406 0 "},"÷":{"ha":503,"x_min":36,"x_max":467,"o":"m 163 361 l 163 181 l 340 181 l 340 361 l 163 361 m 163 810 l 163 629 l 340 629 l 340 810 l 163 810 m 36 586 l 36 406 l 467 406 l 467 586 l 36 586 "},"ø":{"ha":568,"x_min":36,"x_max":532,"o":"m 403 978 q 499 947 465 978 q 532 853 532 915 l 532 125 q 499 31 532 63 q 403 0 465 0 l 165 0 q 69 31 103 0 q 36 125 36 63 l 36 853 q 69 947 36 915 q 165 978 103 978 l 403 978 m 354 181 l 354 524 l 258 181 l 354 181 m 214 797 l 214 454 l 310 797 l 214 797 "},"ù":{"ha":571,"x_min":36,"x_max":535,"o":"m 308 1208 l 385 1028 l 218 1028 l 131 1208 l 308 1208 m 165 0 q 69 31 103 0 q 36 125 36 63 l 36 978 l 214 978 l 214 181 l 357 181 l 357 978 l 535 978 l 535 125 q 501 31 535 63 q 406 0 468 0 l 165 0 "},"ú":{"ha":571,"x_min":36,"x_max":535,"o":"m 440 1208 l 353 1028 l 186 1028 l 263 1208 l 440 1208 m 165 0 q 69 31 103 0 q 36 125 36 63 l 36 978 l 214 978 l 214 181 l 357 181 l 357 978 l 535 978 l 535 125 q 501 31 535 63 q 406 0 468 0 l 165 0 "},"û":{"ha":571,"x_min":36,"x_max":535,"o":"m 404 1208 l 486 1028 l 319 1028 l 285 1099 l 251 1028 l 85 1028 l 167 1208 l 404 1208 m 165 0 q 69 31 103 0 q 36 125 36 63 l 36 978 l 214 978 l 214 181 l 357 181 l 357 978 l 535 978 l 535 125 q 501 31 535 63 q 406 0 468 0 l 165 0 "},"ü":{"ha":571,"x_min":36,"x_max":535,"o":"m 483 1208 l 483 1028 l 306 1028 l 306 1208 l 483 1208 m 265 1208 l 265 1028 l 88 1028 l 88 1208 l 265 1208 m 165 0 q 69 31 103 0 q 36 125 36 63 l 36 978 l 214 978 l 214 181 l 357 181 l 357 978 l 535 978 l 535 125 q 501 31 535 63 q 406 0 468 0 l 165 0 "},"ý":{"ha":581,"x_min":22,"x_max":558,"o":"m 444 1208 l 357 1028 l 190 1028 l 267 1208 l 444 1208 m 206 978 l 290 728 l 375 978 l 558 978 l 378 489 l 378 0 l 200 0 l 200 490 l 22 978 l 206 978 "},"þ":{"ha":571,"x_min":36,"x_max":535,"o":"m 36 978 l 36 0 l 214 0 l 214 606 l 358 606 l 358 394 l 254 394 l 254 214 l 406 214 q 501 245 468 214 q 535 339 535 276 l 535 661 q 501 755 535 724 q 406 786 468 786 l 214 786 l 214 978 l 36 978 "},"ÿ":{"ha":581,"x_min":22,"x_max":558,"o":"m 488 1208 l 488 1028 l 310 1028 l 310 1208 l 488 1208 m 269 1208 l 269 1028 l 92 1028 l 92 1208 l 269 1208 m 206 978 l 290 728 l 375 978 l 558 978 l 378 489 l 378 0 l 200 0 l 200 490 l 22 978 l 206 978 "}}}
